<?xml version="1.0" encoding="UTF-8" standalone="no"?>
<svg
   viewBox="0 0 20.32 128.5"
   width="20.32mm"
   height="128.5mm"
   version="1.1"
   id="svg144"
   sodipodi:docname="ra-gnawbz-4x.svg"
   inkscape:version="1.4.4 (dcaf3e7d9e, 2026-05-05)"
   xmlns:inkscape="http://www.inkscape.org/namespaces/inkscape"
   xmlns:sodipodi="http://sodipodi.sourceforge.net/DTD/sodipodi-0.dtd"
   xmlns="http://www.w3.org/2000/svg"
   xmlns:svg="http://www.w3.org/2000/svg">
  <defs
     id="defs144" />
  <sodipodi:namedview
     id="namedview144"
     pagecolor="#ffffff"
     bordercolor="#000000"
     borderopacity="0.25"
     inkscape:showpageshadow="2"
     inkscape:pageopacity="0.0"
     inkscape:pagecheckerboard="0"
     inkscape:deskcolor="#d1d1d1"
     inkscape:document-units="mm"
     showgrid="true"
     inkscape:zoom="26.83594"
     inkscape:cx="37.170302"
     inkscape:cy="192.9502"
     inkscape:window-width="3440"
     inkscape:window-height="1403"
     inkscape:window-x="0"
     inkscape:window-y="0"
     inkscape:window-maximized="1"
     inkscape:current-layer="layer4">
    <inkscape:grid
       id="grid146"
       units="mm"
       originx="0"
       originy="0"
       spacingx="1.0000001"
       spacingy="1"
       empcolor="#0099e5"
       empopacity="0.30196078"
       color="#0099e5"
       opacity="0.14901961"
       empspacing="5"
       enabled="true"
       visible="true" />
  </sodipodi:namedview>
  <g
     inkscape:groupmode="layer"
     id="layer-background"
     inkscape:label="Background"
     style="display:inline"
     sodipodi:insensitive="true">
    <rect
       x="0.30000001"
       y="0.30000001"
       width="19.719999"
       height="127.9"
       fill="none"
       stroke="#333333"
       stroke-width="1.5"
       id="rect1" />
    <rect
       x="0"
       y="0"
       width="20.32"
       height="1.295"
       fill="#303031"
       id="rect2" />
    <rect
       x="0"
       y="1.285"
       width="20.32"
       height="1.295"
       fill="#303031"
       id="rect3" />
    <rect
       x="0"
       y="2.5699999"
       width="20.32"
       height="1.295"
       fill="#2f2f30"
       id="rect4" />
    <rect
       x="0"
       y="3.855"
       width="20.32"
       height="1.295"
       fill="#2f2f30"
       id="rect5" />
    <rect
       x="0"
       y="5.1399999"
       width="20.32"
       height="1.295"
       fill="#2e2e2f"
       id="rect6" />
    <rect
       x="0"
       y="6.4250002"
       width="20.32"
       height="1.295"
       fill="#2e2e2f"
       id="rect7" />
    <rect
       x="0"
       y="7.71"
       width="20.32"
       height="1.295"
       fill="#2e2e2f"
       id="rect8" />
    <rect
       x="0"
       y="8.9949999"
       width="20.32"
       height="1.295"
       fill="#2d2d2e"
       id="rect9" />
    <rect
       x="0"
       y="10.28"
       width="20.32"
       height="1.295"
       fill="#2d2d2e"
       id="rect10" />
    <rect
       x="0"
       y="11.565"
       width="20.32"
       height="1.295"
       fill="#2c2c2d"
       id="rect11" />
    <rect
       x="0"
       y="12.85"
       width="20.32"
       height="1.295"
       fill="#2c2c2d"
       id="rect12" />
    <rect
       x="0"
       y="14.135"
       width="20.32"
       height="1.295"
       fill="#2c2c2d"
       id="rect13" />
    <rect
       x="0"
       y="15.42"
       width="20.32"
       height="1.295"
       fill="#2b2b2c"
       id="rect14" />
    <rect
       x="0"
       y="16.705"
       width="20.32"
       height="1.295"
       fill="#2b2b2c"
       id="rect15" />
    <rect
       x="0"
       y="17.99"
       width="20.32"
       height="1.295"
       fill="#2a2a2b"
       id="rect16" />
    <rect
       x="0"
       y="19.275"
       width="20.32"
       height="1.295"
       fill="#2a2a2b"
       id="rect17" />
    <rect
       x="0"
       y="20.559999"
       width="20.32"
       height="1.295"
       fill="#2a2a2b"
       id="rect18" />
    <rect
       x="0"
       y="21.844999"
       width="20.32"
       height="1.295"
       fill="#29292a"
       id="rect19" />
    <rect
       x="0"
       y="23.129999"
       width="20.32"
       height="1.295"
       fill="#29292a"
       id="rect20" />
    <rect
       x="0"
       y="24.415001"
       width="20.32"
       height="1.295"
       fill="#29292a"
       id="rect21" />
    <rect
       x="0"
       y="25.700001"
       width="20.32"
       height="1.295"
       fill="#282829"
       id="rect22" />
    <rect
       x="0"
       y="26.985001"
       width="20.32"
       height="1.295"
       fill="#282829"
       id="rect23" />
    <rect
       x="0"
       y="28.27"
       width="20.32"
       height="1.295"
       fill="#272728"
       id="rect24" />
    <rect
       x="0"
       y="29.555"
       width="20.32"
       height="1.295"
       fill="#272728"
       id="rect25" />
    <rect
       x="0"
       y="30.84"
       width="20.32"
       height="1.295"
       fill="#272728"
       id="rect26" />
    <rect
       x="0"
       y="32.125"
       width="20.32"
       height="1.295"
       fill="#262627"
       id="rect27" />
    <rect
       x="0"
       y="33.41"
       width="20.32"
       height="1.295"
       fill="#262627"
       id="rect28" />
    <rect
       x="0"
       y="34.695"
       width="20.32"
       height="1.295"
       fill="#252526"
       id="rect29" />
    <rect
       x="0"
       y="35.98"
       width="20.32"
       height="1.295"
       fill="#252526"
       id="rect30" />
    <rect
       x="0"
       y="37.264999"
       width="20.32"
       height="1.295"
       fill="#252526"
       id="rect31" />
    <rect
       x="0"
       y="38.549999"
       width="20.32"
       height="1.295"
       fill="#242425"
       id="rect32" />
    <rect
       x="0"
       y="39.834999"
       width="20.32"
       height="1.295"
       fill="#242425"
       id="rect33" />
    <rect
       x="0"
       y="41.119999"
       width="20.32"
       height="1.295"
       fill="#232324"
       id="rect34" />
    <rect
       x="0"
       y="42.404999"
       width="20.32"
       height="1.295"
       fill="#232324"
       id="rect35" />
    <rect
       x="0"
       y="43.689999"
       width="20.32"
       height="1.295"
       fill="#232324"
       id="rect36" />
    <rect
       x="0"
       y="44.974998"
       width="20.32"
       height="1.295"
       fill="#232324"
       id="rect37" />
    <rect
       x="0"
       y="46.259998"
       width="20.32"
       height="1.295"
       fill="#232324"
       id="rect38" />
    <rect
       x="0"
       y="47.544998"
       width="20.32"
       height="1.295"
       fill="#232324"
       id="rect39" />
    <rect
       x="0"
       y="48.830002"
       width="20.32"
       height="1.295"
       fill="#232324"
       id="rect40" />
    <rect
       x="0"
       y="50.115002"
       width="20.32"
       height="1.295"
       fill="#232324"
       id="rect41" />
    <rect
       x="0"
       y="51.400002"
       width="20.32"
       height="1.295"
       fill="#232324"
       id="rect42" />
    <rect
       x="0"
       y="52.685001"
       width="20.32"
       height="1.295"
       fill="#232324"
       id="rect43" />
    <rect
       x="0"
       y="53.970001"
       width="20.32"
       height="1.295"
       fill="#232324"
       id="rect44" />
    <rect
       x="0"
       y="55.255001"
       width="20.32"
       height="1.295"
       fill="#232324"
       id="rect45" />
    <rect
       x="0"
       y="56.540001"
       width="20.32"
       height="1.295"
       fill="#232324"
       id="rect46" />
    <rect
       x="0"
       y="57.825001"
       width="20.32"
       height="1.295"
       fill="#232324"
       id="rect47" />
    <rect
       x="0"
       y="59.110001"
       width="20.32"
       height="1.295"
       fill="#232324"
       id="rect48" />
    <rect
       x="0"
       y="60.395"
       width="20.32"
       height="1.295"
       fill="#232324"
       id="rect49" />
    <rect
       x="0"
       y="61.68"
       width="20.32"
       height="1.295"
       fill="#232324"
       id="rect50" />
    <rect
       x="0"
       y="62.965"
       width="20.32"
       height="1.295"
       fill="#232324"
       id="rect51" />
    <rect
       x="0"
       y="64.25"
       width="20.32"
       height="1.295"
       fill="#232324"
       id="rect52" />
    <rect
       x="0"
       y="65.535004"
       width="20.32"
       height="1.295"
       fill="#232324"
       id="rect53" />
    <rect
       x="0"
       y="66.82"
       width="20.32"
       height="1.295"
       fill="#232324"
       id="rect54" />
    <rect
       x="0"
       y="68.105003"
       width="20.32"
       height="1.295"
       fill="#232324"
       id="rect55" />
    <rect
       x="0"
       y="69.389999"
       width="20.32"
       height="1.295"
       fill="#232324"
       id="rect56" />
    <rect
       x="0"
       y="70.675003"
       width="20.32"
       height="1.295"
       fill="#232324"
       id="rect57" />
    <rect
       x="0"
       y="71.959999"
       width="20.32"
       height="1.295"
       fill="#232324"
       id="rect58" />
    <rect
       x="0"
       y="73.245003"
       width="20.32"
       height="1.295"
       fill="#232324"
       id="rect59" />
    <rect
       x="0"
       y="74.529999"
       width="20.32"
       height="1.295"
       fill="#232324"
       id="rect60" />
    <rect
       x="0"
       y="75.815002"
       width="20.32"
       height="1.295"
       fill="#232324"
       id="rect61" />
    <rect
       x="0"
       y="77.099998"
       width="20.32"
       height="1.295"
       fill="#232324"
       id="rect62" />
    <rect
       x="0"
       y="78.385002"
       width="20.32"
       height="1.295"
       fill="#232324"
       id="rect63" />
    <rect
       x="0"
       y="79.669998"
       width="20.32"
       height="1.295"
       fill="#232324"
       id="rect64" />
    <rect
       x="0"
       y="80.955002"
       width="20.32"
       height="1.295"
       fill="#232324"
       id="rect65" />
    <rect
       x="0"
       y="82.239998"
       width="20.32"
       height="1.295"
       fill="#232324"
       id="rect66" />
    <rect
       x="0"
       y="83.525002"
       width="20.32"
       height="1.295"
       fill="#232324"
       id="rect67" />
    <rect
       x="0"
       y="84.809998"
       width="20.32"
       height="1.295"
       fill="#232324"
       id="rect68" />
    <rect
       x="0"
       y="86.095001"
       width="20.32"
       height="1.295"
       fill="#232324"
       id="rect69" />
    <rect
       x="0"
       y="87.379997"
       width="20.32"
       height="1.295"
       fill="#232324"
       id="rect70" />
    <rect
       x="0"
       y="88.665001"
       width="20.32"
       height="1.295"
       fill="#232324"
       id="rect71" />
    <rect
       x="0"
       y="89.949997"
       width="20.32"
       height="1.295"
       fill="#232324"
       id="rect72" />
    <rect
       x="0"
       y="91.235001"
       width="20.32"
       height="1.295"
       fill="#232324"
       id="rect73" />
    <rect
       x="0"
       y="92.519997"
       width="20.32"
       height="1.295"
       fill="#232324"
       id="rect74" />
    <rect
       x="0"
       y="93.805"
       width="20.32"
       height="1.295"
       fill="#232324"
       id="rect75" />
    <rect
       x="0"
       y="95.089996"
       width="20.32"
       height="1.295"
       fill="#232324"
       id="rect76" />
    <rect
       x="0"
       y="96.375"
       width="20.32"
       height="1.295"
       fill="#232324"
       id="rect77" />
    <rect
       x="0"
       y="97.660004"
       width="20.32"
       height="1.295"
       fill="#232324"
       id="rect78" />
    <rect
       x="0"
       y="98.945"
       width="20.32"
       height="1.295"
       fill="#232324"
       id="rect79" />
    <rect
       x="0"
       y="100.23"
       width="20.32"
       height="1.295"
       fill="#232324"
       id="rect80" />
    <rect
       x="0"
       y="101.515"
       width="20.32"
       height="1.295"
       fill="#232324"
       id="rect81" />
    <rect
       x="0"
       y="102.8"
       width="20.32"
       height="1.295"
       fill="#232324"
       id="rect82" />
    <rect
       x="0"
       y="104.085"
       width="20.32"
       height="1.295"
       fill="#232324"
       id="rect83" />
    <rect
       x="0"
       y="105.37"
       width="20.32"
       height="1.295"
       fill="#232324"
       id="rect84" />
    <rect
       x="0"
       y="106.655"
       width="20.32"
       height="1.295"
       fill="#232324"
       id="rect85" />
    <rect
       x="0"
       y="107.94"
       width="20.32"
       height="1.295"
       fill="#232324"
       id="rect86" />
    <rect
       x="0"
       y="109.225"
       width="20.32"
       height="1.295"
       fill="#232324"
       id="rect87" />
    <rect
       x="0"
       y="110.51"
       width="20.32"
       height="1.295"
       fill="#232324"
       id="rect88" />
    <rect
       x="0"
       y="111.795"
       width="20.32"
       height="1.295"
       fill="#232324"
       id="rect89" />
    <rect
       x="0"
       y="113.08"
       width="20.32"
       height="1.295"
       fill="#232324"
       id="rect90" />
    <rect
       x="0"
       y="114.365"
       width="20.32"
       height="1.295"
       fill="#232324"
       id="rect91" />
    <rect
       x="0"
       y="115.65"
       width="20.32"
       height="1.295"
       fill="#232324"
       id="rect92" />
    <rect
       x="0"
       y="116.935"
       width="20.32"
       height="1.295"
       fill="#232324"
       id="rect93" />
    <rect
       x="0"
       y="118.22"
       width="20.32"
       height="1.295"
       fill="#232324"
       id="rect94" />
    <rect
       x="0"
       y="119.505"
       width="20.32"
       height="1.295"
       fill="#232324"
       id="rect95" />
    <rect
       x="0"
       y="120.79"
       width="20.32"
       height="1.295"
       fill="#232324"
       id="rect96" />
    <rect
       x="0"
       y="122.075"
       width="20.32"
       height="1.295"
       fill="#232324"
       id="rect97" />
    <rect
       x="0"
       y="123.36"
       width="20.32"
       height="1.295"
       fill="#232324"
       id="rect98" />
    <rect
       x="0"
       y="124.645"
       width="20.32"
       height="1.295"
       fill="#232324"
       id="rect99" />
    <rect
       x="0"
       y="125.93"
       width="20.32"
       height="1.295"
       fill="#232324"
       id="rect100" />
    <rect
       x="0"
       y="127.215"
       width="20.32"
       height="1.295"
       fill="#232324"
       id="rect101" />
  </g>
  <g
     inkscape:groupmode="layer"
     id="layer-outlines"
     inkscape:label="Component Outlines"
     sodipodi:insensitive="true">
    <circle
       cx="2.54"
       cy="2.54"
       r="2.54"
       fill="#2a2a2a"
       stroke="#444444"
       stroke-width="1.5"
       id="circle101" />
    <circle
       cx="2.54"
       cy="2.54"
       r="0.80000001"
       fill="#444444"
       id="circle102" />
    <circle
       cx="2.54"
       cy="125.96"
       r="2.54"
       fill="#2a2a2a"
       stroke="#444444"
       stroke-width="1.5"
       id="circle103" />
    <circle
       cx="2.54"
       cy="125.96"
       r="0.80000001"
       fill="#444444"
       id="circle104" />
    <circle
       cx="17.780001"
       cy="2.54"
       r="2.54"
       fill="#2a2a2a"
       stroke="#444444"
       stroke-width="1.5"
       id="circle105" />
    <circle
       cx="17.780001"
       cy="2.54"
       r="0.80000001"
       fill="#444444"
       id="circle106" />
    <circle
       cx="17.780001"
       cy="125.96"
       r="2.54"
       fill="#2a2a2a"
       stroke="#444444"
       stroke-width="1.5"
       id="circle107" />
    <circle
       cx="17.780001"
       cy="125.96"
       r="0.80000001"
       fill="#444444"
       id="circle108" />
    <circle
       cx="6.0999999"
       cy="18.290001"
       r="4.8000002"
       fill="#222222"
       stroke="#888888"
       stroke-width="1.5"
       opacity="0.6"
       id="circle109" />
    <circle
       cx="6.0999999"
       cy="18.290001"
       r="1.6799999"
       fill="#333333"
       opacity="0.4"
       id="circle110" />
    <line
       x1="6.0999999"
       y1="18.290001"
       x2="9.2200003"
       y2="18.290001"
       stroke="#666666"
       stroke-width="0.5"
       opacity="0.6"
       id="line110" />
    <circle
       cx="6.0999999"
       cy="30.48"
       r="3.8399999"
       fill="#222222"
       stroke="#888888"
       stroke-width="1.5"
       opacity="0.6"
       id="circle111" />
    <circle
       cx="6.0999999"
       cy="30.48"
       r="1.34"
       fill="#333333"
       opacity="0.4"
       id="circle112" />
    <line
       x1="6.0999999"
       y1="30.48"
       x2="8.5900002"
       y2="30.48"
       stroke="#666666"
       stroke-width="0.5"
       opacity="0.6"
       id="line112" />
    <rect
       x="1.28"
       y="35.150002"
       width="9.6300001"
       height="9.6300001"
       rx="1.5"
       fill="#c8b7c7"
       opacity="0.7"
       id="rect112" />
    <circle
       cx="6.0999999"
       cy="39.959999"
       r="2.6099999"
       fill="#111111"
       opacity="0.5"
       id="circle113" />
    <circle
       cx="16.26"
       cy="18.969999"
       r="3.05"
       fill="#1a1a1a"
       stroke="#888888"
       stroke-width="1.6"
       opacity="0.6"
       id="circle114" />
    <circle
       cx="16.26"
       cy="18.969999"
       r="1.0700001"
       fill="#333333"
       opacity="0.5"
       id="circle115" />
    <rect
       x="13.89"
       y="23.6"
       width="4.7399998"
       height="6.9899998"
       rx="1"
       fill="none"
       stroke="#888888"
       stroke-width="1.4"
       opacity="0.5"
       id="rect115" />
    <line
       x1="16.26"
       y1="28.84"
       x2="16.26"
       y2="25.35"
       stroke="#888888"
       stroke-width="1.7"
       opacity="0.6"
       id="line115" />
    <circle
       cx="6.0999999"
       cy="53.849998"
       r="4.8000002"
       fill="#222222"
       stroke="#888888"
       stroke-width="1.5"
       opacity="0.6"
       id="circle116" />
    <circle
       cx="6.0999999"
       cy="53.849998"
       r="1.6799999"
       fill="#333333"
       opacity="0.4"
       id="circle117" />
    <line
       x1="6.0999999"
       y1="53.849998"
       x2="9.2200003"
       y2="53.849998"
       stroke="#666666"
       stroke-width="0.5"
       opacity="0.6"
       id="line117" />
    <circle
       cx="6.0999999"
       cy="66.040001"
       r="3.8399999"
       fill="#222222"
       stroke="#888888"
       stroke-width="1.5"
       opacity="0.6"
       id="circle118" />
    <circle
       cx="6.0999999"
       cy="66.040001"
       r="1.34"
       fill="#333333"
       opacity="0.4"
       id="circle119" />
    <line
       x1="6.0999999"
       y1="66.040001"
       x2="8.5900002"
       y2="66.040001"
       stroke="#666666"
       stroke-width="0.5"
       opacity="0.6"
       id="line119" />
    <rect
       x="1.28"
       y="70.709999"
       width="9.6300001"
       height="9.6300001"
       rx="1.5"
       fill="#c8b7c7"
       opacity="0.7"
       id="rect119" />
    <circle
       cx="6.0999999"
       cy="75.519997"
       r="2.6099999"
       fill="#111111"
       opacity="0.5"
       id="circle120" />
    <circle
       cx="16.26"
       cy="54.529999"
       r="3.05"
       fill="#1a1a1a"
       stroke="#888888"
       stroke-width="1.6"
       opacity="0.6"
       id="circle121" />
    <circle
       cx="16.26"
       cy="54.529999"
       r="1.0700001"
       fill="#333333"
       opacity="0.5"
       id="circle122" />
    <rect
       x="13.89"
       y="59.16"
       width="4.7399998"
       height="6.9899998"
       rx="1"
       fill="none"
       stroke="#888888"
       stroke-width="1.4"
       opacity="0.5"
       id="rect122" />
    <line
       x1="16.26"
       y1="64.400002"
       x2="16.26"
       y2="60.91"
       stroke="#888888"
       stroke-width="1.7"
       opacity="0.6"
       id="line122" />
    <circle
       cx="6.0999999"
       cy="89.410004"
       r="4.8000002"
       fill="#222222"
       stroke="#888888"
       stroke-width="1.5"
       opacity="0.6"
       id="circle123" />
    <circle
       cx="6.0999999"
       cy="89.410004"
       r="1.6799999"
       fill="#333333"
       opacity="0.4"
       id="circle124" />
    <line
       x1="6.0999999"
       y1="89.410004"
       x2="9.2200003"
       y2="89.410004"
       stroke="#666666"
       stroke-width="0.5"
       opacity="0.6"
       id="line124" />
    <circle
       cx="6.0999999"
       cy="101.6"
       r="3.8399999"
       fill="#222222"
       stroke="#888888"
       stroke-width="1.5"
       opacity="0.6"
       id="circle125" />
    <circle
       cx="6.0999999"
       cy="101.6"
       r="1.34"
       fill="#333333"
       opacity="0.4"
       id="circle126" />
    <line
       x1="6.0999999"
       y1="101.6"
       x2="8.5900002"
       y2="101.6"
       stroke="#666666"
       stroke-width="0.5"
       opacity="0.6"
       id="line126" />
    <rect
       x="1.28"
       y="106.27"
       width="9.6300001"
       height="9.6300001"
       rx="1.5"
       fill="#c8b7c7"
       opacity="0.7"
       id="rect126" />
    <circle
       cx="6.0999999"
       cy="111.08"
       r="2.6099999"
       fill="#111111"
       opacity="0.5"
       id="circle127" />
    <circle
       cx="16.26"
       cy="90.089996"
       r="3.05"
       fill="#1a1a1a"
       stroke="#888888"
       stroke-width="1.6"
       opacity="0.6"
       id="circle128" />
    <circle
       cx="16.26"
       cy="90.089996"
       r="1.0700001"
       fill="#333333"
       opacity="0.5"
       id="circle129" />
    <rect
       x="13.89"
       y="94.720001"
       width="4.7399998"
       height="6.9899998"
       rx="1"
       fill="none"
       stroke="#888888"
       stroke-width="1.4"
       opacity="0.5"
       id="rect129" />
    <line
       x1="16.26"
       y1="99.959999"
       x2="16.26"
       y2="96.470001"
       stroke="#888888"
       stroke-width="1.7"
       opacity="0.6"
       id="line129" />
  </g>
  <g
     inkscape:groupmode="layer"
     id="layer-text"
     inkscape:label="Text"
     style="display:none"
     sodipodi:insensitive="true">
    <text
       x="10.16"
       y="3.3900001"
       fill="#555555"
       font-family="sans-serif"
       font-size="2.8px"
       text-anchor="middle"
       font-weight="bold"
       id="text129">Ra-gnawbz-4x</text>
    <text
       x="6.0999999"
       y="25.09"
       fill="#888888"
       font-family="sans-serif"
       font-size="2px"
       text-anchor="middle"
       opacity="0.7"
       id="text130">KNOB1</text>
    <text
       x="6.0999999"
       y="36.32"
       fill="#888888"
       font-family="sans-serif"
       font-size="2px"
       text-anchor="middle"
       opacity="0.7"
       id="text131">SCALE1</text>
    <text
       x="6.0999999"
       y="45.98"
       fill="#c8b7c7"
       font-family="sans-serif"
       font-size="2px"
       text-anchor="middle"
       opacity="0.7"
       id="text132">OUTPUT1</text>
    <text
       x="16.26"
       y="24.01"
       fill="#888888"
       font-family="sans-serif"
       font-size="2px"
       text-anchor="middle"
       opacity="0.7"
       id="text133">LIGHT1 R</text>
    <text
       x="16.26"
       y="32.59"
       fill="#888888"
       font-family="sans-serif"
       font-size="2px"
       text-anchor="middle"
       opacity="0.7"
       id="text134">RANGE1</text>
    <text
       x="6.0999999"
       y="60.650002"
       fill="#888888"
       font-family="sans-serif"
       font-size="2px"
       text-anchor="middle"
       opacity="0.7"
       id="text135">KNOB1</text>
    <text
       x="6.0999999"
       y="71.879997"
       fill="#888888"
       font-family="sans-serif"
       font-size="2px"
       text-anchor="middle"
       opacity="0.7"
       id="text136">SCALE1</text>
    <text
       x="6.0999999"
       y="81.540001"
       fill="#c8b7c7"
       font-family="sans-serif"
       font-size="2px"
       text-anchor="middle"
       opacity="0.7"
       id="text137">OUTPUT1</text>
    <text
       x="16.26"
       y="59.57"
       fill="#888888"
       font-family="sans-serif"
       font-size="2px"
       text-anchor="middle"
       opacity="0.7"
       id="text138">LIGHT1 R</text>
    <text
       x="16.26"
       y="68.150002"
       fill="#888888"
       font-family="sans-serif"
       font-size="2px"
       text-anchor="middle"
       opacity="0.7"
       id="text139">RANGE1</text>
    <text
       x="6.0999999"
       y="96.209999"
       fill="#888888"
       font-family="sans-serif"
       font-size="2px"
       text-anchor="middle"
       opacity="0.7"
       id="text140">KNOB1</text>
    <text
       x="6.0999999"
       y="107.44"
       fill="#888888"
       font-family="sans-serif"
       font-size="2px"
       text-anchor="middle"
       opacity="0.7"
       id="text141">SCALE1</text>
    <text
       x="6.0999999"
       y="117.1"
       fill="#c8b7c7"
       font-family="sans-serif"
       font-size="2px"
       text-anchor="middle"
       opacity="0.7"
       id="text142">OUTPUT1</text>
    <text
       x="16.26"
       y="95.129997"
       fill="#888888"
       font-family="sans-serif"
       font-size="2px"
       text-anchor="middle"
       opacity="0.7"
       id="text143">LIGHT1 R</text>
    <text
       x="16.26"
       y="103.71"
       fill="#888888"
       font-family="sans-serif"
       font-size="2px"
       text-anchor="middle"
       opacity="0.7"
       id="text144">RANGE1</text>
  </g>
  <g
     inkscape:groupmode="layer"
     id="layer4"
     inkscape:label="Background 1">
    <path
       style="font-size:2.46944px;font-family:'URW Gothic';-inkscape-font-specification:'URW Gothic';letter-spacing:-0.0767292px;fill:#ffffff;stroke-width:0.5;stroke-linecap:round"
       d="m 38.69885,-17.71367 c 0.35066,-0.03704 0.538338,-0.229658 0.538338,-0.558093 0,-0.227189 -0.09631,-0.40005 -0.274108,-0.496358 -0.113594,-0.06174 -0.269169,-0.0889 -0.511174,-0.0889 h -0.451908 v 1.824917 h 0.182739 v -1.659464 h 0.256821 c 0.192617,0 0.321028,0.01975 0.419805,0.06668 0.123472,0.05927 0.192617,0.182738 0.192617,0.348191 0,0.207433 -0.09384,0.338313 -0.276578,0.385232 -0.08643,0.02223 -0.204963,0.0321 -0.407457,0.0321 l 0.61489,0.827263 h 0.227189 z m 0.757942,0.681566 h 0.182738 v -1.605136 l 1.086554,1.605136 h 0.182739 v -1.824917 h -0.182739 v 1.513767 l -1.022348,-1.513767 h -0.246944 z m 2.39271,-0.84208 v 0.165453 h 1.019879 c -0.02716,0.118533 -0.0889,0.21978 -0.192617,0.323497 -0.140758,0.140758 -0.333374,0.21731 -0.545746,0.21731 -0.446969,0 -0.800098,-0.340782 -0.800098,-0.775404 0,-0.43956 0.345721,-0.777873 0.797629,-0.777873 0.281516,0 0.518582,0.12841 0.644524,0.35066 h 0.204963 c -0.121003,-0.311149 -0.466724,-0.518582 -0.864304,-0.518582 -0.543277,0 -0.96802,0.412396 -0.96802,0.940856 0,0.535869 0.432152,0.948265 0.992714,0.948265 0.288925,0 0.535869,-0.106186 0.711199,-0.30868 0.148167,-0.170391 0.227189,-0.360538 0.239536,-0.565502 z"
       id="text146-4"
       transform="rotate(90)"
       aria-label="RNG" />
    <path
       style="font-size:2.46944px;font-family:'URW Gothic';-inkscape-font-specification:'URW Gothic';letter-spacing:-0.0767292px;fill:#ffffff;stroke-width:0.5;stroke-linecap:round"
       d="m 37.839485,-14.175084 h 0.192616 l 0.266699,-0.614891 h 0.849488 l 0.26423,0.614891 h 0.200024 L 38.827261,-16 h -0.204964 z m 0.52846,-0.780343 0.358069,-0.83714 0.35066,0.83714 z m 1.506183,0.780343 h 0.182738 v -1.659464 h 0.417336 V -16 h -1.01741 v 0.165452 h 0.417336 z m 1.064152,0 h 0.182738 v -1.659464 h 0.417336 V -16 h -1.01741 v 0.165452 h 0.417336 z m 0.73325,0 h 0.182739 v -1.605136 l 1.086553,1.605136 h 0.182739 V -16 h -0.182739 v 1.513766 L 41.918474,-16 H 41.67153 Z"
       id="text146-4-1"
       transform="rotate(90)"
       aria-label="ATTN" />
    <path
       style="fill:#ffffff;stroke:#ffffff;stroke-width:0.327832;stroke-linecap:round;stroke-dasharray:none;stroke-opacity:1"
       d="M 13.623486,14.145 H 10.325445"
       id="path146" />
    <path
       d="m 2.4125144,9.3412849 v 0.2929207 h 1.8056154 c -0.048091,0.2098536 -0.1573902,0.3891034 -0.3410121,0.5727254 -0.2492012,0.249201 -0.5902133,0.384732 -0.966201,0.384732 -0.791323,0 -1.4165118,-0.6033294 -1.4165118,-1.3727927 0,-0.7782071 0.612073,-1.3771643 1.4121399,-1.3771643 0.4984023,0 0.9181095,0.2273414 1.1410789,0.620817 H 4.4104956 C 4.1962701,7.9116572 3.584197,7.5444134 2.8803131,7.5444134 c -0.9618291,0 -1.7138045,0.7301157 -1.7138045,1.665713 0,0.9487136 0.7650913,1.6788286 1.757524,1.6788286 0.5115181,0 0.9487131,-0.187994 1.2591216,-0.546493 0.262317,-0.301665 0.4022194,-0.6383052 0.4240792,-1.0011771 z M 4.9829073,10.83212 H 5.3064316 V 7.9903523 L 7.2300896,10.83212 H 7.553614 V 7.6012488 H 7.2300896 V 10.281254 L 5.4201023,7.6012488 h -0.437195 z m 2.8108528,0 H 8.1347722 L 8.6069428,9.7435044 H 10.110894 L 10.578692,10.83212 H 10.93282 L 9.5425402,7.6012488 H 9.1796683 Z M 8.7293574,9.4505837 9.3632902,7.9684926 9.9841071,9.4505837 Z M 11.597044,10.83212 h 0.419707 l 0.708256,-2.6494018 0.717,2.6494018 h 0.415335 L 14.784196,7.6012488 H 14.451927 L 13.656232,10.412413 12.882397,7.6012488 H 12.576361 L 11.802526,10.412413 11.006831,7.6012488 h -0.332269 z m 3.43167,0 h 0.800067 c 0.432823,0 0.677653,-0.04809 0.883134,-0.170506 0.227342,-0.139903 0.362872,-0.424079 0.362872,-0.7563475 0,-0.3978475 -0.166134,-0.6383047 -0.542122,-0.7956949 0.249201,-0.1399024 0.3585,-0.349756 0.3585,-0.6689084 0,-0.2798048 -0.104927,-0.5158901 -0.288549,-0.6514206 C 16.418995,7.6580841 16.178537,7.6012488 15.785062,7.6012488 h -0.756348 z m 0.323525,-0.292921 V 9.2844496 h 0.384731 c 0.38036,0 0.572726,0.026232 0.708256,0.091811 0.192366,0.096183 0.301665,0.2885488 0.301665,0.5464938 0,0.2229697 -0.100555,0.4197077 -0.253573,0.4984027 -0.153019,0.08307 -0.371616,0.118042 -0.699512,0.118042 z m 0,-1.5476701 V 7.8941694 h 0.389103 c 0.332268,0 0.511518,0.030604 0.633933,0.1136707 0.113671,0.074323 0.187994,0.2448293 0.187994,0.4371951 0,0.2229694 -0.08744,0.3891035 -0.249201,0.4634267 -0.135531,0.061207 -0.275433,0.083067 -0.568354,0.083067 z m 1.792184,1.8405911 h 1.997981 V 10.539199 H 17.511667 L 19.094313,7.8941694 V 7.6012488 h -1.901799 v 0.2929206 h 1.538927 l -1.587018,2.6450296 z"
       id="text145"
       style="font-size:4.37195px;font-family:'URW Gothic';-inkscape-font-specification:'URW Gothic';letter-spacing:-0.135843px;fill:#ffffff;stroke:#ffffff;stroke-width:0.885212;stroke-linecap:round"
       aria-label="GNAWBZ" />
    <path
       style="font-size:2.46944px;font-family:'URW Gothic';-inkscape-font-specification:'URW Gothic';letter-spacing:-0.0767292px;fill:#ffffff;stroke-width:0.5;stroke-linecap:round"
       d="m 14.75071,14.967896 h 0.177799 L 15.684158,13.14298 H 15.486603 L 14.842079,14.740708 14.200025,13.14298 H 14 Z m 0.738184,0 h 0.192617 l 0.266699,-0.61489 h 0.849488 l 0.26423,0.61489 h 0.200024 L 16.47667,13.14298 h -0.204963 z m 0.52846,-0.780343 0.358069,-0.83714 0.350661,0.83714 z m 1.38271,0.780343 h 0.938387 V 14.802444 H 17.582802 V 13.14298 h -0.182738 z"
       id="text146"
       aria-label="VAL" />
    <path
       style="font-size:2.46944px;font-family:'URW Gothic';-inkscape-font-specification:'URW Gothic';letter-spacing:-0.0767292px;fill:#ffffff;stroke-width:0.5;stroke-linecap:round"
       d="m 38.8296,-12.999998 c -0.523521,0 -0.965551,0.427213 -0.965551,0.933448 0,0.530929 0.429683,0.955673 0.968021,0.955673 0.525991,0 0.960612,-0.427213 0.960612,-0.943326 0,-0.521052 -0.434621,-0.945795 -0.963082,-0.945795 z m 0,0.167921 c 0.427213,0 0.777874,0.35313 0.777874,0.780343 0,0.422275 -0.35313,0.772935 -0.775404,0.772935 -0.434622,0 -0.782813,-0.35066 -0.782813,-0.782812 0,-0.417336 0.358069,-0.770466 0.780343,-0.770466 z m 1.182684,-0.135819 v 1.138412 c 0,0.234597 0.03704,0.372886 0.128411,0.493888 0.108655,0.143228 0.288924,0.224719 0.491419,0.224719 0.204963,0 0.385232,-0.08149 0.493888,-0.224719 0.09137,-0.121002 0.12841,-0.259291 0.12841,-0.493888 v -1.138412 h -0.182738 v 1.138412 c 0,0.165453 -0.02716,0.291394 -0.08396,0.377824 -0.06914,0.106186 -0.204964,0.172861 -0.355599,0.172861 -0.148167,0 -0.283986,-0.06668 -0.35313,-0.172861 -0.0568,-0.08643 -0.08396,-0.212371 -0.08396,-0.377824 v -1.138412 z m 1.792641,1.824916 h 0.182738 v -1.659463 h 0.417336 v -0.165453 h -1.01741 v 0.165453 h 0.417336 z"
       id="text146-4-1-7"
       transform="rotate(90)"
       aria-label="OUT" />
    <path
       style="fill:#ffffff;stroke:#ffffff;stroke-width:0.3;stroke-linecap:round;stroke-dasharray:none;stroke-opacity:1"
       d="M 18.000001,37 V 32.135"
       id="path147" />
    <path
       style="fill:none;stroke:#ffffff;stroke-width:0.3;stroke-linecap:round;stroke-dasharray:none;stroke-opacity:1"
       d="M 15.000001,37 V 32.891872 L 11.446053,30.84"
       id="path148" />
    <path
       style="font-size:2.46944px;font-family:'URW Gothic';-inkscape-font-specification:'URW Gothic';letter-spacing:-0.0767292px;fill:#ffffff;stroke-width:0.5;stroke-linecap:round"
       d="m 17.588458,74.083144 c 0.03704,0.35066 0.229658,0.538338 0.558093,0.538338 0.227189,0 0.40005,-0.09631 0.496358,-0.274108 0.06174,-0.113594 0.0889,-0.269169 0.0889,-0.511174 v -0.451908 h -1.824917 v 0.182739 h 1.659464 v 0.256821 c 0,0.192617 -0.01975,0.321028 -0.06668,0.419805 -0.05927,0.123472 -0.182738,0.192617 -0.348191,0.192617 -0.207433,0 -0.338313,-0.09384 -0.385232,-0.276578 -0.02223,-0.08643 -0.0321,-0.204963 -0.0321,-0.407457 l -0.827263,0.61489 v 0.227189 z m -0.681566,0.757942 v 0.182738 h 1.605136 l -1.605136,1.086554 v 0.182739 h 1.824917 v -0.182739 h -1.513767 l 1.513767,-1.022348 v -0.246944 z m 0.84208,2.39271 h -0.165453 v 1.019879 c -0.118533,-0.02716 -0.21978,-0.0889 -0.323497,-0.192617 -0.140758,-0.140758 -0.21731,-0.333374 -0.21731,-0.545746 0,-0.446969 0.340782,-0.800098 0.775404,-0.800098 0.43956,0 0.777873,0.345721 0.777873,0.797629 0,0.281516 -0.12841,0.518582 -0.35066,0.644524 v 0.204963 c 0.311149,-0.121003 0.518582,-0.466724 0.518582,-0.864304 0,-0.543277 -0.412396,-0.96802 -0.940856,-0.96802 -0.535869,0 -0.948265,0.432152 -0.948265,0.992714 0,0.288925 0.106186,0.535869 0.30868,0.711199 0.170391,0.148167 0.360538,0.227189 0.565502,0.239536 z"
       id="text146-4-6"
       aria-label="RNG" />
    <path
       style="font-size:2.46944px;font-family:'URW Gothic';-inkscape-font-specification:'URW Gothic';letter-spacing:-0.0767292px;fill:#ffffff;stroke-width:0.5;stroke-linecap:round"
       d="m 14.049872,73.223779 v 0.192616 l 0.614891,0.266699 v 0.849488 l -0.614891,0.26423 v 0.200024 l 1.824916,-0.785281 v -0.204964 z m 0.780343,0.52846 0.83714,0.358069 -0.83714,0.35066 z m -0.780343,1.506183 v 0.182738 h 1.659464 v 0.417336 h 0.165452 v -1.01741 h -0.165452 v 0.417336 z m 0,1.064152 v 0.182738 h 1.659464 v 0.417336 h 0.165452 v -1.01741 h -0.165452 v 0.417336 z m 0,0.73325 v 0.182739 h 1.605136 l -1.605136,1.086553 v 0.182739 h 1.824916 v -0.182739 h -1.513766 l 1.513766,-1.022348 v -0.246944 z"
       id="text146-4-1-1"
       aria-label="ATTN" />
    <path
       style="fill:#ffffff;stroke:#ffffff;stroke-width:0.327832;stroke-linecap:round;stroke-dasharray:none;stroke-opacity:1"
       d="m 13.509317,49.529294 h -3.29804"
       id="path146-0" />
    <path
       style="font-size:2.46944px;font-family:'URW Gothic';-inkscape-font-specification:'URW Gothic';letter-spacing:-0.0767292px;fill:#ffffff;stroke-width:0.5;stroke-linecap:round"
       d="m 14.625498,50.35219 h 0.177799 l 0.755649,-1.824916 h -0.197555 l -0.644524,1.597728 -0.642054,-1.597728 h -0.200025 z m 0.738184,0 h 0.192617 l 0.266699,-0.61489 h 0.849488 l 0.26423,0.61489 h 0.200024 l -0.785282,-1.824916 h -0.204963 z m 0.52846,-0.780343 0.358069,-0.83714 0.350661,0.83714 z m 1.38271,0.780343 h 0.938387 V 50.186738 H 17.45759 v -1.659464 h -0.182738 z"
       id="text146-6"
       aria-label="VAL" />
    <path
       style="font-size:2.46944px;font-family:'URW Gothic';-inkscape-font-specification:'URW Gothic';letter-spacing:-0.0767292px;fill:#ffffff;stroke-width:0.5;stroke-linecap:round"
       d="m 12.874786,74.213894 c 0,-0.523521 -0.427213,-0.965551 -0.933448,-0.965551 -0.530929,0 -0.955673,0.429683 -0.955673,0.968021 0,0.525991 0.427213,0.960612 0.943326,0.960612 0.521052,0 0.945795,-0.434621 0.945795,-0.963082 z m -0.167921,0 c 0,0.427213 -0.35313,0.777874 -0.780343,0.777874 -0.422275,0 -0.772935,-0.35313 -0.772935,-0.775404 0,-0.434622 0.35066,-0.782813 0.782812,-0.782813 0.417336,0 0.770466,0.358069 0.770466,0.780343 z m 0.135819,1.182684 h -1.138412 c -0.234597,0 -0.372886,0.03704 -0.493888,0.128411 -0.143228,0.108655 -0.224719,0.288924 -0.224719,0.491419 0,0.204963 0.08149,0.385232 0.224719,0.493888 0.121002,0.09137 0.259291,0.12841 0.493888,0.12841 h 1.138412 v -0.182738 h -1.138412 c -0.165453,0 -0.291394,-0.02716 -0.377824,-0.08396 -0.106186,-0.06914 -0.172861,-0.204964 -0.172861,-0.355599 0,-0.148167 0.06668,-0.283986 0.172861,-0.35313 0.08643,-0.0568 0.212371,-0.08396 0.377824,-0.08396 h 1.138412 z m -1.824916,1.792641 v 0.182738 h 1.659463 v 0.417336 h 0.165453 v -1.01741 h -0.165453 v 0.417336 z"
       id="text146-4-1-7-1"
       aria-label="OUT" />
    <path
       style="fill:#ffffff;stroke:#ffffff;stroke-width:0.3;stroke-linecap:round;stroke-dasharray:none;stroke-opacity:1"
       d="m 17.874789,72.384294 v -4.865"
       id="path147-5" />
    <path
       style="fill:none;stroke:#ffffff;stroke-width:0.3;stroke-linecap:round;stroke-dasharray:none;stroke-opacity:1"
       d="M 14.874789,72.384294 V 68.276166 L 11.320841,66.224294"
       id="path148-9" />
    <path
       style="font-size:2.46944px;font-family:'URW Gothic';-inkscape-font-specification:'URW Gothic';letter-spacing:-0.0767292px;fill:#ffffff;stroke-width:0.5;stroke-linecap:round"
       d="m 17.785162,109.73095 c 0.03704,0.35066 0.229658,0.53834 0.558093,0.53834 0.227189,0 0.40005,-0.0963 0.496358,-0.27411 0.06174,-0.11359 0.0889,-0.26917 0.0889,-0.51117 v -0.45191 h -1.824917 v 0.18274 h 1.659464 v 0.25682 c 0,0.19262 -0.01975,0.32103 -0.06668,0.41981 -0.05927,0.12347 -0.182738,0.19261 -0.348191,0.19261 -0.207433,0 -0.338313,-0.0938 -0.385232,-0.27658 -0.02223,-0.0864 -0.0321,-0.20496 -0.0321,-0.40745 l -0.827263,0.61489 v 0.22719 z m -0.681566,0.75794 v 0.18274 h 1.605136 l -1.605136,1.08656 v 0.18274 h 1.824917 v -0.18274 h -1.513767 l 1.513767,-1.02235 v -0.24695 z m 0.84208,2.39272 h -0.165453 v 1.01987 c -0.118533,-0.0272 -0.21978,-0.0889 -0.323497,-0.19261 -0.140758,-0.14076 -0.21731,-0.33338 -0.21731,-0.54575 0,-0.44697 0.340782,-0.8001 0.775404,-0.8001 0.43956,0 0.777873,0.34572 0.777873,0.79763 0,0.28152 -0.12841,0.51858 -0.35066,0.64453 v 0.20496 c 0.311149,-0.121 0.518582,-0.46672 0.518582,-0.8643 0,-0.54328 -0.412396,-0.96803 -0.940856,-0.96803 -0.535869,0 -0.948265,0.43216 -0.948265,0.99272 0,0.28892 0.106186,0.53587 0.30868,0.7112 0.170391,0.14817 0.360538,0.22719 0.565502,0.23953 z"
       id="text146-4-6-9"
       aria-label="RNG" />
    <path
       style="font-size:2.46944px;font-family:'URW Gothic';-inkscape-font-specification:'URW Gothic';letter-spacing:-0.0767292px;fill:#ffffff;stroke-width:0.5;stroke-linecap:round"
       d="m 14.246576,108.87159 v 0.19261 l 0.614891,0.2667 v 0.84949 l -0.614891,0.26423 v 0.20002 l 1.824916,-0.78528 v -0.20496 z m 0.780343,0.52846 0.83714,0.35807 -0.83714,0.35066 z m -0.780343,1.50618 v 0.18274 h 1.659464 v 0.41733 h 0.165452 v -1.01741 H 15.90604 v 0.41734 z m 0,1.06415 v 0.18274 h 1.659464 v 0.41734 h 0.165452 v -1.01741 H 15.90604 v 0.41733 z m 0,0.73325 v 0.18274 h 1.605136 l -1.605136,1.08655 v 0.18274 h 1.824916 v -0.18274 h -1.513766 l 1.513766,-1.02234 v -0.24695 z"
       id="text146-4-1-1-0"
       aria-label="ATTN" />
    <path
       style="fill:#ffffff;stroke:#ffffff;stroke-width:0.327832;stroke-linecap:round;stroke-dasharray:none;stroke-opacity:1"
       d="m 13.688672,85.177102 h -3.29804"
       id="path146-0-9" />
    <path
       style="font-size:2.46944px;font-family:'URW Gothic';-inkscape-font-specification:'URW Gothic';letter-spacing:-0.0767292px;fill:#ffffff;stroke-width:0.5;stroke-linecap:round"
       d="m 14.822202,85.999998 h 0.177799 l 0.755649,-1.824916 h -0.197555 l -0.644524,1.597728 -0.642054,-1.597728 h -0.200025 z m 0.738184,0 h 0.192617 l 0.266699,-0.61489 h 0.849488 l 0.26423,0.61489 h 0.200024 l -0.785282,-1.824916 h -0.204963 z m 0.52846,-0.780343 0.358069,-0.83714 0.350661,0.83714 z m 1.38271,0.780343 h 0.938387 v -0.165452 h -0.755649 v -1.659464 h -0.182738 z"
       id="text146-6-1"
       aria-label="VAL" />
    <path
       style="font-size:2.46944px;font-family:'URW Gothic';-inkscape-font-specification:'URW Gothic';letter-spacing:-0.0767292px;fill:#ffffff;stroke-width:0.5;stroke-linecap:round"
       d="m 13.07149,109.8617 c 0,-0.52352 -0.427213,-0.96555 -0.933448,-0.96555 -0.530929,0 -0.955673,0.42968 -0.955673,0.96802 0,0.52599 0.427213,0.96061 0.943326,0.96061 0.521052,0 0.945795,-0.43462 0.945795,-0.96308 z m -0.167921,0 c 0,0.42722 -0.35313,0.77788 -0.780343,0.77788 -0.422275,0 -0.772935,-0.35313 -0.772935,-0.77541 0,-0.43462 0.35066,-0.78281 0.782812,-0.78281 0.417336,0 0.770466,0.35807 0.770466,0.78034 z m 0.135819,1.18269 h -1.138412 c -0.234597,0 -0.372886,0.037 -0.493888,0.12841 -0.143228,0.10865 -0.224719,0.28892 -0.224719,0.49142 0,0.20496 0.08149,0.38523 0.224719,0.49388 0.121002,0.0914 0.259291,0.12841 0.493888,0.12841 h 1.138412 v -0.18273 h -1.138412 c -0.165453,0 -0.291394,-0.0272 -0.377824,-0.084 -0.106186,-0.0691 -0.172861,-0.20497 -0.172861,-0.3556 0,-0.14817 0.06668,-0.28399 0.172861,-0.35313 0.08643,-0.0568 0.212371,-0.084 0.377824,-0.084 h 1.138412 z m -1.824916,1.79264 v 0.18274 h 1.659463 v 0.41733 h 0.165453 v -1.01741 h -0.165453 v 0.41734 z"
       id="text146-4-1-7-1-7"
       aria-label="OUT" />
    <path
       style="fill:#ffffff;stroke:#ffffff;stroke-width:0.3;stroke-linecap:round;stroke-dasharray:none;stroke-opacity:1"
       d="m 18.071493,108.0321 v -4.865"
       id="path147-5-7" />
    <path
       style="fill:none;stroke:#ffffff;stroke-width:0.3;stroke-linecap:round;stroke-dasharray:none;stroke-opacity:1"
       d="m 15.071493,108.0321 v -4.10813 l -3.553948,-2.05187"
       id="path148-9-1" />
    <path
       style="fill:#f9f9f9;stroke:#333333;stroke-width:0.325894;stroke-linecap:round;stroke-opacity:1"
       d="m 14.505254,118.48278 -8.6905081,8.69051 h 8.6905081 z"
       id="path4-6" />
    <path
       style="fill:#333333;stroke-width:0.144843;stroke-linecap:round"
       d="m 12.446975,123.41249 -3.8624576,3.86244 h 3.8624576 z"
       id="path4-2" />
    <path
       id="path3"
       style="fill:#f9f9f9;stroke:#333333;stroke-width:0.25939;stroke-linecap:round;stroke-opacity:1"
       d="m 5.8147554,118.46691 v 2.91271 1.44047 4.3532 H 11.608429 L 9.5277023,125.0926 a 4.3531952,4.3531952 0 0 0 0,-3e-5 4.3531952,4.3531952 0 0 0 0.057013,-0.0959 4.3531952,4.3531952 0 0 0 0,-4.35319 4.3531952,4.3531952 0 0 0 -3.7699589,-2.1766 z" />
  </g>
</svg>
