<svg xmlns="http://www.w3.org/2000/svg" xmlns:inkscape="http://www.inkscape.org/namespaces/inkscape" xmlns:sodipodi="http://sodipodi.sourceforge.net/DTD/sodipodi-0.dtd" viewBox="0 0 71.12 128.5" width="71.12mm" height="128.5mm">
  <g inkscape:groupmode="layer" id="layer-background" inkscape:label="Background">
    <rect x="0.3" y="0.3" width="70.52" height="127.9" fill="none" stroke="#333" stroke-width="1.5"/>
    <rect x="0" y="0.000" width="71.12" height="1.295" fill="#303031"/>
    <rect x="0" y="1.285" width="71.12" height="1.295" fill="#303031"/>
    <rect x="0" y="2.570" width="71.12" height="1.295" fill="#2f2f30"/>
    <rect x="0" y="3.855" width="71.12" height="1.295" fill="#2f2f30"/>
    <rect x="0" y="5.140" width="71.12" height="1.295" fill="#2e2e2f"/>
    <rect x="0" y="6.425" width="71.12" height="1.295" fill="#2e2e2f"/>
    <rect x="0" y="7.710" width="71.12" height="1.295" fill="#2e2e2f"/>
    <rect x="0" y="8.995" width="71.12" height="1.295" fill="#2d2d2e"/>
    <rect x="0" y="10.280" width="71.12" height="1.295" fill="#2d2d2e"/>
    <rect x="0" y="11.565" width="71.12" height="1.295" fill="#2c2c2d"/>
    <rect x="0" y="12.850" width="71.12" height="1.295" fill="#2c2c2d"/>
    <rect x="0" y="14.135" width="71.12" height="1.295" fill="#2c2c2d"/>
    <rect x="0" y="15.420" width="71.12" height="1.295" fill="#2b2b2c"/>
    <rect x="0" y="16.705" width="71.12" height="1.295" fill="#2b2b2c"/>
    <rect x="0" y="17.990" width="71.12" height="1.295" fill="#2a2a2b"/>
    <rect x="0" y="19.275" width="71.12" height="1.295" fill="#2a2a2b"/>
    <rect x="0" y="20.560" width="71.12" height="1.295" fill="#2a2a2b"/>
    <rect x="0" y="21.845" width="71.12" height="1.295" fill="#29292a"/>
    <rect x="0" y="23.130" width="71.12" height="1.295" fill="#29292a"/>
    <rect x="0" y="24.415" width="71.12" height="1.295" fill="#29292a"/>
    <rect x="0" y="25.700" width="71.12" height="1.295" fill="#282829"/>
    <rect x="0" y="26.985" width="71.12" height="1.295" fill="#282829"/>
    <rect x="0" y="28.270" width="71.12" height="1.295" fill="#272728"/>
    <rect x="0" y="29.555" width="71.12" height="1.295" fill="#272728"/>
    <rect x="0" y="30.840" width="71.12" height="1.295" fill="#272728"/>
    <rect x="0" y="32.125" width="71.12" height="1.295" fill="#262627"/>
    <rect x="0" y="33.410" width="71.12" height="1.295" fill="#262627"/>
    <rect x="0" y="34.695" width="71.12" height="1.295" fill="#252526"/>
    <rect x="0" y="35.980" width="71.12" height="1.295" fill="#252526"/>
    <rect x="0" y="37.265" width="71.12" height="1.295" fill="#252526"/>
    <rect x="0" y="38.550" width="71.12" height="1.295" fill="#242425"/>
    <rect x="0" y="39.835" width="71.12" height="1.295" fill="#242425"/>
    <rect x="0" y="41.120" width="71.12" height="1.295" fill="#232324"/>
    <rect x="0" y="42.405" width="71.12" height="1.295" fill="#232324"/>
    <rect x="0" y="43.690" width="71.12" height="1.295" fill="#232324"/>
    <rect x="0" y="44.975" width="71.12" height="1.295" fill="#232324"/>
    <rect x="0" y="46.260" width="71.12" height="1.295" fill="#232324"/>
    <rect x="0" y="47.545" width="71.12" height="1.295" fill="#232324"/>
    <rect x="0" y="48.830" width="71.12" height="1.295" fill="#232324"/>
    <rect x="0" y="50.115" width="71.12" height="1.295" fill="#232324"/>
    <rect x="0" y="51.400" width="71.12" height="1.295" fill="#232324"/>
    <rect x="0" y="52.685" width="71.12" height="1.295" fill="#232324"/>
    <rect x="0" y="53.970" width="71.12" height="1.295" fill="#232324"/>
    <rect x="0" y="55.255" width="71.12" height="1.295" fill="#232324"/>
    <rect x="0" y="56.540" width="71.12" height="1.295" fill="#232324"/>
    <rect x="0" y="57.825" width="71.12" height="1.295" fill="#232324"/>
    <rect x="0" y="59.110" width="71.12" height="1.295" fill="#232324"/>
    <rect x="0" y="60.395" width="71.12" height="1.295" fill="#232324"/>
    <rect x="0" y="61.680" width="71.12" height="1.295" fill="#232324"/>
    <rect x="0" y="62.965" width="71.12" height="1.295" fill="#232324"/>
    <rect x="0" y="64.250" width="71.12" height="1.295" fill="#232324"/>
    <rect x="0" y="65.535" width="71.12" height="1.295" fill="#232324"/>
    <rect x="0" y="66.820" width="71.12" height="1.295" fill="#232324"/>
    <rect x="0" y="68.105" width="71.12" height="1.295" fill="#232324"/>
    <rect x="0" y="69.390" width="71.12" height="1.295" fill="#232324"/>
    <rect x="0" y="70.675" width="71.12" height="1.295" fill="#232324"/>
    <rect x="0" y="71.960" width="71.12" height="1.295" fill="#232324"/>
    <rect x="0" y="73.245" width="71.12" height="1.295" fill="#232324"/>
    <rect x="0" y="74.530" width="71.12" height="1.295" fill="#232324"/>
    <rect x="0" y="75.815" width="71.12" height="1.295" fill="#232324"/>
    <rect x="0" y="77.100" width="71.12" height="1.295" fill="#232324"/>
    <rect x="0" y="78.385" width="71.12" height="1.295" fill="#232324"/>
    <rect x="0" y="79.670" width="71.12" height="1.295" fill="#232324"/>
    <rect x="0" y="80.955" width="71.12" height="1.295" fill="#232324"/>
    <rect x="0" y="82.240" width="71.12" height="1.295" fill="#232324"/>
    <rect x="0" y="83.525" width="71.12" height="1.295" fill="#232324"/>
    <rect x="0" y="84.810" width="71.12" height="1.295" fill="#232324"/>
    <rect x="0" y="86.095" width="71.12" height="1.295" fill="#232324"/>
    <rect x="0" y="87.380" width="71.12" height="1.295" fill="#232324"/>
    <rect x="0" y="88.665" width="71.12" height="1.295" fill="#232324"/>
    <rect x="0" y="89.950" width="71.12" height="1.295" fill="#232324"/>
    <rect x="0" y="91.235" width="71.12" height="1.295" fill="#232324"/>
    <rect x="0" y="92.520" width="71.12" height="1.295" fill="#232324"/>
    <rect x="0" y="93.805" width="71.12" height="1.295" fill="#232324"/>
    <rect x="0" y="95.090" width="71.12" height="1.295" fill="#232324"/>
    <rect x="0" y="96.375" width="71.12" height="1.295" fill="#232324"/>
    <rect x="0" y="97.660" width="71.12" height="1.295" fill="#232324"/>
    <rect x="0" y="98.945" width="71.12" height="1.295" fill="#232324"/>
    <rect x="0" y="100.230" width="71.12" height="1.295" fill="#232324"/>
    <rect x="0" y="101.515" width="71.12" height="1.295" fill="#232324"/>
    <rect x="0" y="102.800" width="71.12" height="1.295" fill="#232324"/>
    <rect x="0" y="104.085" width="71.12" height="1.295" fill="#232324"/>
    <rect x="0" y="105.370" width="71.12" height="1.295" fill="#232324"/>
    <rect x="0" y="106.655" width="71.12" height="1.295" fill="#232324"/>
    <rect x="0" y="107.940" width="71.12" height="1.295" fill="#232324"/>
    <rect x="0" y="109.225" width="71.12" height="1.295" fill="#232324"/>
    <rect x="0" y="110.510" width="71.12" height="1.295" fill="#232324"/>
    <rect x="0" y="111.795" width="71.12" height="1.295" fill="#232324"/>
    <rect x="0" y="113.080" width="71.12" height="1.295" fill="#232324"/>
    <rect x="0" y="114.365" width="71.12" height="1.295" fill="#232324"/>
    <rect x="0" y="115.650" width="71.12" height="1.295" fill="#232324"/>
    <rect x="0" y="116.935" width="71.12" height="1.295" fill="#232324"/>
    <rect x="0" y="118.220" width="71.12" height="1.295" fill="#232324"/>
    <rect x="0" y="119.505" width="71.12" height="1.295" fill="#232324"/>
    <rect x="0" y="120.790" width="71.12" height="1.295" fill="#232324"/>
    <rect x="0" y="122.075" width="71.12" height="1.295" fill="#232324"/>
    <rect x="0" y="123.360" width="71.12" height="1.295" fill="#232324"/>
    <rect x="0" y="124.645" width="71.12" height="1.295" fill="#232324"/>
    <rect x="0" y="125.930" width="71.12" height="1.295" fill="#232324"/>
    <rect x="0" y="127.215" width="71.12" height="1.295" fill="#232324"/>
  </g>
  <g inkscape:groupmode="layer" id="layer-outlines" inkscape:label="Component Outlines">
    <circle cx="2.54" cy="2.54" r="2.54" fill="#2a2a2a" stroke="#444" stroke-width="1.5"/>
    <circle cx="2.54" cy="2.54" r="0.8" fill="#444"/>
    <circle cx="2.54" cy="125.96" r="2.54" fill="#2a2a2a" stroke="#444" stroke-width="1.5"/>
    <circle cx="2.54" cy="125.96" r="0.8" fill="#444"/>
    <circle cx="68.58" cy="2.54" r="2.54" fill="#2a2a2a" stroke="#444" stroke-width="1.5"/>
    <circle cx="68.58" cy="2.54" r="0.8" fill="#444"/>
    <circle cx="68.58" cy="125.96" r="2.54" fill="#2a2a2a" stroke="#444" stroke-width="1.5"/>
    <circle cx="68.58" cy="125.96" r="0.8" fill="#444"/>
    <rect x="12.70" y="11.85" width="5.08" height="13.55" rx="1.5" fill="#1a1a1a" stroke="#888" stroke-width="1.5" opacity="0.5"/>
    <rect x="22.86" y="11.85" width="5.08" height="13.55" rx="1.5" fill="#1a1a1a" stroke="#888" stroke-width="1.5" opacity="0.5"/>
    <rect x="33.02" y="11.85" width="5.08" height="13.55" rx="1.5" fill="#1a1a1a" stroke="#888" stroke-width="1.5" opacity="0.5"/>
    <rect x="43.18" y="11.85" width="5.08" height="13.55" rx="1.5" fill="#1a1a1a" stroke="#888" stroke-width="1.5" opacity="0.5"/>
    <rect x="53.34" y="11.85" width="5.08" height="13.55" rx="1.5" fill="#1a1a1a" stroke="#888" stroke-width="1.5" opacity="0.5"/>
    <circle cx="15.24" cy="35.56" r="4.01" fill="#111" stroke="#996dd2" stroke-width="1.6" opacity="0.7"/>
    <circle cx="15.24" cy="35.56" r="1.40" fill="#996dd2" opacity="0.5"/>
    <circle cx="25.40" cy="35.56" r="4.01" fill="#111" stroke="#996dd2" stroke-width="1.6" opacity="0.7"/>
    <circle cx="25.40" cy="35.56" r="1.40" fill="#996dd2" opacity="0.5"/>
    <circle cx="35.56" cy="35.56" r="4.01" fill="#111" stroke="#996dd2" stroke-width="1.6" opacity="0.7"/>
    <circle cx="35.56" cy="35.56" r="1.40" fill="#996dd2" opacity="0.5"/>
    <circle cx="45.72" cy="35.56" r="4.01" fill="#111" stroke="#996dd2" stroke-width="1.6" opacity="0.7"/>
    <circle cx="45.72" cy="35.56" r="1.40" fill="#996dd2" opacity="0.5"/>
    <circle cx="55.88" cy="35.56" r="4.01" fill="#111" stroke="#996dd2" stroke-width="1.6" opacity="0.7"/>
    <circle cx="55.88" cy="35.56" r="1.40" fill="#996dd2" opacity="0.5"/>
    <circle cx="15.24" cy="52.49" r="3.84" fill="#222" stroke="#888" stroke-width="1.5" opacity="0.6"/>
    <circle cx="15.24" cy="52.49" r="1.34" fill="#333" opacity="0.4"/>
    <line x1="15.24" y1="52.49" x2="17.74" y2="52.49" stroke="#666" stroke-width="0.5" opacity="0.6"/>
    <circle cx="25.40" cy="52.49" r="3.84" fill="#222" stroke="#888" stroke-width="1.5" opacity="0.6"/>
    <circle cx="25.40" cy="52.49" r="1.34" fill="#333" opacity="0.4"/>
    <line x1="25.40" y1="52.49" x2="27.90" y2="52.49" stroke="#666" stroke-width="0.5" opacity="0.6"/>
    <circle cx="35.56" cy="52.49" r="3.84" fill="#222" stroke="#888" stroke-width="1.5" opacity="0.6"/>
    <circle cx="35.56" cy="52.49" r="1.34" fill="#333" opacity="0.4"/>
    <line x1="35.56" y1="52.49" x2="38.06" y2="52.49" stroke="#666" stroke-width="0.5" opacity="0.6"/>
    <circle cx="45.72" cy="52.49" r="3.84" fill="#222" stroke="#888" stroke-width="1.5" opacity="0.6"/>
    <circle cx="45.72" cy="52.49" r="1.34" fill="#333" opacity="0.4"/>
    <line x1="45.72" y1="52.49" x2="48.22" y2="52.49" stroke="#666" stroke-width="0.5" opacity="0.6"/>
    <circle cx="55.88" cy="52.49" r="3.84" fill="#222" stroke="#888" stroke-width="1.5" opacity="0.6"/>
    <circle cx="55.88" cy="52.49" r="1.34" fill="#333" opacity="0.4"/>
    <line x1="55.88" y1="52.49" x2="58.38" y2="52.49" stroke="#666" stroke-width="0.5" opacity="0.6"/>
    <circle cx="15.24" cy="69.43" r="4.01" fill="#111" stroke="#996dd2" stroke-width="1.6" opacity="0.7"/>
    <circle cx="15.24" cy="69.43" r="1.40" fill="#996dd2" opacity="0.5"/>
    <circle cx="25.40" cy="69.43" r="4.01" fill="#111" stroke="#996dd2" stroke-width="1.6" opacity="0.7"/>
    <circle cx="25.40" cy="69.43" r="1.40" fill="#996dd2" opacity="0.5"/>
    <circle cx="35.56" cy="69.43" r="4.01" fill="#111" stroke="#996dd2" stroke-width="1.6" opacity="0.7"/>
    <circle cx="35.56" cy="69.43" r="1.40" fill="#996dd2" opacity="0.5"/>
    <circle cx="45.72" cy="69.43" r="4.01" fill="#111" stroke="#996dd2" stroke-width="1.6" opacity="0.7"/>
    <circle cx="45.72" cy="69.43" r="1.40" fill="#996dd2" opacity="0.5"/>
    <circle cx="55.88" cy="69.43" r="4.01" fill="#111" stroke="#996dd2" stroke-width="1.6" opacity="0.7"/>
    <circle cx="55.88" cy="69.43" r="1.40" fill="#996dd2" opacity="0.5"/>
    <circle cx="15.24" cy="86.36" r="4.01" fill="#111" stroke="#996dd2" stroke-width="1.6" opacity="0.7"/>
    <circle cx="15.24" cy="86.36" r="1.40" fill="#996dd2" opacity="0.5"/>
    <circle cx="25.40" cy="86.36" r="4.01" fill="#111" stroke="#996dd2" stroke-width="1.6" opacity="0.7"/>
    <circle cx="25.40" cy="86.36" r="1.40" fill="#996dd2" opacity="0.5"/>
    <circle cx="35.56" cy="86.36" r="4.01" fill="#111" stroke="#996dd2" stroke-width="1.6" opacity="0.7"/>
    <circle cx="35.56" cy="86.36" r="1.40" fill="#996dd2" opacity="0.5"/>
    <circle cx="45.72" cy="86.36" r="4.01" fill="#111" stroke="#996dd2" stroke-width="1.6" opacity="0.7"/>
    <circle cx="45.72" cy="86.36" r="1.40" fill="#996dd2" opacity="0.5"/>
    <circle cx="15.24" cy="125.65" r="1.02" fill="#1a1a1a" stroke="#888" stroke-width="1.60" opacity="0.6"/>
    <circle cx="15.24" cy="125.65" r="0.36" fill="#333" opacity="0.5"/>
    <circle cx="25.40" cy="125.65" r="1.02" fill="#1a1a1a" stroke="#888" stroke-width="1.60" opacity="0.6"/>
    <circle cx="25.40" cy="125.65" r="0.36" fill="#333" opacity="0.5"/>
    <circle cx="35.56" cy="125.65" r="1.02" fill="#1a1a1a" stroke="#888" stroke-width="1.60" opacity="0.6"/>
    <circle cx="35.56" cy="125.65" r="0.36" fill="#333" opacity="0.5"/>
    <circle cx="45.72" cy="125.65" r="1.02" fill="#1a1a1a" stroke="#888" stroke-width="1.60" opacity="0.6"/>
    <circle cx="45.72" cy="125.65" r="0.36" fill="#333" opacity="0.5"/>
    <circle cx="15.24" cy="122.26" r="1.02" fill="#1a1a1a" stroke="#888" stroke-width="1.60" opacity="0.6"/>
    <circle cx="15.24" cy="122.26" r="0.36" fill="#333" opacity="0.5"/>
    <circle cx="25.40" cy="122.26" r="1.02" fill="#1a1a1a" stroke="#888" stroke-width="1.60" opacity="0.6"/>
    <circle cx="25.40" cy="122.26" r="0.36" fill="#333" opacity="0.5"/>
    <circle cx="35.56" cy="122.26" r="1.02" fill="#1a1a1a" stroke="#888" stroke-width="1.60" opacity="0.6"/>
    <circle cx="35.56" cy="122.26" r="0.36" fill="#333" opacity="0.5"/>
    <circle cx="45.72" cy="122.26" r="1.02" fill="#1a1a1a" stroke="#888" stroke-width="1.60" opacity="0.6"/>
    <circle cx="45.72" cy="122.26" r="0.36" fill="#333" opacity="0.5"/>
    <circle cx="15.24" cy="118.87" r="1.02" fill="#1a1a1a" stroke="#888" stroke-width="1.60" opacity="0.6"/>
    <circle cx="15.24" cy="118.87" r="0.36" fill="#333" opacity="0.5"/>
    <circle cx="25.40" cy="118.87" r="1.02" fill="#1a1a1a" stroke="#888" stroke-width="1.60" opacity="0.6"/>
    <circle cx="25.40" cy="118.87" r="0.36" fill="#333" opacity="0.5"/>
    <circle cx="35.56" cy="118.87" r="1.02" fill="#1a1a1a" stroke="#888" stroke-width="1.60" opacity="0.6"/>
    <circle cx="35.56" cy="118.87" r="0.36" fill="#333" opacity="0.5"/>
    <circle cx="45.72" cy="118.87" r="1.02" fill="#1a1a1a" stroke="#888" stroke-width="1.60" opacity="0.6"/>
    <circle cx="45.72" cy="118.87" r="0.36" fill="#333" opacity="0.5"/>
    <circle cx="15.24" cy="115.49" r="1.02" fill="#1a1a1a" stroke="#888" stroke-width="1.60" opacity="0.6"/>
    <circle cx="15.24" cy="115.49" r="0.36" fill="#333" opacity="0.5"/>
    <circle cx="25.40" cy="115.49" r="1.02" fill="#1a1a1a" stroke="#888" stroke-width="1.60" opacity="0.6"/>
    <circle cx="25.40" cy="115.49" r="0.36" fill="#333" opacity="0.5"/>
    <circle cx="35.56" cy="115.49" r="1.02" fill="#1a1a1a" stroke="#888" stroke-width="1.60" opacity="0.6"/>
    <circle cx="35.56" cy="115.49" r="0.36" fill="#333" opacity="0.5"/>
    <circle cx="45.72" cy="115.49" r="1.02" fill="#1a1a1a" stroke="#888" stroke-width="1.60" opacity="0.6"/>
    <circle cx="45.72" cy="115.49" r="0.36" fill="#333" opacity="0.5"/>
    <circle cx="15.24" cy="112.10" r="1.02" fill="#1a1a1a" stroke="#888" stroke-width="1.60" opacity="0.6"/>
    <circle cx="15.24" cy="112.10" r="0.36" fill="#333" opacity="0.5"/>
    <circle cx="25.40" cy="112.10" r="1.02" fill="#1a1a1a" stroke="#888" stroke-width="1.60" opacity="0.6"/>
    <circle cx="25.40" cy="112.10" r="0.36" fill="#333" opacity="0.5"/>
    <circle cx="35.56" cy="112.10" r="1.02" fill="#1a1a1a" stroke="#888" stroke-width="1.60" opacity="0.6"/>
    <circle cx="35.56" cy="112.10" r="0.36" fill="#333" opacity="0.5"/>
    <circle cx="45.72" cy="112.10" r="1.02" fill="#1a1a1a" stroke="#888" stroke-width="1.60" opacity="0.6"/>
    <circle cx="45.72" cy="112.10" r="0.36" fill="#333" opacity="0.5"/>
    <circle cx="15.24" cy="108.71" r="1.02" fill="#1a1a1a" stroke="#888" stroke-width="1.60" opacity="0.6"/>
    <circle cx="15.24" cy="108.71" r="0.36" fill="#333" opacity="0.5"/>
    <circle cx="25.40" cy="108.71" r="1.02" fill="#1a1a1a" stroke="#888" stroke-width="1.60" opacity="0.6"/>
    <circle cx="25.40" cy="108.71" r="0.36" fill="#333" opacity="0.5"/>
    <circle cx="35.56" cy="108.71" r="1.02" fill="#1a1a1a" stroke="#888" stroke-width="1.60" opacity="0.6"/>
    <circle cx="35.56" cy="108.71" r="0.36" fill="#333" opacity="0.5"/>
    <circle cx="45.72" cy="108.71" r="1.02" fill="#1a1a1a" stroke="#888" stroke-width="1.60" opacity="0.6"/>
    <circle cx="45.72" cy="108.71" r="0.36" fill="#333" opacity="0.5"/>
    <circle cx="15.24" cy="105.33" r="1.02" fill="#1a1a1a" stroke="#888" stroke-width="1.60" opacity="0.6"/>
    <circle cx="15.24" cy="105.33" r="0.36" fill="#333" opacity="0.5"/>
    <circle cx="25.40" cy="105.33" r="1.02" fill="#1a1a1a" stroke="#888" stroke-width="1.60" opacity="0.6"/>
    <circle cx="25.40" cy="105.33" r="0.36" fill="#333" opacity="0.5"/>
    <circle cx="35.56" cy="105.33" r="1.02" fill="#1a1a1a" stroke="#888" stroke-width="1.60" opacity="0.6"/>
    <circle cx="35.56" cy="105.33" r="0.36" fill="#333" opacity="0.5"/>
    <circle cx="45.72" cy="105.33" r="1.02" fill="#1a1a1a" stroke="#888" stroke-width="1.60" opacity="0.6"/>
    <circle cx="45.72" cy="105.33" r="0.36" fill="#333" opacity="0.5"/>
    <circle cx="15.24" cy="101.94" r="1.02" fill="#1a1a1a" stroke="#888" stroke-width="1.60" opacity="0.6"/>
    <circle cx="15.24" cy="101.94" r="0.36" fill="#333" opacity="0.5"/>
    <circle cx="25.40" cy="101.94" r="1.02" fill="#1a1a1a" stroke="#888" stroke-width="1.60" opacity="0.6"/>
    <circle cx="25.40" cy="101.94" r="0.36" fill="#333" opacity="0.5"/>
    <circle cx="35.56" cy="101.94" r="1.02" fill="#1a1a1a" stroke="#888" stroke-width="1.60" opacity="0.6"/>
    <circle cx="35.56" cy="101.94" r="0.36" fill="#333" opacity="0.5"/>
    <circle cx="45.72" cy="101.94" r="1.02" fill="#1a1a1a" stroke="#888" stroke-width="1.60" opacity="0.6"/>
    <circle cx="45.72" cy="101.94" r="0.36" fill="#333" opacity="0.5"/>
    <circle cx="15.24" cy="98.55" r="1.02" fill="#1a1a1a" stroke="#888" stroke-width="1.60" opacity="0.6"/>
    <circle cx="15.24" cy="98.55" r="0.36" fill="#333" opacity="0.5"/>
    <circle cx="25.40" cy="98.55" r="1.02" fill="#1a1a1a" stroke="#888" stroke-width="1.60" opacity="0.6"/>
    <circle cx="25.40" cy="98.55" r="0.36" fill="#333" opacity="0.5"/>
    <circle cx="35.56" cy="98.55" r="1.02" fill="#1a1a1a" stroke="#888" stroke-width="1.60" opacity="0.6"/>
    <circle cx="35.56" cy="98.55" r="0.36" fill="#333" opacity="0.5"/>
    <circle cx="45.72" cy="98.55" r="1.02" fill="#1a1a1a" stroke="#888" stroke-width="1.60" opacity="0.6"/>
    <circle cx="45.72" cy="98.55" r="0.36" fill="#333" opacity="0.5"/>
    <circle cx="15.24" cy="95.17" r="1.02" fill="#1a1a1a" stroke="#888" stroke-width="1.60" opacity="0.6"/>
    <circle cx="15.24" cy="95.17" r="0.36" fill="#333" opacity="0.5"/>
    <circle cx="25.40" cy="95.17" r="1.02" fill="#1a1a1a" stroke="#888" stroke-width="1.60" opacity="0.6"/>
    <circle cx="25.40" cy="95.17" r="0.36" fill="#333" opacity="0.5"/>
    <circle cx="35.56" cy="95.17" r="1.02" fill="#1a1a1a" stroke="#888" stroke-width="1.60" opacity="0.6"/>
    <circle cx="35.56" cy="95.17" r="0.36" fill="#333" opacity="0.5"/>
    <circle cx="45.72" cy="95.17" r="1.02" fill="#1a1a1a" stroke="#888" stroke-width="1.60" opacity="0.6"/>
    <circle cx="45.72" cy="95.17" r="0.36" fill="#333" opacity="0.5"/>
    <circle cx="6.77" cy="77.22" r="1.02" fill="#1a1a1a" stroke="#888" stroke-width="1.60" opacity="0.6"/>
    <circle cx="6.77" cy="77.22" r="0.36" fill="#333" opacity="0.5"/>
    <circle cx="64.35" cy="77.22" r="1.02" fill="#1a1a1a" stroke="#888" stroke-width="1.60" opacity="0.6"/>
    <circle cx="64.35" cy="77.22" r="0.36" fill="#333" opacity="0.5"/>
    <circle cx="6.77" cy="73.15" r="1.02" fill="#1a1a1a" stroke="#888" stroke-width="1.60" opacity="0.6"/>
    <circle cx="6.77" cy="73.15" r="0.36" fill="#333" opacity="0.5"/>
    <circle cx="64.35" cy="73.15" r="1.02" fill="#1a1a1a" stroke="#888" stroke-width="1.60" opacity="0.6"/>
    <circle cx="64.35" cy="73.15" r="0.36" fill="#333" opacity="0.5"/>
    <circle cx="6.77" cy="69.09" r="1.02" fill="#1a1a1a" stroke="#888" stroke-width="1.60" opacity="0.6"/>
    <circle cx="6.77" cy="69.09" r="0.36" fill="#333" opacity="0.5"/>
    <circle cx="64.35" cy="69.09" r="1.02" fill="#1a1a1a" stroke="#888" stroke-width="1.60" opacity="0.6"/>
    <circle cx="64.35" cy="69.09" r="0.36" fill="#333" opacity="0.5"/>
    <circle cx="6.77" cy="65.02" r="1.02" fill="#1a1a1a" stroke="#888" stroke-width="1.60" opacity="0.6"/>
    <circle cx="6.77" cy="65.02" r="0.36" fill="#333" opacity="0.5"/>
    <circle cx="64.35" cy="65.02" r="1.02" fill="#1a1a1a" stroke="#888" stroke-width="1.60" opacity="0.6"/>
    <circle cx="64.35" cy="65.02" r="0.36" fill="#333" opacity="0.5"/>
    <circle cx="6.77" cy="60.96" r="1.02" fill="#1a1a1a" stroke="#888" stroke-width="1.60" opacity="0.6"/>
    <circle cx="6.77" cy="60.96" r="0.36" fill="#333" opacity="0.5"/>
    <circle cx="64.35" cy="60.96" r="1.02" fill="#1a1a1a" stroke="#888" stroke-width="1.60" opacity="0.6"/>
    <circle cx="64.35" cy="60.96" r="0.36" fill="#333" opacity="0.5"/>
    <circle cx="6.77" cy="56.90" r="1.02" fill="#1a1a1a" stroke="#888" stroke-width="1.60" opacity="0.6"/>
    <circle cx="6.77" cy="56.90" r="0.36" fill="#333" opacity="0.5"/>
    <circle cx="64.35" cy="56.90" r="1.02" fill="#1a1a1a" stroke="#888" stroke-width="1.60" opacity="0.6"/>
    <circle cx="64.35" cy="56.90" r="0.36" fill="#333" opacity="0.5"/>
    <circle cx="6.77" cy="52.83" r="1.02" fill="#1a1a1a" stroke="#888" stroke-width="1.60" opacity="0.6"/>
    <circle cx="6.77" cy="52.83" r="0.36" fill="#333" opacity="0.5"/>
    <circle cx="64.35" cy="52.83" r="1.02" fill="#1a1a1a" stroke="#888" stroke-width="1.60" opacity="0.6"/>
    <circle cx="64.35" cy="52.83" r="0.36" fill="#333" opacity="0.5"/>
    <circle cx="6.77" cy="48.77" r="1.02" fill="#1a1a1a" stroke="#888" stroke-width="1.60" opacity="0.6"/>
    <circle cx="6.77" cy="48.77" r="0.36" fill="#333" opacity="0.5"/>
    <circle cx="64.35" cy="48.77" r="1.02" fill="#1a1a1a" stroke="#888" stroke-width="1.60" opacity="0.6"/>
    <circle cx="64.35" cy="48.77" r="0.36" fill="#333" opacity="0.5"/>
    <circle cx="6.77" cy="44.70" r="1.02" fill="#1a1a1a" stroke="#888" stroke-width="1.60" opacity="0.6"/>
    <circle cx="6.77" cy="44.70" r="0.36" fill="#333" opacity="0.5"/>
    <circle cx="64.35" cy="44.70" r="1.02" fill="#1a1a1a" stroke="#888" stroke-width="1.60" opacity="0.6"/>
    <circle cx="64.35" cy="44.70" r="0.36" fill="#333" opacity="0.5"/>
    <circle cx="6.77" cy="40.64" r="1.02" fill="#1a1a1a" stroke="#888" stroke-width="1.60" opacity="0.6"/>
    <circle cx="6.77" cy="40.64" r="0.36" fill="#333" opacity="0.5"/>
    <circle cx="64.35" cy="40.64" r="1.02" fill="#1a1a1a" stroke="#888" stroke-width="1.60" opacity="0.6"/>
    <circle cx="64.35" cy="40.64" r="0.36" fill="#333" opacity="0.5"/>
    <rect x="51.07" y="81.55" width="9.63" height="9.63" rx="1.5" fill="#c8b7c7" opacity="0.7"/>
    <circle cx="55.88" cy="86.36" r="2.61" fill="#111" opacity="0.5"/>
    <rect x="51.07" y="96.79" width="9.63" height="9.63" rx="1.5" fill="#c8b7c7" opacity="0.7"/>
    <circle cx="55.88" cy="101.60" r="2.61" fill="#111" opacity="0.5"/>
  </g>
  <g inkscape:groupmode="layer" id="layer-text" inkscape:label="Text">
    <path d="M33.80 3.39L33.51 3.39L33.51 2.46Q33.51 2.27 33.44 2.15Q33.37 2.03 33.27 1.96Q33.16 1.89 33.03 1.86Q32.90 1.83 32.78 1.83L32.78 3.39L32.48 3.39L32.48 1.57L32.73 1.57Q32.93 1.57 33.14 1.61Q33.34 1.66 33.51 1.79L33.51 1.57L33.76 1.57Q33.90 1.57 34.05 1.59Q34.20 1.61 34.34 1.67Q34.48 1.72 34.59 1.82Q34.70 1.92 34.76 2.07Q34.83 2.22 34.83 2.44L34.83 3.39L34.53 3.39L34.53 2.44Q34.53 2.25 34.46 2.13Q34.39 2.01 34.28 1.94Q34.18 1.88 34.05 1.86Q33.92 1.83 33.80 1.83L33.80 3.39M35.44 3.39L35.14 3.39L35.14 1.57L35.44 1.57L35.44 3.39M36.05 3.39L35.75 3.39Q35.75 3.15 35.83 2.97Q35.91 2.78 36.03 2.65Q36.16 2.51 36.31 2.44L35.76 1.57L36.12 1.57L36.58 2.29Q36.69 2.24 36.78 2.14Q36.87 2.03 36.92 1.89Q36.97 1.74 36.97 1.57L37.27 1.57Q37.27 1.80 37.20 1.99Q37.13 2.19 37.01 2.33Q36.90 2.48 36.74 2.55L37.27 3.39L36.92 3.39L36.48 2.69Q36.36 2.74 36.27 2.84Q36.17 2.94 36.11 3.08Q36.05 3.21 36.05 3.39M38.72 3.39L38.41 3.39L38.41 2.86L37.49 2.86L37.49 2.52Q37.49 2.27 37.58 2.09Q37.66 1.91 37.80 1.80Q37.94 1.68 38.11 1.62Q38.28 1.57 38.45 1.57L38.72 1.57L38.72 3.39M37.80 2.53L37.80 2.58L38.41 2.58L38.41 1.85Q38.23 1.87 38.09 1.94Q37.95 2.01 37.87 2.15Q37.80 2.29 37.80 2.53" fill="#ffffff" stroke="#ffffff" stroke-width="0.14300000000000002" stroke-linejoin="round"/>
    <path d="M13.58 27.40L13.37 27.40Q13.25 27.40 13.12 27.37Q13 27.34 12.90 27.26Q12.80 27.19 12.74 27.06Q12.68 26.94 12.68 26.76L12.68 26.07L13.57 26.07L13.57 26.28L12.90 26.28L12.90 26.76Q12.90 26.89 12.94 26.97Q12.98 27.05 13.05 27.10Q13.12 27.15 13.20 27.17Q13.28 27.19 13.37 27.20L13.37 26.84L13.58 26.84L13.58 27.40M14.05 27.40L13.83 27.40L13.83 26.07L14.05 26.07Q14.15 26.07 14.26 26.09Q14.37 26.10 14.46 26.15Q14.56 26.19 14.64 26.26Q14.72 26.33 14.77 26.44Q14.81 26.55 14.81 26.71L14.81 27.40L14.59 27.40L14.59 26.96L14.05 26.96L14.05 27.40M14.05 26.26L14.05 26.75L14.59 26.75L14.59 26.71Q14.59 26.57 14.54 26.48Q14.49 26.39 14.41 26.34Q14.33 26.30 14.23 26.28Q14.14 26.26 14.05 26.26M15.26 27.40L15.04 27.40L15.04 26.07L15.26 26.07L15.26 27.40M15.75 27.40L15.53 27.40L15.53 26.07L15.73 26.07Q15.84 26.07 15.95 26.09Q16.06 26.10 16.16 26.14Q16.26 26.18 16.34 26.26Q16.42 26.33 16.47 26.44Q16.52 26.55 16.52 26.71L16.52 27.40L16.30 27.40L16.30 26.71Q16.30 26.57 16.25 26.48Q16.20 26.39 16.11 26.34Q16.03 26.30 15.94 26.28Q15.84 26.26 15.75 26.26L15.75 27.40M17.76 27.40L17.54 27.40L17.54 26.59Q17.54 26.48 17.52 26.41Q17.50 26.35 17.47 26.32Q17.44 26.29 17.41 26.28Q17.38 26.27 17.35 26.27L17.35 26.06Q17.41 26.06 17.49 26.08Q17.56 26.11 17.62 26.17Q17.68 26.23 17.72 26.33Q17.76 26.43 17.76 26.59" fill="#ffffff" stroke="#ffffff" stroke-width="0.1045" stroke-linejoin="round"/>
    <path d="M23.53 27.40L23.32 27.40Q23.20 27.40 23.08 27.37Q22.96 27.34 22.85 27.26Q22.75 27.19 22.69 27.06Q22.63 26.94 22.63 26.76L22.63 26.07L23.53 26.07L23.53 26.28L22.85 26.28L22.85 26.76Q22.85 26.89 22.89 26.97Q22.93 27.05 23 27.10Q23.07 27.15 23.15 27.17Q23.23 27.19 23.32 27.20L23.32 26.84L23.53 26.84L23.53 27.40M24 27.40L23.78 27.40L23.78 26.07L24 26.07Q24.10 26.07 24.21 26.09Q24.32 26.10 24.42 26.15Q24.52 26.19 24.60 26.26Q24.68 26.33 24.72 26.44Q24.77 26.55 24.77 26.71L24.77 27.40L24.55 27.40L24.55 26.96L24 26.96L24 27.40M24 26.26L24 26.75L24.55 26.75L24.55 26.71Q24.55 26.57 24.50 26.48Q24.45 26.39 24.36 26.34Q24.28 26.30 24.19 26.28Q24.09 26.26 24 26.26M25.21 27.40L24.99 27.40L24.99 26.07L25.21 26.07L25.21 27.40M25.70 27.40L25.48 27.40L25.48 26.07L25.69 26.07Q25.79 26.07 25.90 26.09Q26.01 26.10 26.11 26.14Q26.21 26.18 26.29 26.26Q26.37 26.33 26.42 26.44Q26.47 26.55 26.47 26.71L26.47 27.40L26.25 27.40L26.25 26.71Q26.25 26.57 26.20 26.48Q26.15 26.39 26.07 26.34Q25.99 26.30 25.89 26.28Q25.79 26.26 25.70 26.26L25.70 27.40M28.15 27.40L27.27 27.40L27.27 27.21Q27.27 27.05 27.33 26.93Q27.40 26.82 27.54 26.72Q27.67 26.62 27.89 26.51Q27.88 26.41 27.81 26.36Q27.74 26.31 27.64 26.30Q27.53 26.28 27.41 26.28L27.28 26.28L27.28 26.07L27.41 26.07Q27.49 26.07 27.59 26.08Q27.68 26.09 27.78 26.13Q27.87 26.16 27.95 26.22Q28.03 26.28 28.07 26.38Q28.12 26.47 28.12 26.61L27.95 26.70Q27.81 26.77 27.71 26.84Q27.61 26.91 27.55 26.99Q27.50 27.08 27.49 27.19L28.15 27.19" fill="#ffffff" stroke="#ffffff" stroke-width="0.1045" stroke-linejoin="round"/>
    <path d="M33.75 27.40L33.54 27.40Q33.42 27.40 33.30 27.37Q33.18 27.34 33.07 27.26Q32.97 27.19 32.91 27.06Q32.85 26.94 32.85 26.76L32.85 26.07L33.75 26.07L33.75 26.28L33.07 26.28L33.07 26.76Q33.07 26.89 33.11 26.97Q33.15 27.05 33.22 27.10Q33.29 27.15 33.37 27.17Q33.45 27.19 33.54 27.20L33.54 26.84L33.75 26.84L33.75 27.40M34.22 27.40L34 27.40L34 26.07L34.22 26.07Q34.32 26.07 34.43 26.09Q34.54 26.10 34.64 26.15Q34.74 26.19 34.82 26.26Q34.89 26.33 34.94 26.44Q34.99 26.55 34.99 26.71L34.99 27.40L34.77 27.40L34.77 26.96L34.22 26.96L34.22 27.40M34.22 26.26L34.22 26.75L34.77 26.75L34.77 26.71Q34.77 26.57 34.72 26.48Q34.67 26.39 34.58 26.34Q34.50 26.30 34.41 26.28Q34.31 26.26 34.22 26.26M35.43 27.40L35.21 27.40L35.21 26.07L35.43 26.07L35.43 27.40M35.92 27.40L35.70 27.40L35.70 26.07L35.91 26.07Q36.01 26.07 36.12 26.09Q36.23 26.10 36.33 26.14Q36.43 26.18 36.51 26.26Q36.59 26.33 36.64 26.44Q36.69 26.55 36.69 26.71L36.69 27.40L36.47 27.40L36.47 26.71Q36.47 26.57 36.42 26.48Q36.37 26.39 36.29 26.34Q36.21 26.30 36.11 26.28Q36.01 26.26 35.92 26.26L35.92 27.40M37.79 27.41L37.47 27.41L37.47 27.20L37.82 27.20Q37.95 27.20 38.02 27.15Q38.09 27.09 38.09 26.99Q38.09 26.88 38.01 26.81Q37.93 26.74 37.77 26.74L37.61 26.74L37.61 26.55Q37.86 26.55 37.96 26.48Q38.06 26.41 38.06 26.26L37.47 26.26L37.47 26.07L38.28 26.07Q38.28 26.29 38.23 26.42Q38.17 26.55 38.09 26.62Q38.18 26.67 38.23 26.76Q38.28 26.85 38.28 26.98Q38.28 27.13 38.22 27.22Q38.15 27.32 38.04 27.36Q37.93 27.41 37.79 27.41" fill="#ffffff" stroke="#ffffff" stroke-width="0.1045" stroke-linejoin="round"/>
    <path d="M43.86 27.40L43.65 27.40Q43.53 27.40 43.41 27.37Q43.29 27.34 43.19 27.26Q43.08 27.19 43.02 27.06Q42.96 26.94 42.96 26.76L42.96 26.07L43.86 26.07L43.86 26.28L43.18 26.28L43.18 26.76Q43.18 26.89 43.22 26.97Q43.27 27.05 43.33 27.10Q43.40 27.15 43.48 27.17Q43.57 27.19 43.65 27.20L43.65 26.84L43.86 26.84L43.86 27.40M44.33 27.40L44.11 27.40L44.11 26.07L44.33 26.07Q44.44 26.07 44.54 26.09Q44.65 26.10 44.75 26.15Q44.85 26.19 44.93 26.26Q45.01 26.33 45.05 26.44Q45.10 26.55 45.10 26.71L45.10 27.40L44.88 27.40L44.88 26.96L44.33 26.96L44.33 27.40M44.33 26.26L44.33 26.75L44.88 26.75L44.88 26.71Q44.88 26.57 44.83 26.48Q44.78 26.39 44.70 26.34Q44.61 26.30 44.52 26.28Q44.42 26.26 44.33 26.26M45.55 27.40L45.33 27.40L45.33 26.07L45.55 26.07L45.55 27.40M46.03 27.40L45.81 27.40L45.81 26.07L46.02 26.07Q46.12 26.07 46.23 26.09Q46.34 26.10 46.44 26.14Q46.54 26.18 46.63 26.26Q46.71 26.33 46.75 26.44Q46.80 26.55 46.80 26.71L46.80 27.40L46.58 27.40L46.58 26.71Q46.58 26.57 46.53 26.48Q46.48 26.39 46.40 26.34Q46.32 26.30 46.22 26.28Q46.13 26.26 46.03 26.26L46.03 27.40M48.49 27.40L48.27 27.40L48.27 27.01L47.60 27.01L47.60 26.76Q47.60 26.58 47.66 26.45Q47.72 26.32 47.82 26.24Q47.92 26.15 48.05 26.11Q48.17 26.07 48.30 26.07L48.49 26.07L48.49 27.40M47.82 26.77L47.82 26.81L48.27 26.81L48.27 26.28Q48.13 26.29 48.03 26.34Q47.93 26.39 47.88 26.50Q47.82 26.60 47.82 26.77" fill="#ffffff" stroke="#ffffff" stroke-width="0.1045" stroke-linejoin="round"/>
    <path d="M53.27 27.40L53.06 27.40L53.06 26.72Q53.06 26.58 53.01 26.50Q52.96 26.41 52.88 26.36Q52.80 26.31 52.71 26.29Q52.61 26.27 52.52 26.26L52.52 27.40L52.30 27.40L52.30 26.07L52.49 26.07Q52.63 26.07 52.79 26.11Q52.94 26.14 53.06 26.23L53.06 26.07L53.24 26.07Q53.35 26.07 53.45 26.09Q53.56 26.10 53.66 26.14Q53.77 26.18 53.85 26.26Q53.93 26.33 53.97 26.44Q54.02 26.55 54.02 26.71L54.02 27.40L53.80 27.40L53.80 26.71Q53.80 26.57 53.75 26.48Q53.70 26.39 53.63 26.35Q53.55 26.30 53.45 26.28Q53.36 26.27 53.27 26.26L53.27 27.40M54.47 27.40L54.25 27.40L54.25 26.07L54.47 26.07Q54.57 26.07 54.68 26.09Q54.79 26.10 54.89 26.15Q54.99 26.19 55.07 26.26Q55.15 26.33 55.19 26.44Q55.24 26.55 55.24 26.71L55.24 27.40L55.02 27.40L55.02 26.96L54.47 26.96L54.47 27.40M54.47 26.26L54.47 26.75L55.02 26.75L55.02 26.71Q55.02 26.57 54.97 26.48Q54.92 26.39 54.84 26.34Q54.75 26.30 54.66 26.28Q54.56 26.26 54.47 26.26M55.75 27.40L55.42 27.40L55.42 27.19L55.78 27.19Q55.90 27.19 55.97 27.14Q56.03 27.10 56.03 26.98Q56.03 26.91 55.99 26.87Q55.96 26.84 55.91 26.82Q55.86 26.80 55.80 26.78Q55.74 26.76 55.67 26.72Q55.60 26.69 55.54 26.64Q55.48 26.58 55.45 26.49Q55.41 26.40 55.41 26.26L55.41 26.07L56.19 26.07L56.19 26.28L55.63 26.28Q55.63 26.37 55.65 26.42Q55.67 26.47 55.73 26.51Q55.79 26.55 55.90 26.59Q55.95 26.61 56.01 26.64Q56.07 26.66 56.12 26.70Q56.18 26.75 56.21 26.81Q56.25 26.88 56.25 26.98Q56.25 27.13 56.18 27.22Q56.11 27.31 56 27.36Q55.89 27.40 55.75 27.40M57.28 27.19L57.28 27.40Q57.16 27.39 57.04 27.36Q56.92 27.33 56.82 27.25Q56.72 27.18 56.66 27.06Q56.60 26.94 56.60 26.77L56.60 26.28L56.42 26.28L56.42 26.07L57.22 26.07L57.22 26.28L56.82 26.28L56.82 26.77Q56.82 26.89 56.86 26.97Q56.90 27.05 56.97 27.10Q57.03 27.14 57.11 27.17Q57.19 27.19 57.28 27.19M58.30 27.40L58.19 27.40Q58.09 27.40 57.98 27.38Q57.87 27.37 57.77 27.33Q57.67 27.29 57.59 27.21Q57.50 27.14 57.46 27.03Q57.41 26.92 57.41 26.76L57.41 26.07L58.31 26.07L58.31 26.27L57.63 26.27L57.63 26.53L58.17 26.53L58.17 26.73L57.63 26.73Q57.63 26.88 57.68 26.98Q57.72 27.07 57.80 27.12Q57.88 27.17 57.98 27.19Q58.08 27.21 58.19 27.21L58.30 27.21L58.30 27.40M58.78 27.40L58.56 27.40L58.56 26.07L59.47 26.07Q59.48 26.25 59.44 26.38Q59.40 26.51 59.33 26.60Q59.26 26.69 59.18 26.75L59.53 27.40L59.28 27.40L58.98 26.85Q58.91 26.88 58.86 26.88Q58.80 26.89 58.78 26.89L58.78 27.40M58.78 26.27L58.78 26.68Q58.88 26.68 58.96 26.64Q59.05 26.60 59.12 26.54Q59.18 26.47 59.22 26.40Q59.26 26.33 59.26 26.27" fill="#ffffff" stroke="#ffffff" stroke-width="0.1045" stroke-linejoin="round"/>
    <path d="M13.89 42.57L13.78 42.57Q13.68 42.57 13.57 42.56Q13.46 42.54 13.36 42.50Q13.26 42.46 13.18 42.39Q13.09 42.31 13.05 42.20Q13 42.09 13 41.94L13 41.24L13.90 41.24L13.90 41.45L13.22 41.45L13.22 41.93Q13.22 42.08 13.27 42.17Q13.32 42.25 13.41 42.30Q13.49 42.34 13.59 42.36Q13.69 42.37 13.78 42.37L13.89 42.37L13.89 42.57M14.35 42.57L14.25 42.57L14.06 41.24L14.28 41.24L14.45 42.36Q14.52 42.35 14.59 42.32Q14.66 42.29 14.72 42.24Q14.78 42.19 14.81 42.12Q14.84 42.04 14.84 41.93L14.84 41.24L15.06 41.24L15.06 41.94Q15.06 42.11 15 42.23Q14.94 42.35 14.83 42.43Q14.73 42.50 14.60 42.54Q14.48 42.57 14.35 42.57M16.80 42.57L16.59 42.57Q16.47 42.57 16.35 42.54Q16.23 42.51 16.13 42.43Q16.02 42.36 15.96 42.24Q15.90 42.12 15.90 41.94L15.90 41.24L16.80 41.24L16.80 41.45L16.12 41.45L16.12 41.93Q16.12 42.06 16.16 42.14Q16.20 42.23 16.27 42.27Q16.34 42.32 16.42 42.34Q16.51 42.36 16.59 42.37L16.59 42.02L16.80 42.02L16.80 42.57M17.44 42.57L17.22 42.57L17.22 41.76Q17.22 41.65 17.20 41.59Q17.18 41.52 17.15 41.49Q17.12 41.46 17.09 41.45Q17.06 41.44 17.03 41.44L17.03 41.23Q17.09 41.23 17.16 41.26Q17.24 41.28 17.30 41.34Q17.36 41.40 17.40 41.50Q17.44 41.61 17.44 41.76" fill="#ffffff" stroke="#ffffff" stroke-width="0.1045" stroke-linejoin="round"/>
    <path d="M23.85 42.57L23.73 42.57Q23.63 42.57 23.52 42.56Q23.41 42.54 23.31 42.50Q23.21 42.46 23.13 42.39Q23.05 42.31 23 42.20Q22.95 42.09 22.95 41.94L22.95 41.24L23.85 41.24L23.85 41.45L23.17 41.45L23.17 41.93Q23.17 42.08 23.22 42.17Q23.28 42.25 23.36 42.30Q23.44 42.34 23.54 42.36Q23.64 42.37 23.73 42.37L23.85 42.37L23.85 42.57M24.30 42.57L24.21 42.57L24.01 41.24L24.23 41.24L24.40 42.36Q24.47 42.35 24.54 42.32Q24.61 42.29 24.67 42.24Q24.73 42.19 24.76 42.12Q24.80 42.04 24.80 41.93L24.80 41.24L25.02 41.24L25.02 41.94Q25.02 42.11 24.95 42.23Q24.89 42.35 24.78 42.43Q24.68 42.50 24.55 42.54Q24.43 42.57 24.30 42.57M26.75 42.57L26.54 42.57Q26.42 42.57 26.30 42.54Q26.18 42.51 26.08 42.43Q25.98 42.36 25.92 42.24Q25.86 42.12 25.86 41.94L25.86 41.24L26.75 41.24L26.75 41.45L26.08 41.45L26.08 41.93Q26.08 42.06 26.12 42.14Q26.16 42.23 26.23 42.27Q26.29 42.32 26.38 42.34Q26.46 42.36 26.54 42.37L26.54 42.02L26.75 42.02L26.75 42.57M27.83 42.57L26.95 42.57L26.95 42.39Q26.95 42.23 27.01 42.11Q27.08 41.99 27.21 41.89Q27.35 41.79 27.57 41.68Q27.56 41.58 27.49 41.53Q27.42 41.48 27.32 41.47Q27.21 41.45 27.09 41.45L26.96 41.45L26.96 41.24L27.09 41.24Q27.17 41.24 27.27 41.25Q27.36 41.27 27.46 41.30Q27.55 41.33 27.63 41.39Q27.71 41.45 27.75 41.55Q27.80 41.65 27.80 41.79L27.62 41.88Q27.49 41.94 27.39 42.01Q27.29 42.08 27.23 42.17Q27.18 42.25 27.17 42.37L27.83 42.37" fill="#ffffff" stroke="#ffffff" stroke-width="0.1045" stroke-linejoin="round"/>
    <path d="M34.07 42.57L33.95 42.57Q33.85 42.57 33.74 42.56Q33.63 42.54 33.53 42.50Q33.43 42.46 33.35 42.39Q33.27 42.31 33.22 42.20Q33.17 42.09 33.17 41.94L33.17 41.24L34.07 41.24L34.07 41.45L33.39 41.45L33.39 41.93Q33.39 42.08 33.44 42.17Q33.50 42.25 33.58 42.30Q33.66 42.34 33.76 42.36Q33.86 42.37 33.95 42.37L34.07 42.37L34.07 42.57M34.52 42.57L34.43 42.57L34.23 41.24L34.45 41.24L34.62 42.36Q34.69 42.35 34.76 42.32Q34.83 42.29 34.89 42.24Q34.95 42.19 34.98 42.12Q35.02 42.04 35.02 41.93L35.02 41.24L35.24 41.24L35.24 41.94Q35.24 42.11 35.17 42.23Q35.11 42.35 35 42.43Q34.90 42.50 34.77 42.54Q34.65 42.57 34.52 42.57M36.97 42.57L36.76 42.57Q36.64 42.57 36.52 42.54Q36.40 42.51 36.30 42.43Q36.20 42.36 36.14 42.24Q36.07 42.12 36.07 41.94L36.07 41.24L36.97 41.24L36.97 41.45L36.30 41.45L36.30 41.93Q36.30 42.06 36.34 42.14Q36.38 42.23 36.45 42.27Q36.51 42.32 36.60 42.34Q36.68 42.36 36.76 42.37L36.76 42.02L36.97 42.02L36.97 42.57M37.47 42.58L37.15 42.58L37.15 42.38L37.49 42.38Q37.63 42.38 37.69 42.32Q37.76 42.26 37.76 42.17Q37.76 42.05 37.69 41.98Q37.61 41.91 37.45 41.91L37.29 41.91L37.29 41.72Q37.54 41.72 37.64 41.65Q37.74 41.58 37.74 41.44L37.15 41.44L37.15 41.24L37.96 41.24Q37.96 41.47 37.91 41.60Q37.85 41.73 37.77 41.80Q37.86 41.85 37.91 41.93Q37.96 42.02 37.96 42.15Q37.96 42.30 37.90 42.40Q37.83 42.49 37.72 42.54Q37.61 42.58 37.47 42.58" fill="#ffffff" stroke="#ffffff" stroke-width="0.1045" stroke-linejoin="round"/>
    <path d="M44.18 42.57L44.07 42.57Q43.96 42.57 43.86 42.56Q43.75 42.54 43.64 42.50Q43.54 42.46 43.46 42.39Q43.38 42.31 43.33 42.20Q43.28 42.09 43.28 41.94L43.28 41.24L44.18 41.24L44.18 41.45L43.50 41.45L43.50 41.93Q43.50 42.08 43.56 42.17Q43.61 42.25 43.69 42.30Q43.78 42.34 43.87 42.36Q43.97 42.37 44.07 42.37L44.18 42.37L44.18 42.57M44.63 42.57L44.54 42.57L44.34 41.24L44.56 41.24L44.73 42.36Q44.80 42.35 44.88 42.32Q44.95 42.29 45 42.24Q45.06 42.19 45.09 42.12Q45.13 42.04 45.13 41.93L45.13 41.24L45.35 41.24L45.35 41.94Q45.35 42.11 45.28 42.23Q45.22 42.35 45.12 42.43Q45.01 42.50 44.89 42.54Q44.76 42.57 44.63 42.57M47.09 42.57L46.88 42.57Q46.76 42.57 46.63 42.54Q46.51 42.51 46.41 42.43Q46.31 42.36 46.25 42.24Q46.19 42.12 46.19 41.94L46.19 41.24L47.08 41.24L47.08 41.45L46.41 41.45L46.41 41.93Q46.41 42.06 46.45 42.14Q46.49 42.23 46.56 42.27Q46.63 42.32 46.71 42.34Q46.79 42.36 46.88 42.37L46.88 42.02L47.09 42.02L47.09 42.57M48.17 42.57L47.95 42.57L47.95 42.19L47.28 42.19L47.28 41.94Q47.28 41.76 47.34 41.63Q47.40 41.50 47.50 41.41Q47.60 41.32 47.73 41.28Q47.85 41.24 47.98 41.24L48.17 41.24L48.17 42.57M47.50 41.95L47.50 41.98L47.95 41.98L47.95 41.45Q47.81 41.47 47.71 41.52Q47.61 41.57 47.55 41.67Q47.50 41.78 47.50 41.95" fill="#ffffff" stroke="#ffffff" stroke-width="0.1045" stroke-linejoin="round"/>
    <path d="M53.89 42.57L53.78 42.57Q53.68 42.57 53.57 42.56Q53.46 42.54 53.36 42.50Q53.25 42.46 53.17 42.39Q53.09 42.31 53.04 42.20Q53 42.09 53 41.94L53 41.24L53.89 41.24L53.89 41.45L53.22 41.45L53.22 41.93Q53.22 42.08 53.27 42.17Q53.32 42.25 53.40 42.30Q53.49 42.34 53.59 42.36Q53.68 42.37 53.78 42.37L53.89 42.37L53.89 42.57M54.34 42.57L54.25 42.57L54.05 41.24L54.28 41.24L54.44 42.36Q54.52 42.35 54.59 42.32Q54.66 42.29 54.72 42.24Q54.77 42.19 54.81 42.12Q54.84 42.04 54.84 41.93L54.84 41.24L55.06 41.24L55.06 41.94Q55.06 42.11 55 42.23Q54.93 42.35 54.83 42.43Q54.72 42.50 54.60 42.54Q54.47 42.57 54.34 42.57M56.80 42.57L56.59 42.57Q56.47 42.57 56.35 42.54Q56.22 42.51 56.12 42.43Q56.02 42.36 55.96 42.24Q55.90 42.12 55.90 41.94L55.90 41.24L56.80 41.24L56.80 41.45L56.12 41.45L56.12 41.93Q56.12 42.06 56.16 42.14Q56.20 42.23 56.27 42.27Q56.34 42.32 56.42 42.34Q56.50 42.36 56.59 42.37L56.59 42.02L56.80 42.02L56.80 42.57M58.01 42.57L57.80 42.57L57.80 41.90Q57.80 41.76 57.75 41.67Q57.70 41.58 57.62 41.53Q57.54 41.48 57.45 41.46Q57.36 41.44 57.27 41.44L57.27 42.57L57.05 42.57L57.05 41.24L57.23 41.24Q57.38 41.24 57.53 41.28Q57.68 41.31 57.80 41.41L57.80 41.24L57.98 41.24Q58.09 41.24 58.20 41.26Q58.31 41.28 58.41 41.32Q58.51 41.36 58.59 41.43Q58.67 41.50 58.72 41.61Q58.76 41.72 58.76 41.88L58.76 42.57L58.54 42.57L58.54 41.88Q58.54 41.74 58.50 41.65Q58.45 41.57 58.37 41.52Q58.29 41.47 58.20 41.46Q58.10 41.44 58.01 41.44" fill="#ffffff" stroke="#ffffff" stroke-width="0.1045" stroke-linejoin="round"/>
    <path d="M13.18 59.33L12.96 59.33L12.96 58L13.88 58Q13.88 58.19 13.84 58.32Q13.80 58.45 13.73 58.54Q13.66 58.63 13.58 58.69Q13.49 58.74 13.41 58.78Q13.33 58.81 13.27 58.82Q13.21 58.83 13.18 58.83L13.18 59.33M13.18 58.20L13.18 58.62Q13.28 58.62 13.37 58.58Q13.46 58.54 13.52 58.47Q13.59 58.41 13.63 58.34Q13.66 58.26 13.66 58.20L13.18 58.20M14.29 59.33L14.07 59.33L14.07 58L14.29 58Q14.39 58 14.50 58.02Q14.61 58.04 14.71 58.08Q14.81 58.12 14.88 58.19Q14.96 58.27 15.01 58.38Q15.05 58.48 15.05 58.64L15.05 59.33L14.83 59.33L14.83 58.89L14.29 58.89L14.29 59.33M14.29 58.20L14.29 58.68L14.83 58.68L14.83 58.64Q14.83 58.50 14.78 58.41Q14.73 58.32 14.65 58.28Q14.57 58.23 14.47 58.21Q14.38 58.20 14.29 58.20M15.50 59.33L15.28 59.33L15.28 58L15.49 58Q15.59 58 15.70 58.02Q15.81 58.04 15.91 58.08Q16.01 58.12 16.10 58.19Q16.18 58.26 16.22 58.37Q16.27 58.48 16.27 58.64L16.27 59.33L16.05 59.33L16.05 58.64Q16.05 58.50 16 58.41Q15.95 58.32 15.87 58.28Q15.79 58.23 15.69 58.21Q15.60 58.20 15.50 58.20L15.50 59.33M17.52 59.33L17.30 59.33L17.30 58.52Q17.30 58.41 17.28 58.35Q17.26 58.29 17.23 58.25Q17.20 58.22 17.16 58.21Q17.13 58.20 17.11 58.20L17.11 57.99Q17.17 57.99 17.24 58.02Q17.31 58.04 17.38 58.10Q17.44 58.16 17.48 58.26Q17.52 58.37 17.52 58.52" fill="#ffffff" stroke="#ffffff" stroke-width="0.1045" stroke-linejoin="round"/>
    <path d="M23.13 59.33L22.91 59.33L22.91 58L23.83 58Q23.84 58.19 23.79 58.32Q23.75 58.45 23.68 58.54Q23.61 58.63 23.53 58.69Q23.45 58.74 23.37 58.78Q23.29 58.81 23.22 58.82Q23.16 58.83 23.13 58.83L23.13 59.33M23.13 58.20L23.13 58.62Q23.23 58.62 23.32 58.58Q23.41 58.54 23.48 58.47Q23.54 58.41 23.58 58.34Q23.61 58.26 23.61 58.20L23.13 58.20M24.24 59.33L24.02 59.33L24.02 58L24.24 58Q24.34 58 24.45 58.02Q24.56 58.04 24.66 58.08Q24.76 58.12 24.84 58.19Q24.92 58.27 24.96 58.38Q25.01 58.48 25.01 58.64L25.01 59.33L24.79 59.33L24.79 58.89L24.24 58.89L24.24 59.33M24.24 58.20L24.24 58.68L24.79 58.68L24.79 58.64Q24.79 58.50 24.74 58.41Q24.69 58.32 24.60 58.28Q24.52 58.23 24.43 58.21Q24.33 58.20 24.24 58.20M25.46 59.33L25.24 59.33L25.24 58L25.44 58Q25.55 58 25.66 58.02Q25.77 58.04 25.87 58.08Q25.97 58.12 26.05 58.19Q26.13 58.26 26.18 58.37Q26.22 58.48 26.22 58.64L26.22 59.33L26 59.33L26 58.64Q26 58.50 25.95 58.41Q25.90 58.32 25.82 58.28Q25.74 58.23 25.65 58.21Q25.55 58.20 25.46 58.20L25.46 59.33M27.91 59.33L27.02 59.33L27.02 59.15Q27.02 58.99 27.09 58.87Q27.15 58.75 27.29 58.65Q27.43 58.55 27.65 58.44Q27.64 58.34 27.57 58.29Q27.50 58.25 27.39 58.23Q27.29 58.21 27.17 58.21L27.03 58.21L27.03 58L27.17 58Q27.25 58 27.34 58.02Q27.44 58.03 27.53 58.06Q27.63 58.09 27.70 58.15Q27.78 58.21 27.83 58.31Q27.87 58.41 27.87 58.55L27.70 58.64Q27.57 58.70 27.46 58.77Q27.36 58.84 27.31 58.93Q27.25 59.01 27.25 59.13L27.91 59.13" fill="#ffffff" stroke="#ffffff" stroke-width="0.1045" stroke-linejoin="round"/>
    <path d="M33.35 59.33L33.13 59.33L33.13 58L34.05 58Q34.06 58.19 34.01 58.32Q33.97 58.45 33.90 58.54Q33.83 58.63 33.75 58.69Q33.67 58.74 33.59 58.78Q33.51 58.81 33.44 58.82Q33.38 58.83 33.35 58.83L33.35 59.33M33.35 58.20L33.35 58.62Q33.45 58.62 33.54 58.58Q33.63 58.54 33.70 58.47Q33.76 58.41 33.80 58.34Q33.83 58.26 33.83 58.20L33.35 58.20M34.46 59.33L34.24 59.33L34.24 58L34.46 58Q34.56 58 34.67 58.02Q34.78 58.04 34.88 58.08Q34.98 58.12 35.06 58.19Q35.14 58.27 35.18 58.38Q35.23 58.48 35.23 58.64L35.23 59.33L35.01 59.33L35.01 58.89L34.46 58.89L34.46 59.33M34.46 58.20L34.46 58.68L35.01 58.68L35.01 58.64Q35.01 58.50 34.96 58.41Q34.91 58.32 34.82 58.28Q34.74 58.23 34.65 58.21Q34.55 58.20 34.46 58.20M35.68 59.33L35.46 59.33L35.46 58L35.66 58Q35.77 58 35.88 58.02Q35.99 58.04 36.09 58.08Q36.19 58.12 36.27 58.19Q36.35 58.26 36.40 58.37Q36.44 58.48 36.44 58.64L36.44 59.33L36.22 59.33L36.22 58.64Q36.22 58.50 36.17 58.41Q36.12 58.32 36.04 58.28Q35.96 58.23 35.86 58.21Q35.77 58.20 35.68 58.20L35.68 59.33M37.55 59.34L37.22 59.34L37.22 59.14L37.57 59.14Q37.70 59.14 37.77 59.08Q37.84 59.02 37.84 58.93Q37.84 58.81 37.76 58.74Q37.68 58.67 37.53 58.67L37.37 58.67L37.37 58.48Q37.61 58.48 37.71 58.41Q37.81 58.34 37.82 58.20L37.22 58.20L37.22 58L38.04 58Q38.04 58.23 37.98 58.36Q37.93 58.49 37.84 58.56Q37.94 58.61 37.99 58.69Q38.04 58.78 38.04 58.91Q38.04 59.06 37.97 59.16Q37.91 59.25 37.80 59.30Q37.69 59.34 37.55 59.34" fill="#ffffff" stroke="#ffffff" stroke-width="0.1045" stroke-linejoin="round"/>
    <path d="M43.47 59.33L43.25 59.33L43.25 58L44.16 58Q44.17 58.19 44.13 58.32Q44.09 58.45 44.02 58.54Q43.95 58.63 43.86 58.69Q43.78 58.74 43.70 58.78Q43.62 58.81 43.56 58.82Q43.49 58.83 43.47 58.83L43.47 59.33M43.47 58.20L43.47 58.62Q43.57 58.62 43.65 58.58Q43.74 58.54 43.81 58.47Q43.87 58.41 43.91 58.34Q43.95 58.26 43.95 58.20L43.47 58.20M44.57 59.33L44.35 59.33L44.35 58L44.57 58Q44.68 58 44.78 58.02Q44.89 58.04 44.99 58.08Q45.09 58.12 45.17 58.19Q45.25 58.27 45.29 58.38Q45.34 58.48 45.34 58.64L45.34 59.33L45.12 59.33L45.12 58.89L44.57 58.89L44.57 59.33M44.57 58.20L44.57 58.68L45.12 58.68L45.12 58.64Q45.12 58.50 45.07 58.41Q45.02 58.32 44.94 58.28Q44.86 58.23 44.76 58.21Q44.66 58.20 44.57 58.20M45.79 59.33L45.57 59.33L45.57 58L45.78 58Q45.88 58 45.99 58.02Q46.10 58.04 46.20 58.08Q46.30 58.12 46.38 58.19Q46.46 58.26 46.51 58.37Q46.56 58.48 46.56 58.64L46.56 59.33L46.34 59.33L46.34 58.64Q46.34 58.50 46.29 58.41Q46.24 58.32 46.16 58.28Q46.07 58.23 45.98 58.21Q45.88 58.20 45.79 58.20L45.79 59.33M48.25 59.33L48.03 59.33L48.03 58.95L47.35 58.95L47.35 58.70Q47.35 58.52 47.41 58.39Q47.48 58.26 47.58 58.17Q47.68 58.09 47.80 58.04Q47.93 58 48.05 58L48.25 58L48.25 59.33M47.57 58.71L47.57 58.74L48.03 58.74L48.03 58.21Q47.89 58.23 47.79 58.28Q47.69 58.33 47.63 58.43Q47.57 58.54 47.57 58.71" fill="#ffffff" stroke="#ffffff" stroke-width="0.1045" stroke-linejoin="round"/>
    <path d="M54.46 59.33L54.24 59.33L54.24 58L55.16 58Q55.17 58.19 55.12 58.32Q55.08 58.45 55.01 58.54Q54.94 58.63 54.86 58.69Q54.78 58.74 54.70 58.78Q54.62 58.81 54.55 58.82Q54.49 58.83 54.46 58.83L54.46 59.33M54.46 58.20L54.46 58.62Q54.57 58.62 54.65 58.58Q54.74 58.54 54.81 58.47Q54.87 58.41 54.91 58.34Q54.95 58.26 54.95 58.20L54.46 58.20M55.57 59.33L55.35 59.33L55.35 58L55.57 58Q55.67 58 55.78 58.02Q55.89 58.04 55.99 58.08Q56.09 58.12 56.17 58.19Q56.25 58.27 56.29 58.38Q56.34 58.48 56.34 58.64L56.34 59.33L56.12 59.33L56.12 58.89L55.57 58.89L55.57 59.33M55.57 58.20L55.57 58.68L56.12 58.68L56.12 58.64Q56.12 58.50 56.07 58.41Q56.02 58.32 55.94 58.28Q55.85 58.23 55.76 58.21Q55.66 58.20 55.57 58.20M56.79 59.33L56.57 59.33L56.57 58L56.77 58Q56.88 58 56.99 58.02Q57.10 58.04 57.20 58.08Q57.30 58.12 57.38 58.19Q57.46 58.26 57.51 58.37Q57.55 58.48 57.55 58.64L57.55 59.33L57.33 59.33L57.33 58.64Q57.33 58.50 57.28 58.41Q57.23 58.32 57.15 58.28Q57.07 58.23 56.98 58.21Q56.88 58.20 56.79 58.20" fill="#ffffff" stroke="#ffffff" stroke-width="0.1045" stroke-linejoin="round"/>
    <path d="M13.90 76.44L13.78 76.44Q13.68 76.44 13.57 76.42Q13.46 76.41 13.36 76.37Q13.26 76.33 13.18 76.25Q13.10 76.18 13.05 76.07Q13 75.96 13 75.80L13 75.11L13.90 75.11L13.90 75.32L13.22 75.32L13.22 75.80Q13.22 75.95 13.27 76.03Q13.33 76.12 13.41 76.16Q13.49 76.21 13.59 76.22Q13.69 76.24 13.78 76.24L13.90 76.24L13.90 76.44M14.35 76.44L14.25 76.44L14.06 75.11L14.28 75.11L14.45 76.22Q14.52 76.21 14.59 76.18Q14.66 76.16 14.72 76.11Q14.78 76.06 14.81 75.98Q14.85 75.91 14.85 75.80L14.85 75.11L15.07 75.11L15.07 75.80Q15.06 75.98 15 76.10Q14.94 76.22 14.83 76.30Q14.73 76.37 14.60 76.41Q14.48 76.44 14.35 76.44M16.16 76.44L15.94 76.44L15.94 75.11L16.86 75.11Q16.86 75.29 16.82 75.42Q16.78 75.56 16.71 75.65Q16.64 75.74 16.56 75.79Q16.47 75.85 16.39 75.88Q16.31 75.91 16.25 75.92Q16.19 75.93 16.16 75.93L16.16 76.44M16.16 75.31L16.16 75.72Q16.26 75.72 16.35 75.68Q16.44 75.64 16.50 75.58Q16.57 75.51 16.61 75.44Q16.64 75.37 16.64 75.31L16.16 75.31M17.44 76.44L17.22 76.44L17.22 75.63Q17.22 75.52 17.20 75.45Q17.18 75.39 17.15 75.36Q17.12 75.33 17.09 75.32Q17.05 75.31 17.03 75.31L17.03 75.10Q17.09 75.10 17.16 75.12Q17.23 75.15 17.30 75.21Q17.36 75.27 17.40 75.37Q17.44 75.47 17.44 75.63" fill="#ffffff" stroke="#ffffff" stroke-width="0.1045" stroke-linejoin="round"/>
    <path d="M23.85 76.44L23.73 76.44Q23.63 76.44 23.52 76.42Q23.42 76.41 23.31 76.37Q23.21 76.33 23.13 76.25Q23.05 76.18 23 76.07Q22.95 75.96 22.95 75.80L22.95 75.11L23.85 75.11L23.85 75.32L23.17 75.32L23.17 75.80Q23.17 75.95 23.23 76.03Q23.28 76.12 23.36 76.16Q23.45 76.21 23.54 76.22Q23.64 76.24 23.73 76.24L23.85 76.24L23.85 76.44M24.30 76.44L24.21 76.44L24.01 75.11L24.23 75.11L24.40 76.22Q24.47 76.21 24.54 76.18Q24.62 76.16 24.67 76.11Q24.73 76.06 24.76 75.98Q24.80 75.91 24.80 75.80L24.80 75.11L25.02 75.11L25.02 75.80Q25.02 75.98 24.95 76.10Q24.89 76.22 24.79 76.30Q24.68 76.37 24.56 76.41Q24.43 76.44 24.30 76.44M26.12 76.44L25.89 76.44L25.89 75.11L26.81 75.11Q26.82 75.29 26.78 75.42Q26.73 75.56 26.66 75.65Q26.59 75.74 26.51 75.79Q26.43 75.85 26.35 75.88Q26.27 75.91 26.20 75.92Q26.14 75.93 26.12 75.93L26.12 76.44M26.12 75.31L26.12 75.72Q26.22 75.72 26.30 75.68Q26.39 75.64 26.46 75.58Q26.52 75.51 26.56 75.44Q26.60 75.37 26.60 75.31L26.12 75.31M27.83 76.44L26.94 76.44L26.94 76.25Q26.94 76.09 27.01 75.97Q27.07 75.86 27.21 75.76Q27.35 75.66 27.57 75.55Q27.56 75.45 27.49 75.40Q27.42 75.35 27.32 75.34Q27.21 75.32 27.09 75.32L26.96 75.32L26.96 75.11L27.09 75.11Q27.17 75.11 27.27 75.12Q27.36 75.13 27.45 75.16Q27.55 75.20 27.63 75.26Q27.70 75.32 27.75 75.42Q27.80 75.51 27.80 75.65L27.62 75.74Q27.49 75.81 27.39 75.88Q27.29 75.95 27.23 76.03Q27.17 76.12 27.17 76.23L27.83 76.23" fill="#ffffff" stroke="#ffffff" stroke-width="0.1045" stroke-linejoin="round"/>
    <path d="M34.07 76.44L33.95 76.44Q33.85 76.44 33.74 76.42Q33.64 76.41 33.53 76.37Q33.43 76.33 33.35 76.25Q33.27 76.18 33.22 76.07Q33.17 75.96 33.17 75.80L33.17 75.11L34.07 75.11L34.07 75.32L33.39 75.32L33.39 75.80Q33.39 75.95 33.45 76.03Q33.50 76.12 33.58 76.16Q33.67 76.21 33.76 76.22Q33.86 76.24 33.95 76.24L34.07 76.24L34.07 76.44M34.52 76.44L34.43 76.44L34.23 75.11L34.45 75.11L34.62 76.22Q34.69 76.21 34.76 76.18Q34.84 76.16 34.89 76.11Q34.95 76.06 34.98 75.98Q35.02 75.91 35.02 75.80L35.02 75.11L35.24 75.11L35.24 75.80Q35.24 75.98 35.17 76.10Q35.11 76.22 35.01 76.30Q34.90 76.37 34.78 76.41Q34.65 76.44 34.52 76.44M36.34 76.44L36.11 76.44L36.11 75.11L37.03 75.11Q37.04 75.29 37 75.42Q36.95 75.56 36.88 75.65Q36.81 75.74 36.73 75.79Q36.65 75.85 36.57 75.88Q36.49 75.91 36.42 75.92Q36.36 75.93 36.34 75.93L36.34 76.44M36.34 75.31L36.34 75.72Q36.44 75.72 36.52 75.68Q36.61 75.64 36.68 75.58Q36.74 75.51 36.78 75.44Q36.82 75.37 36.82 75.31L36.34 75.31M37.47 76.45L37.14 76.45L37.14 76.24L37.49 76.24Q37.62 76.24 37.69 76.19Q37.76 76.13 37.76 76.03Q37.76 75.92 37.68 75.85Q37.61 75.78 37.45 75.78L37.29 75.78L37.29 75.59Q37.54 75.59 37.64 75.52Q37.74 75.45 37.74 75.30L37.15 75.30L37.15 75.11L37.96 75.11Q37.96 75.33 37.91 75.46Q37.85 75.59 37.77 75.66Q37.86 75.71 37.91 75.80Q37.96 75.89 37.96 76.02Q37.96 76.17 37.90 76.26Q37.83 76.36 37.72 76.40Q37.61 76.45 37.47 76.45" fill="#ffffff" stroke="#ffffff" stroke-width="0.1045" stroke-linejoin="round"/>
    <path d="M44.18 76.44L44.07 76.44Q43.97 76.44 43.86 76.42Q43.75 76.41 43.65 76.37Q43.54 76.33 43.46 76.25Q43.38 76.18 43.33 76.07Q43.29 75.96 43.29 75.80L43.29 75.11L44.18 75.11L44.18 75.32L43.51 75.32L43.51 75.80Q43.51 75.95 43.56 76.03Q43.61 76.12 43.69 76.16Q43.78 76.21 43.88 76.22Q43.97 76.24 44.07 76.24L44.18 76.24L44.18 76.44M44.64 76.44L44.54 76.44L44.34 75.11L44.57 75.11L44.73 76.22Q44.81 76.21 44.88 76.18Q44.95 76.16 45.01 76.11Q45.06 76.06 45.10 75.98Q45.13 75.91 45.13 75.80L45.13 75.11L45.35 75.11L45.35 75.80Q45.35 75.98 45.29 76.10Q45.22 76.22 45.12 76.30Q45.02 76.37 44.89 76.41Q44.76 76.44 44.64 76.44M46.45 76.44L46.23 76.44L46.23 75.11L47.14 75.11Q47.15 75.29 47.11 75.42Q47.07 75.56 47 75.65Q46.93 75.74 46.84 75.79Q46.76 75.85 46.68 75.88Q46.60 75.91 46.54 75.92Q46.47 75.93 46.45 75.93L46.45 76.44M46.45 75.31L46.45 75.72Q46.55 75.72 46.64 75.68Q46.72 75.64 46.79 75.58Q46.85 75.51 46.89 75.44Q46.93 75.37 46.93 75.31L46.45 75.31M48.17 76.44L47.95 76.44L47.95 76.05L47.28 76.05L47.28 75.80Q47.28 75.62 47.34 75.49Q47.40 75.36 47.50 75.28Q47.60 75.19 47.72 75.15Q47.85 75.11 47.98 75.11L48.17 75.11L48.17 76.44M47.50 75.81L47.50 75.85L47.95 75.85L47.95 75.32Q47.81 75.33 47.71 75.38Q47.61 75.43 47.55 75.54Q47.50 75.64 47.50 75.81" fill="#ffffff" stroke="#ffffff" stroke-width="0.1045" stroke-linejoin="round"/>
    <path d="M53.89 76.44L53.78 76.44Q53.68 76.44 53.57 76.42Q53.46 76.41 53.36 76.37Q53.26 76.33 53.17 76.25Q53.09 76.18 53.05 76.07Q53 75.96 53 75.80L53 75.11L53.89 75.11L53.89 75.32L53.22 75.32L53.22 75.80Q53.22 75.95 53.27 76.03Q53.32 76.12 53.41 76.16Q53.49 76.21 53.59 76.22Q53.69 76.24 53.78 76.24L53.89 76.24L53.89 76.44M54.35 76.44L54.25 76.44L54.06 75.11L54.28 75.11L54.45 76.22Q54.52 76.21 54.59 76.18Q54.66 76.16 54.72 76.11Q54.77 76.06 54.81 75.98Q54.84 75.91 54.84 75.80L54.84 75.11L55.06 75.11L55.06 75.80Q55.06 75.98 55 76.10Q54.93 76.22 54.83 76.30Q54.73 76.37 54.60 76.41Q54.47 76.44 54.35 76.44M56.16 76.44L55.94 76.44L55.94 75.11L56.85 75.11Q56.86 75.29 56.82 75.42Q56.78 75.56 56.71 75.65Q56.64 75.74 56.55 75.79Q56.47 75.85 56.39 75.88Q56.31 75.91 56.25 75.92Q56.19 75.93 56.16 75.93L56.16 76.44M56.16 75.31L56.16 75.72Q56.26 75.72 56.35 75.68Q56.43 75.64 56.50 75.58Q56.57 75.51 56.60 75.44Q56.64 75.37 56.64 75.31L56.16 75.31M58.01 76.44L57.80 76.44L57.80 75.76Q57.80 75.62 57.75 75.54Q57.70 75.45 57.62 75.40Q57.54 75.35 57.45 75.33Q57.35 75.31 57.26 75.30L57.26 76.44L57.04 76.44L57.04 75.11L57.23 75.11Q57.37 75.11 57.53 75.15Q57.68 75.18 57.80 75.27L57.80 75.11L57.98 75.11Q58.09 75.11 58.20 75.13Q58.30 75.14 58.41 75.18Q58.51 75.22 58.59 75.30Q58.67 75.37 58.71 75.48Q58.76 75.59 58.76 75.75L58.76 76.44L58.54 76.44L58.54 75.75Q58.54 75.61 58.49 75.52Q58.45 75.43 58.37 75.39Q58.29 75.34 58.19 75.32Q58.10 75.31 58.01 75.30" fill="#ffffff" stroke="#ffffff" stroke-width="0.1045" stroke-linejoin="round"/>
    <path d="M14.10 93.37L13.88 93.37L13.88 92.04L14.10 92.04L14.10 93.37M14.59 93.37L14.37 93.37L14.37 92.04L14.57 92.04Q14.68 92.04 14.79 92.06Q14.90 92.08 15 92.12Q15.10 92.16 15.18 92.23Q15.26 92.30 15.31 92.41Q15.35 92.52 15.35 92.68L15.35 93.37L15.13 93.37L15.13 92.68Q15.13 92.54 15.08 92.45Q15.03 92.36 14.95 92.32Q14.87 92.27 14.77 92.25Q14.68 92.24 14.59 92.24L14.59 93.37M16.60 93.37L16.38 93.37L16.38 92.56Q16.38 92.45 16.36 92.39Q16.34 92.32 16.31 92.29Q16.28 92.26 16.25 92.25Q16.21 92.24 16.19 92.24L16.19 92.03Q16.25 92.03 16.32 92.06Q16.39 92.08 16.46 92.14Q16.52 92.20 16.56 92.30Q16.60 92.41 16.60 92.56" fill="#ffffff" stroke="#ffffff" stroke-width="0.1045" stroke-linejoin="round"/>
    <path d="M24.05 93.37L23.83 93.37L23.83 92.04L24.05 92.04L24.05 93.37M24.54 93.37L24.32 93.37L24.32 92.04L24.53 92.04Q24.63 92.04 24.74 92.06Q24.85 92.08 24.95 92.12Q25.05 92.16 25.13 92.23Q25.21 92.30 25.26 92.41Q25.31 92.52 25.31 92.68L25.31 93.37L25.09 93.37L25.09 92.68Q25.09 92.54 25.04 92.45Q24.99 92.36 24.91 92.32Q24.82 92.27 24.73 92.25Q24.63 92.24 24.54 92.24L24.54 93.37M26.99 93.37L26.10 93.37L26.10 93.19Q26.10 93.03 26.17 92.91Q26.24 92.79 26.37 92.69Q26.51 92.59 26.73 92.48Q26.72 92.38 26.65 92.33Q26.58 92.28 26.48 92.27Q26.37 92.25 26.25 92.25L26.12 92.25L26.12 92.04L26.25 92.04Q26.33 92.04 26.43 92.05Q26.52 92.07 26.62 92.10Q26.71 92.13 26.79 92.19Q26.86 92.25 26.91 92.35Q26.96 92.45 26.96 92.59L26.78 92.68Q26.65 92.74 26.55 92.81Q26.45 92.88 26.39 92.97Q26.33 93.05 26.33 93.17L26.99 93.17" fill="#ffffff" stroke="#ffffff" stroke-width="0.1045" stroke-linejoin="round"/>
    <path d="M34.27 93.37L34.05 93.37L34.05 92.04L34.27 92.04L34.27 93.37M34.76 93.37L34.54 93.37L34.54 92.04L34.74 92.04Q34.85 92.04 34.96 92.06Q35.07 92.08 35.17 92.12Q35.27 92.16 35.35 92.23Q35.43 92.30 35.48 92.41Q35.53 92.52 35.53 92.68L35.53 93.37L35.31 93.37L35.31 92.68Q35.31 92.54 35.26 92.45Q35.21 92.36 35.12 92.32Q35.04 92.27 34.95 92.25Q34.85 92.24 34.76 92.24L34.76 93.37M36.63 93.38L36.30 93.38L36.30 93.18L36.65 93.18Q36.78 93.18 36.85 93.12Q36.92 93.06 36.92 92.97Q36.92 92.85 36.84 92.78Q36.77 92.71 36.61 92.71L36.45 92.71L36.45 92.52Q36.70 92.52 36.80 92.45Q36.90 92.38 36.90 92.24L36.31 92.24L36.31 92.04L37.12 92.04Q37.12 92.27 37.07 92.40Q37.01 92.53 36.93 92.60Q37.02 92.65 37.07 92.73Q37.12 92.82 37.12 92.95Q37.12 93.10 37.06 93.20Q36.99 93.29 36.88 93.34Q36.77 93.38 36.63 93.38" fill="#ffffff" stroke="#ffffff" stroke-width="0.1045" stroke-linejoin="round"/>
    <path d="M44.38 93.37L44.16 93.37L44.16 92.04L44.38 92.04L44.38 93.37M44.87 93.37L44.65 93.37L44.65 92.04L44.86 92.04Q44.96 92.04 45.07 92.06Q45.18 92.08 45.28 92.12Q45.38 92.16 45.46 92.23Q45.54 92.30 45.59 92.41Q45.64 92.52 45.64 92.68L45.64 93.37L45.42 93.37L45.42 92.68Q45.42 92.54 45.37 92.45Q45.32 92.36 45.24 92.32Q45.16 92.27 45.06 92.25Q44.96 92.24 44.87 92.24L44.87 93.37M47.33 93.37L47.11 93.37L47.11 92.99L46.44 92.99L46.44 92.74Q46.44 92.56 46.50 92.43Q46.56 92.30 46.66 92.21Q46.76 92.12 46.88 92.08Q47.01 92.04 47.14 92.04L47.33 92.04L47.33 93.37M46.66 92.75L46.66 92.78L47.11 92.78L47.11 92.25Q46.97 92.27 46.87 92.32Q46.77 92.37 46.71 92.47Q46.66 92.58 46.66 92.75" fill="#ffffff" stroke="#ffffff" stroke-width="0.1045" stroke-linejoin="round"/>
    <path d="M54.81 93.37L53.96 93.37L53.96 92.04L54.18 92.04L54.18 93.16L54.81 93.16L54.81 93.37M55.76 93.37L55.65 93.37Q55.54 93.37 55.44 93.36Q55.33 93.34 55.23 93.30Q55.12 93.26 55.04 93.19Q54.96 93.11 54.92 93Q54.87 92.89 54.87 92.74L54.87 92.04L55.77 92.04L55.77 92.25L55.09 92.25L55.09 92.50L55.63 92.50L55.63 92.70L55.09 92.70Q55.09 92.85 55.13 92.95Q55.18 93.04 55.26 93.09Q55.34 93.14 55.44 93.16Q55.54 93.18 55.65 93.18L55.76 93.18L55.76 93.37M56.23 93.37L56.01 93.37L56.01 92.04L56.89 92.04L56.89 92.25L56.23 92.25L56.23 92.50L56.79 92.50L56.79 92.70L56.23 92.70L56.23 93.37M57.90 93.17L57.90 93.38Q57.78 93.37 57.66 93.33Q57.54 93.30 57.44 93.23Q57.35 93.15 57.29 93.03Q57.23 92.92 57.23 92.74L57.23 92.25L57.04 92.25L57.04 92.04L57.84 92.04L57.84 92.25L57.45 92.25L57.45 92.74Q57.45 92.86 57.49 92.94Q57.52 93.02 57.59 93.07Q57.66 93.12 57.74 93.14Q57.82 93.16 57.90 93.17" fill="#ffffff" stroke="#ffffff" stroke-width="0.1045" stroke-linejoin="round"/>
    <path d="M53.77 108.61L53.54 108.61L53.54 107.28L54.46 107.28Q54.46 107.46 54.42 107.59Q54.38 107.73 54.31 107.82Q54.24 107.91 54.16 107.96L54.52 108.61L54.27 108.61L53.97 108.06Q53.90 108.09 53.85 108.10Q53.79 108.11 53.77 108.11L53.77 108.61M53.76 107.48L53.76 107.89Q53.86 107.89 53.95 107.86Q54.04 107.82 54.10 107.75Q54.17 107.69 54.21 107.62Q54.24 107.54 54.24 107.48L53.76 107.48M54.93 108.61L54.71 108.61L54.71 107.28L54.93 107.28L54.93 108.61M56.05 108.61L55.85 108.61Q55.72 108.61 55.60 108.58Q55.48 108.55 55.38 108.47Q55.28 108.40 55.22 108.28Q55.16 108.16 55.16 107.98L55.16 107.28L56.05 107.28L56.05 107.49L55.38 107.49L55.38 107.97Q55.38 108.10 55.42 108.18Q55.46 108.27 55.53 108.31Q55.60 108.36 55.68 108.38Q55.76 108.40 55.85 108.41L55.85 108.06L56.05 108.06L56.05 108.61M56.52 108.61L56.30 108.61L56.30 107.28L56.52 107.28L56.52 107.82L57.01 107.82L57.01 107.28L57.23 107.28L57.23 108.61L57.01 108.61L57.01 108.03L56.52 108.03L56.52 108.61M58.31 108.41L58.31 108.62Q58.19 108.61 58.08 108.57Q57.96 108.54 57.86 108.47Q57.76 108.39 57.70 108.27Q57.64 108.16 57.64 107.98L57.64 107.49L57.46 107.49L57.46 107.28L58.26 107.28L58.26 107.49L57.86 107.49L57.86 107.98Q57.86 108.10 57.90 108.18Q57.94 108.26 58.01 108.31Q58.07 108.36 58.15 108.38Q58.23 108.40 58.31 108.41" fill="#ffffff" stroke="#ffffff" stroke-width="0.1045" stroke-linejoin="round"/>
  </g>
</svg>
