<svg xmlns="http://www.w3.org/2000/svg" xmlns:inkscape="http://www.inkscape.org/namespaces/inkscape" xmlns:sodipodi="http://sodipodi.sourceforge.net/DTD/sodipodi-0.dtd" viewBox="0 0 20.32 128.5" width="20.32mm" height="128.5mm">
  <g inkscape:groupmode="layer" id="layer-background" inkscape:label="Background">
    <rect x="0.3" y="0.3" width="19.72" height="127.9" fill="none" stroke="#333" stroke-width="1.5"/>
    <rect x="0" y="0.000" width="20.32" height="1.295" fill="#303031"/>
    <rect x="0" y="1.285" width="20.32" height="1.295" fill="#303031"/>
    <rect x="0" y="2.570" width="20.32" height="1.295" fill="#2f2f30"/>
    <rect x="0" y="3.855" width="20.32" height="1.295" fill="#2f2f30"/>
    <rect x="0" y="5.140" width="20.32" height="1.295" fill="#2e2e2f"/>
    <rect x="0" y="6.425" width="20.32" height="1.295" fill="#2e2e2f"/>
    <rect x="0" y="7.710" width="20.32" height="1.295" fill="#2e2e2f"/>
    <rect x="0" y="8.995" width="20.32" height="1.295" fill="#2d2d2e"/>
    <rect x="0" y="10.280" width="20.32" height="1.295" fill="#2d2d2e"/>
    <rect x="0" y="11.565" width="20.32" height="1.295" fill="#2c2c2d"/>
    <rect x="0" y="12.850" width="20.32" height="1.295" fill="#2c2c2d"/>
    <rect x="0" y="14.135" width="20.32" height="1.295" fill="#2c2c2d"/>
    <rect x="0" y="15.420" width="20.32" height="1.295" fill="#2b2b2c"/>
    <rect x="0" y="16.705" width="20.32" height="1.295" fill="#2b2b2c"/>
    <rect x="0" y="17.990" width="20.32" height="1.295" fill="#2a2a2b"/>
    <rect x="0" y="19.275" width="20.32" height="1.295" fill="#2a2a2b"/>
    <rect x="0" y="20.560" width="20.32" height="1.295" fill="#2a2a2b"/>
    <rect x="0" y="21.845" width="20.32" height="1.295" fill="#29292a"/>
    <rect x="0" y="23.130" width="20.32" height="1.295" fill="#29292a"/>
    <rect x="0" y="24.415" width="20.32" height="1.295" fill="#29292a"/>
    <rect x="0" y="25.700" width="20.32" height="1.295" fill="#282829"/>
    <rect x="0" y="26.985" width="20.32" height="1.295" fill="#282829"/>
    <rect x="0" y="28.270" width="20.32" height="1.295" fill="#272728"/>
    <rect x="0" y="29.555" width="20.32" height="1.295" fill="#272728"/>
    <rect x="0" y="30.840" width="20.32" height="1.295" fill="#272728"/>
    <rect x="0" y="32.125" width="20.32" height="1.295" fill="#262627"/>
    <rect x="0" y="33.410" width="20.32" height="1.295" fill="#262627"/>
    <rect x="0" y="34.695" width="20.32" height="1.295" fill="#252526"/>
    <rect x="0" y="35.980" width="20.32" height="1.295" fill="#252526"/>
    <rect x="0" y="37.265" width="20.32" height="1.295" fill="#252526"/>
    <rect x="0" y="38.550" width="20.32" height="1.295" fill="#242425"/>
    <rect x="0" y="39.835" width="20.32" height="1.295" fill="#242425"/>
    <rect x="0" y="41.120" width="20.32" height="1.295" fill="#232324"/>
    <rect x="0" y="42.405" width="20.32" height="1.295" fill="#232324"/>
    <rect x="0" y="43.690" width="20.32" height="1.295" fill="#232324"/>
    <rect x="0" y="44.975" width="20.32" height="1.295" fill="#232324"/>
    <rect x="0" y="46.260" width="20.32" height="1.295" fill="#232324"/>
    <rect x="0" y="47.545" width="20.32" height="1.295" fill="#232324"/>
    <rect x="0" y="48.830" width="20.32" height="1.295" fill="#232324"/>
    <rect x="0" y="50.115" width="20.32" height="1.295" fill="#232324"/>
    <rect x="0" y="51.400" width="20.32" height="1.295" fill="#232324"/>
    <rect x="0" y="52.685" width="20.32" height="1.295" fill="#232324"/>
    <rect x="0" y="53.970" width="20.32" height="1.295" fill="#232324"/>
    <rect x="0" y="55.255" width="20.32" height="1.295" fill="#232324"/>
    <rect x="0" y="56.540" width="20.32" height="1.295" fill="#232324"/>
    <rect x="0" y="57.825" width="20.32" height="1.295" fill="#232324"/>
    <rect x="0" y="59.110" width="20.32" height="1.295" fill="#232324"/>
    <rect x="0" y="60.395" width="20.32" height="1.295" fill="#232324"/>
    <rect x="0" y="61.680" width="20.32" height="1.295" fill="#232324"/>
    <rect x="0" y="62.965" width="20.32" height="1.295" fill="#232324"/>
    <rect x="0" y="64.250" width="20.32" height="1.295" fill="#232324"/>
    <rect x="0" y="65.535" width="20.32" height="1.295" fill="#232324"/>
    <rect x="0" y="66.820" width="20.32" height="1.295" fill="#232324"/>
    <rect x="0" y="68.105" width="20.32" height="1.295" fill="#232324"/>
    <rect x="0" y="69.390" width="20.32" height="1.295" fill="#232324"/>
    <rect x="0" y="70.675" width="20.32" height="1.295" fill="#232324"/>
    <rect x="0" y="71.960" width="20.32" height="1.295" fill="#232324"/>
    <rect x="0" y="73.245" width="20.32" height="1.295" fill="#232324"/>
    <rect x="0" y="74.530" width="20.32" height="1.295" fill="#232324"/>
    <rect x="0" y="75.815" width="20.32" height="1.295" fill="#232324"/>
    <rect x="0" y="77.100" width="20.32" height="1.295" fill="#232324"/>
    <rect x="0" y="78.385" width="20.32" height="1.295" fill="#232324"/>
    <rect x="0" y="79.670" width="20.32" height="1.295" fill="#232324"/>
    <rect x="0" y="80.955" width="20.32" height="1.295" fill="#232324"/>
    <rect x="0" y="82.240" width="20.32" height="1.295" fill="#232324"/>
    <rect x="0" y="83.525" width="20.32" height="1.295" fill="#232324"/>
    <rect x="0" y="84.810" width="20.32" height="1.295" fill="#232324"/>
    <rect x="0" y="86.095" width="20.32" height="1.295" fill="#232324"/>
    <rect x="0" y="87.380" width="20.32" height="1.295" fill="#232324"/>
    <rect x="0" y="88.665" width="20.32" height="1.295" fill="#232324"/>
    <rect x="0" y="89.950" width="20.32" height="1.295" fill="#232324"/>
    <rect x="0" y="91.235" width="20.32" height="1.295" fill="#232324"/>
    <rect x="0" y="92.520" width="20.32" height="1.295" fill="#232324"/>
    <rect x="0" y="93.805" width="20.32" height="1.295" fill="#232324"/>
    <rect x="0" y="95.090" width="20.32" height="1.295" fill="#232324"/>
    <rect x="0" y="96.375" width="20.32" height="1.295" fill="#232324"/>
    <rect x="0" y="97.660" width="20.32" height="1.295" fill="#232324"/>
    <rect x="0" y="98.945" width="20.32" height="1.295" fill="#232324"/>
    <rect x="0" y="100.230" width="20.32" height="1.295" fill="#232324"/>
    <rect x="0" y="101.515" width="20.32" height="1.295" fill="#232324"/>
    <rect x="0" y="102.800" width="20.32" height="1.295" fill="#232324"/>
    <rect x="0" y="104.085" width="20.32" height="1.295" fill="#232324"/>
    <rect x="0" y="105.370" width="20.32" height="1.295" fill="#232324"/>
    <rect x="0" y="106.655" width="20.32" height="1.295" fill="#232324"/>
    <rect x="0" y="107.940" width="20.32" height="1.295" fill="#232324"/>
    <rect x="0" y="109.225" width="20.32" height="1.295" fill="#232324"/>
    <rect x="0" y="110.510" width="20.32" height="1.295" fill="#232324"/>
    <rect x="0" y="111.795" width="20.32" height="1.295" fill="#232324"/>
    <rect x="0" y="113.080" width="20.32" height="1.295" fill="#232324"/>
    <rect x="0" y="114.365" width="20.32" height="1.295" fill="#232324"/>
    <rect x="0" y="115.650" width="20.32" height="1.295" fill="#232324"/>
    <rect x="0" y="116.935" width="20.32" height="1.295" fill="#232324"/>
    <rect x="0" y="118.220" width="20.32" height="1.295" fill="#232324"/>
    <rect x="0" y="119.505" width="20.32" height="1.295" fill="#232324"/>
    <rect x="0" y="120.790" width="20.32" height="1.295" fill="#232324"/>
    <rect x="0" y="122.075" width="20.32" height="1.295" fill="#232324"/>
    <rect x="0" y="123.360" width="20.32" height="1.295" fill="#232324"/>
    <rect x="0" y="124.645" width="20.32" height="1.295" fill="#232324"/>
    <rect x="0" y="125.930" width="20.32" height="1.295" fill="#232324"/>
    <rect x="0" y="127.215" width="20.32" height="1.295" fill="#232324"/>
  </g>
  <g inkscape:groupmode="layer" id="layer-outlines" inkscape:label="Component Outlines">
    <circle cx="2.54" cy="2.54" r="2.54" fill="#2a2a2a" stroke="#444" stroke-width="1.5"/>
    <circle cx="2.54" cy="2.54" r="0.8" fill="#444"/>
    <circle cx="2.54" cy="125.96" r="2.54" fill="#2a2a2a" stroke="#444" stroke-width="1.5"/>
    <circle cx="2.54" cy="125.96" r="0.8" fill="#444"/>
    <circle cx="17.78" cy="2.54" r="2.54" fill="#2a2a2a" stroke="#444" stroke-width="1.5"/>
    <circle cx="17.78" cy="2.54" r="0.8" fill="#444"/>
    <circle cx="17.78" cy="125.96" r="2.54" fill="#2a2a2a" stroke="#444" stroke-width="1.5"/>
    <circle cx="17.78" cy="125.96" r="0.8" fill="#444"/>
    <circle cx="10.16" cy="8.47" r="4.80" fill="#222" stroke="#888" stroke-width="1.5" opacity="0.6"/>
    <circle cx="10.16" cy="8.47" r="1.68" fill="#333" opacity="0.4"/>
    <line x1="10.16" y1="8.47" x2="13.28" y2="8.47" stroke="#666" stroke-width="0.5" opacity="0.6"/>
    <rect x="7.79" y="15.13" width="4.74" height="6.99" rx="1" fill="none" stroke="#888" stroke-width="1.4" opacity="0.5"/>
    <line x1="10.16" y1="20.37" x2="10.16" y2="16.88" stroke="#888" stroke-width="1.7" opacity="0.6"/>
    <circle cx="5.42" cy="31.16" r="4.01" fill="#111" stroke="#996dd2" stroke-width="1.6" opacity="0.7"/>
    <circle cx="5.42" cy="31.16" r="1.40" fill="#996dd2" opacity="0.5"/>
    <circle cx="5.42" cy="41.99" r="4.01" fill="#111" stroke="#996dd2" stroke-width="1.6" opacity="0.7"/>
    <circle cx="5.42" cy="41.99" r="1.40" fill="#996dd2" opacity="0.5"/>
    <circle cx="5.42" cy="52.83" r="4.01" fill="#111" stroke="#996dd2" stroke-width="1.6" opacity="0.7"/>
    <circle cx="5.42" cy="52.83" r="1.40" fill="#996dd2" opacity="0.5"/>
    <circle cx="5.42" cy="63.67" r="4.01" fill="#111" stroke="#996dd2" stroke-width="1.6" opacity="0.7"/>
    <circle cx="5.42" cy="63.67" r="1.40" fill="#996dd2" opacity="0.5"/>
    <circle cx="5.42" cy="74.51" r="4.01" fill="#111" stroke="#996dd2" stroke-width="1.6" opacity="0.7"/>
    <circle cx="5.42" cy="74.51" r="1.40" fill="#996dd2" opacity="0.5"/>
    <circle cx="5.42" cy="85.34" r="4.01" fill="#111" stroke="#996dd2" stroke-width="1.6" opacity="0.7"/>
    <circle cx="5.42" cy="85.34" r="1.40" fill="#996dd2" opacity="0.5"/>
    <circle cx="5.42" cy="96.18" r="4.01" fill="#111" stroke="#996dd2" stroke-width="1.6" opacity="0.7"/>
    <circle cx="5.42" cy="96.18" r="1.40" fill="#996dd2" opacity="0.5"/>
    <circle cx="5.42" cy="107.02" r="4.01" fill="#111" stroke="#996dd2" stroke-width="1.6" opacity="0.7"/>
    <circle cx="5.42" cy="107.02" r="1.40" fill="#996dd2" opacity="0.5"/>
    <rect x="10.09" y="26.34" width="9.63" height="9.63" rx="1.5" fill="#c8b7c7" opacity="0.7"/>
    <circle cx="14.90" cy="31.16" r="2.61" fill="#111" opacity="0.5"/>
    <rect x="10.09" y="37.18" width="9.63" height="9.63" rx="1.5" fill="#c8b7c7" opacity="0.7"/>
    <circle cx="14.90" cy="41.99" r="2.61" fill="#111" opacity="0.5"/>
    <rect x="10.09" y="48.02" width="9.63" height="9.63" rx="1.5" fill="#c8b7c7" opacity="0.7"/>
    <circle cx="14.90" cy="52.83" r="2.61" fill="#111" opacity="0.5"/>
    <rect x="10.09" y="58.86" width="9.63" height="9.63" rx="1.5" fill="#c8b7c7" opacity="0.7"/>
    <circle cx="14.90" cy="63.67" r="2.61" fill="#111" opacity="0.5"/>
    <rect x="10.09" y="69.69" width="9.63" height="9.63" rx="1.5" fill="#c8b7c7" opacity="0.7"/>
    <circle cx="14.90" cy="74.51" r="2.61" fill="#111" opacity="0.5"/>
    <rect x="10.09" y="80.53" width="9.63" height="9.63" rx="1.5" fill="#c8b7c7" opacity="0.7"/>
    <circle cx="14.90" cy="85.34" r="2.61" fill="#111" opacity="0.5"/>
    <rect x="10.09" y="91.37" width="9.63" height="9.63" rx="1.5" fill="#c8b7c7" opacity="0.7"/>
    <circle cx="14.90" cy="96.18" r="2.61" fill="#111" opacity="0.5"/>
    <rect x="10.09" y="102.21" width="9.63" height="9.63" rx="1.5" fill="#c8b7c7" opacity="0.7"/>
    <circle cx="14.90" cy="107.02" r="2.61" fill="#111" opacity="0.5"/>
  </g>
  <g inkscape:groupmode="layer" id="layer-text" inkscape:label="Text">
    <text x="10.16" y="3.39" fill="#555" font-family="sans-serif" font-size="2.8" text-anchor="middle" font-weight="bold">Ra-ntet</text>
    <text x="10.16" y="15.27" fill="#888" font-family="sans-serif" font-size="2.0" text-anchor="middle" opacity="0.7">TET</text>
    <text x="10.16" y="24.12" fill="#888" font-family="sans-serif" font-size="2.0" text-anchor="middle" opacity="0.7">MODE</text>
    <text x="5.42" y="37.17" fill="#996dd2" font-family="sans-serif" font-size="2.0" text-anchor="middle" opacity="0.7">Input 1</text>
    <text x="5.42" y="48.01" fill="#996dd2" font-family="sans-serif" font-size="2.0" text-anchor="middle" opacity="0.7">Input 2</text>
    <text x="5.42" y="58.85" fill="#996dd2" font-family="sans-serif" font-size="2.0" text-anchor="middle" opacity="0.7">Input 3</text>
    <text x="5.42" y="69.68" fill="#996dd2" font-family="sans-serif" font-size="2.0" text-anchor="middle" opacity="0.7">Input 4</text>
    <text x="5.42" y="80.52" fill="#996dd2" font-family="sans-serif" font-size="2.0" text-anchor="middle" opacity="0.7">Input 5</text>
    <text x="5.42" y="91.36" fill="#996dd2" font-family="sans-serif" font-size="2.0" text-anchor="middle" opacity="0.7">Input 6</text>
    <text x="5.42" y="102.19" fill="#996dd2" font-family="sans-serif" font-size="2.0" text-anchor="middle" opacity="0.7">Input 7</text>
    <text x="5.42" y="113.03" fill="#996dd2" font-family="sans-serif" font-size="2.0" text-anchor="middle" opacity="0.7">Input 8</text>
    <text x="14.90" y="37.17" fill="#c8b7c7" font-family="sans-serif" font-size="2.0" text-anchor="middle" opacity="0.7">Output 1</text>
    <text x="14.90" y="48.01" fill="#c8b7c7" font-family="sans-serif" font-size="2.0" text-anchor="middle" opacity="0.7">Output 2</text>
    <text x="14.90" y="58.85" fill="#c8b7c7" font-family="sans-serif" font-size="2.0" text-anchor="middle" opacity="0.7">Output 3</text>
    <text x="14.90" y="69.68" fill="#c8b7c7" font-family="sans-serif" font-size="2.0" text-anchor="middle" opacity="0.7">Output 4</text>
    <text x="14.90" y="80.52" fill="#c8b7c7" font-family="sans-serif" font-size="2.0" text-anchor="middle" opacity="0.7">Output 5</text>
    <text x="14.90" y="91.36" fill="#c8b7c7" font-family="sans-serif" font-size="2.0" text-anchor="middle" opacity="0.7">Output 6</text>
    <text x="14.90" y="102.19" fill="#c8b7c7" font-family="sans-serif" font-size="2.0" text-anchor="middle" opacity="0.7">Output 7</text>
    <text x="14.90" y="113.03" fill="#c8b7c7" font-family="sans-serif" font-size="2.0" text-anchor="middle" opacity="0.7">Output 8</text>
  </g>
</svg>
