<svg xmlns="http://www.w3.org/2000/svg" xmlns:inkscape="http://www.inkscape.org/namespaces/inkscape" xmlns:sodipodi="http://sodipodi.sourceforge.net/DTD/sodipodi-0.dtd" viewBox="0 0 60.96 128.5" width="60.96mm" height="128.5mm">
  <g inkscape:groupmode="layer" id="layer-background" inkscape:label="Background">
    <rect x="0.3" y="0.3" width="60.36" height="127.9" fill="none" stroke="#333" stroke-width="1.5"/>
    <rect x="0" y="0.000" width="60.96" height="1.295" fill="#303031"/>
    <rect x="0" y="1.285" width="60.96" height="1.295" fill="#303031"/>
    <rect x="0" y="2.570" width="60.96" height="1.295" fill="#2f2f30"/>
    <rect x="0" y="3.855" width="60.96" height="1.295" fill="#2f2f30"/>
    <rect x="0" y="5.140" width="60.96" height="1.295" fill="#2e2e2f"/>
    <rect x="0" y="6.425" width="60.96" height="1.295" fill="#2e2e2f"/>
    <rect x="0" y="7.710" width="60.96" height="1.295" fill="#2e2e2f"/>
    <rect x="0" y="8.995" width="60.96" height="1.295" fill="#2d2d2e"/>
    <rect x="0" y="10.280" width="60.96" height="1.295" fill="#2d2d2e"/>
    <rect x="0" y="11.565" width="60.96" height="1.295" fill="#2c2c2d"/>
    <rect x="0" y="12.850" width="60.96" height="1.295" fill="#2c2c2d"/>
    <rect x="0" y="14.135" width="60.96" height="1.295" fill="#2c2c2d"/>
    <rect x="0" y="15.420" width="60.96" height="1.295" fill="#2b2b2c"/>
    <rect x="0" y="16.705" width="60.96" height="1.295" fill="#2b2b2c"/>
    <rect x="0" y="17.990" width="60.96" height="1.295" fill="#2a2a2b"/>
    <rect x="0" y="19.275" width="60.96" height="1.295" fill="#2a2a2b"/>
    <rect x="0" y="20.560" width="60.96" height="1.295" fill="#2a2a2b"/>
    <rect x="0" y="21.845" width="60.96" height="1.295" fill="#29292a"/>
    <rect x="0" y="23.130" width="60.96" height="1.295" fill="#29292a"/>
    <rect x="0" y="24.415" width="60.96" height="1.295" fill="#29292a"/>
    <rect x="0" y="25.700" width="60.96" height="1.295" fill="#282829"/>
    <rect x="0" y="26.985" width="60.96" height="1.295" fill="#282829"/>
    <rect x="0" y="28.270" width="60.96" height="1.295" fill="#272728"/>
    <rect x="0" y="29.555" width="60.96" height="1.295" fill="#272728"/>
    <rect x="0" y="30.840" width="60.96" height="1.295" fill="#272728"/>
    <rect x="0" y="32.125" width="60.96" height="1.295" fill="#262627"/>
    <rect x="0" y="33.410" width="60.96" height="1.295" fill="#262627"/>
    <rect x="0" y="34.695" width="60.96" height="1.295" fill="#252526"/>
    <rect x="0" y="35.980" width="60.96" height="1.295" fill="#252526"/>
    <rect x="0" y="37.265" width="60.96" height="1.295" fill="#252526"/>
    <rect x="0" y="38.550" width="60.96" height="1.295" fill="#242425"/>
    <rect x="0" y="39.835" width="60.96" height="1.295" fill="#242425"/>
    <rect x="0" y="41.120" width="60.96" height="1.295" fill="#232324"/>
    <rect x="0" y="42.405" width="60.96" height="1.295" fill="#232324"/>
    <rect x="0" y="43.690" width="60.96" height="1.295" fill="#232324"/>
    <rect x="0" y="44.975" width="60.96" height="1.295" fill="#232324"/>
    <rect x="0" y="46.260" width="60.96" height="1.295" fill="#232324"/>
    <rect x="0" y="47.545" width="60.96" height="1.295" fill="#232324"/>
    <rect x="0" y="48.830" width="60.96" height="1.295" fill="#232324"/>
    <rect x="0" y="50.115" width="60.96" height="1.295" fill="#232324"/>
    <rect x="0" y="51.400" width="60.96" height="1.295" fill="#232324"/>
    <rect x="0" y="52.685" width="60.96" height="1.295" fill="#232324"/>
    <rect x="0" y="53.970" width="60.96" height="1.295" fill="#232324"/>
    <rect x="0" y="55.255" width="60.96" height="1.295" fill="#232324"/>
    <rect x="0" y="56.540" width="60.96" height="1.295" fill="#232324"/>
    <rect x="0" y="57.825" width="60.96" height="1.295" fill="#232324"/>
    <rect x="0" y="59.110" width="60.96" height="1.295" fill="#232324"/>
    <rect x="0" y="60.395" width="60.96" height="1.295" fill="#232324"/>
    <rect x="0" y="61.680" width="60.96" height="1.295" fill="#232324"/>
    <rect x="0" y="62.965" width="60.96" height="1.295" fill="#232324"/>
    <rect x="0" y="64.250" width="60.96" height="1.295" fill="#232324"/>
    <rect x="0" y="65.535" width="60.96" height="1.295" fill="#232324"/>
    <rect x="0" y="66.820" width="60.96" height="1.295" fill="#232324"/>
    <rect x="0" y="68.105" width="60.96" height="1.295" fill="#232324"/>
    <rect x="0" y="69.390" width="60.96" height="1.295" fill="#232324"/>
    <rect x="0" y="70.675" width="60.96" height="1.295" fill="#232324"/>
    <rect x="0" y="71.960" width="60.96" height="1.295" fill="#232324"/>
    <rect x="0" y="73.245" width="60.96" height="1.295" fill="#232324"/>
    <rect x="0" y="74.530" width="60.96" height="1.295" fill="#232324"/>
    <rect x="0" y="75.815" width="60.96" height="1.295" fill="#232324"/>
    <rect x="0" y="77.100" width="60.96" height="1.295" fill="#232324"/>
    <rect x="0" y="78.385" width="60.96" height="1.295" fill="#232324"/>
    <rect x="0" y="79.670" width="60.96" height="1.295" fill="#232324"/>
    <rect x="0" y="80.955" width="60.96" height="1.295" fill="#232324"/>
    <rect x="0" y="82.240" width="60.96" height="1.295" fill="#232324"/>
    <rect x="0" y="83.525" width="60.96" height="1.295" fill="#232324"/>
    <rect x="0" y="84.810" width="60.96" height="1.295" fill="#232324"/>
    <rect x="0" y="86.095" width="60.96" height="1.295" fill="#232324"/>
    <rect x="0" y="87.380" width="60.96" height="1.295" fill="#232324"/>
    <rect x="0" y="88.665" width="60.96" height="1.295" fill="#232324"/>
    <rect x="0" y="89.950" width="60.96" height="1.295" fill="#232324"/>
    <rect x="0" y="91.235" width="60.96" height="1.295" fill="#232324"/>
    <rect x="0" y="92.520" width="60.96" height="1.295" fill="#232324"/>
    <rect x="0" y="93.805" width="60.96" height="1.295" fill="#232324"/>
    <rect x="0" y="95.090" width="60.96" height="1.295" fill="#232324"/>
    <rect x="0" y="96.375" width="60.96" height="1.295" fill="#232324"/>
    <rect x="0" y="97.660" width="60.96" height="1.295" fill="#232324"/>
    <rect x="0" y="98.945" width="60.96" height="1.295" fill="#232324"/>
    <rect x="0" y="100.230" width="60.96" height="1.295" fill="#232324"/>
    <rect x="0" y="101.515" width="60.96" height="1.295" fill="#232324"/>
    <rect x="0" y="102.800" width="60.96" height="1.295" fill="#232324"/>
    <rect x="0" y="104.085" width="60.96" height="1.295" fill="#232324"/>
    <rect x="0" y="105.370" width="60.96" height="1.295" fill="#232324"/>
    <rect x="0" y="106.655" width="60.96" height="1.295" fill="#232324"/>
    <rect x="0" y="107.940" width="60.96" height="1.295" fill="#232324"/>
    <rect x="0" y="109.225" width="60.96" height="1.295" fill="#232324"/>
    <rect x="0" y="110.510" width="60.96" height="1.295" fill="#232324"/>
    <rect x="0" y="111.795" width="60.96" height="1.295" fill="#232324"/>
    <rect x="0" y="113.080" width="60.96" height="1.295" fill="#232324"/>
    <rect x="0" y="114.365" width="60.96" height="1.295" fill="#232324"/>
    <rect x="0" y="115.650" width="60.96" height="1.295" fill="#232324"/>
    <rect x="0" y="116.935" width="60.96" height="1.295" fill="#232324"/>
    <rect x="0" y="118.220" width="60.96" height="1.295" fill="#232324"/>
    <rect x="0" y="119.505" width="60.96" height="1.295" fill="#232324"/>
    <rect x="0" y="120.790" width="60.96" height="1.295" fill="#232324"/>
    <rect x="0" y="122.075" width="60.96" height="1.295" fill="#232324"/>
    <rect x="0" y="123.360" width="60.96" height="1.295" fill="#232324"/>
    <rect x="0" y="124.645" width="60.96" height="1.295" fill="#232324"/>
    <rect x="0" y="125.930" width="60.96" height="1.295" fill="#232324"/>
    <rect x="0" y="127.215" width="60.96" height="1.295" fill="#232324"/>
  </g>
  <g inkscape:groupmode="layer" id="layer-outlines" inkscape:label="Component Outlines">
    <circle cx="2.54" cy="2.54" r="2.54" fill="#2a2a2a" stroke="#444" stroke-width="1.5"/>
    <circle cx="2.54" cy="2.54" r="0.8" fill="#444"/>
    <circle cx="2.54" cy="125.96" r="2.54" fill="#2a2a2a" stroke="#444" stroke-width="1.5"/>
    <circle cx="2.54" cy="125.96" r="0.8" fill="#444"/>
    <circle cx="58.42" cy="2.54" r="2.54" fill="#2a2a2a" stroke="#444" stroke-width="1.5"/>
    <circle cx="58.42" cy="2.54" r="0.8" fill="#444"/>
    <circle cx="58.42" cy="125.96" r="2.54" fill="#2a2a2a" stroke="#444" stroke-width="1.5"/>
    <circle cx="58.42" cy="125.96" r="0.8" fill="#444"/>
    <rect x="41.32" y="2.71" width="18.29" height="123.27" rx="1" fill="#0a0f0a" stroke="#1a3a1a" stroke-width="1.7"/>
    <path d="M6.85 19.55 A1.50 1.50 0 0 1 5.35 18.05 L5.35 12.75 A4.01 4.01 0 0 1 9.36 8.73 L10.96 8.73 A4.01 4.01 0 0 1 14.97 12.75 L14.97 18.05 A1.50 1.50 0 0 1 13.47 19.55 L6.85 19.55 Z" fill="#996dd2" opacity="0.7"/>
    <circle cx="10.16" cy="13.55" r="2.61" fill="#111" opacity="0.5"/>
    <path d="M27.17 19.55 A1.50 1.50 0 0 1 25.67 18.05 L25.67 12.75 A4.01 4.01 0 0 1 29.68 8.73 L31.28 8.73 A4.01 4.01 0 0 1 35.29 12.75 L35.29 18.05 A1.50 1.50 0 0 1 33.79 19.55 L27.17 19.55 Z" fill="#996dd2" opacity="0.7"/>
    <circle cx="30.48" cy="13.55" r="2.61" fill="#111" opacity="0.5"/>
    <circle cx="10.16" cy="24.38" r="6.10" fill="#222" stroke="#888" stroke-width="1.5" opacity="0.6"/>
    <circle cx="10.16" cy="24.38" r="2.13" fill="#333" opacity="0.4"/>
    <line x1="10.16" y1="24.38" x2="14.12" y2="24.38" stroke="#666" stroke-width="0.5" opacity="0.6"/>
    <path d="M27.17 30.38 A1.50 1.50 0 0 1 25.67 28.88 L25.67 23.58 A4.01 4.01 0 0 1 29.68 19.57 L31.28 19.57 A4.01 4.01 0 0 1 35.29 23.58 L35.29 28.88 A1.50 1.50 0 0 1 33.79 30.38 L27.17 30.38 Z" fill="#996dd2" opacity="0.7"/>
    <circle cx="30.48" cy="24.38" r="2.61" fill="#111" opacity="0.5"/>
    <circle cx="10.16" cy="35.22" r="3.84" fill="#222" stroke="#888" stroke-width="1.5" opacity="0.6"/>
    <circle cx="10.16" cy="35.22" r="1.34" fill="#333" opacity="0.4"/>
    <line x1="10.16" y1="35.22" x2="12.66" y2="35.22" stroke="#666" stroke-width="0.5" opacity="0.6"/>
    <path d="M27.17 41.22 A1.50 1.50 0 0 1 25.67 39.72 L25.67 34.42 A4.01 4.01 0 0 1 29.68 30.41 L31.28 30.41 A4.01 4.01 0 0 1 35.29 34.42 L35.29 39.72 A1.50 1.50 0 0 1 33.79 41.22 L27.17 41.22 Z" fill="#996dd2" opacity="0.7"/>
    <circle cx="30.48" cy="35.22" r="2.61" fill="#111" opacity="0.5"/>
    <circle cx="10.16" cy="46.06" r="3.84" fill="#222" stroke="#888" stroke-width="1.5" opacity="0.6"/>
    <circle cx="10.16" cy="46.06" r="1.34" fill="#333" opacity="0.4"/>
    <line x1="10.16" y1="46.06" x2="12.66" y2="46.06" stroke="#666" stroke-width="0.5" opacity="0.6"/>
    <path d="M27.17 52.06 A1.50 1.50 0 0 1 25.67 50.56 L25.67 45.26 A4.01 4.01 0 0 1 29.68 41.25 L31.28 41.25 A4.01 4.01 0 0 1 35.29 45.26 L35.29 50.56 A1.50 1.50 0 0 1 33.79 52.06 L27.17 52.06 Z" fill="#996dd2" opacity="0.7"/>
    <circle cx="30.48" cy="46.06" r="2.61" fill="#111" opacity="0.5"/>
    <circle cx="10.16" cy="56.90" r="3.84" fill="#222" stroke="#888" stroke-width="1.5" opacity="0.6"/>
    <circle cx="10.16" cy="56.90" r="1.34" fill="#333" opacity="0.4"/>
    <line x1="10.16" y1="56.90" x2="12.66" y2="56.90" stroke="#666" stroke-width="0.5" opacity="0.6"/>
    <path d="M27.17 62.90 A1.50 1.50 0 0 1 25.67 61.40 L25.67 56.10 A4.01 4.01 0 0 1 29.68 52.08 L31.28 52.08 A4.01 4.01 0 0 1 35.29 56.10 L35.29 61.40 A1.50 1.50 0 0 1 33.79 62.90 L27.17 62.90 Z" fill="#996dd2" opacity="0.7"/>
    <circle cx="30.48" cy="56.90" r="2.61" fill="#111" opacity="0.5"/>
    <circle cx="20.32" cy="56.90" r="1.02" fill="#1a1a1a" stroke="#888" stroke-width="1.60" opacity="0.6"/>
    <circle cx="20.32" cy="56.90" r="0.36" fill="#333" opacity="0.5"/>
    <circle cx="10.16" cy="67.73" r="3.84" fill="#222" stroke="#888" stroke-width="1.5" opacity="0.6"/>
    <circle cx="10.16" cy="67.73" r="1.34" fill="#333" opacity="0.4"/>
    <line x1="10.16" y1="67.73" x2="12.66" y2="67.73" stroke="#666" stroke-width="0.5" opacity="0.6"/>
    <path d="M27.17 73.73 A1.50 1.50 0 0 1 25.67 72.23 L25.67 66.93 A4.01 4.01 0 0 1 29.68 62.92 L31.28 62.92 A4.01 4.01 0 0 1 35.29 66.93 L35.29 72.23 A1.50 1.50 0 0 1 33.79 73.73 L27.17 73.73 Z" fill="#996dd2" opacity="0.7"/>
    <circle cx="30.48" cy="67.73" r="2.61" fill="#111" opacity="0.5"/>
    <circle cx="10.16" cy="78.57" r="3.84" fill="#222" stroke="#888" stroke-width="1.5" opacity="0.6"/>
    <circle cx="10.16" cy="78.57" r="1.34" fill="#333" opacity="0.4"/>
    <line x1="10.16" y1="78.57" x2="12.66" y2="78.57" stroke="#666" stroke-width="0.5" opacity="0.6"/>
    <path d="M27.17 84.57 A1.50 1.50 0 0 1 25.67 83.07 L25.67 77.77 A4.01 4.01 0 0 1 29.68 73.76 L31.28 73.76 A4.01 4.01 0 0 1 35.29 77.77 L35.29 83.07 A1.50 1.50 0 0 1 33.79 84.57 L27.17 84.57 Z" fill="#996dd2" opacity="0.7"/>
    <circle cx="30.48" cy="78.57" r="2.61" fill="#111" opacity="0.5"/>
    <circle cx="10.16" cy="89.41" r="3.84" fill="#222" stroke="#888" stroke-width="1.5" opacity="0.6"/>
    <circle cx="10.16" cy="89.41" r="1.34" fill="#333" opacity="0.4"/>
    <line x1="10.16" y1="89.41" x2="12.66" y2="89.41" stroke="#666" stroke-width="0.5" opacity="0.6"/>
    <path d="M27.17 95.41 A1.50 1.50 0 0 1 25.67 93.91 L25.67 88.61 A4.01 4.01 0 0 1 29.68 84.59 L31.28 84.59 A4.01 4.01 0 0 1 35.29 88.61 L35.29 93.91 A1.50 1.50 0 0 1 33.79 95.41 L27.17 95.41 Z" fill="#996dd2" opacity="0.7"/>
    <circle cx="30.48" cy="89.41" r="2.61" fill="#111" opacity="0.5"/>
    <circle cx="10.16" cy="100.25" r="3.84" fill="#222" stroke="#888" stroke-width="1.5" opacity="0.6"/>
    <circle cx="10.16" cy="100.25" r="1.34" fill="#333" opacity="0.4"/>
    <line x1="10.16" y1="100.25" x2="12.66" y2="100.25" stroke="#666" stroke-width="0.5" opacity="0.6"/>
    <circle cx="20.32" cy="111.08" r="3.61" fill="#1a1a1a" stroke="#888" stroke-width="2.40" opacity="0.6"/>
    <circle cx="20.32" cy="111.08" r="1.26" fill="#333" opacity="0.5"/>
    <rect x="5.35" y="117.11" width="9.63" height="10.81" rx="1.5" fill="#c8b7c7" opacity="0.7"/>
    <circle cx="10.16" cy="121.92" r="2.61" fill="#111" opacity="0.5"/>
    <rect x="25.67" y="117.11" width="9.63" height="10.81" rx="1.5" fill="#c8b7c7" opacity="0.7"/>
    <circle cx="30.48" cy="121.92" r="2.61" fill="#111" opacity="0.5"/>
  </g>
  <g inkscape:groupmode="layer" id="layer-text" inkscape:label="Text">
    <path d="M25.12 3.39L24.81 3.39L24.81 1.57L26.07 1.57Q26.07 1.81 26.02 1.99Q25.96 2.17 25.87 2.30Q25.77 2.42 25.66 2.50L26.15 3.39L25.81 3.39L25.40 2.64Q25.30 2.67 25.23 2.68Q25.15 2.69 25.12 2.69L25.12 3.39M25.11 1.83L25.11 2.40Q25.25 2.40 25.37 2.35Q25.49 2.29 25.58 2.21Q25.67 2.12 25.72 2.02Q25.77 1.92 25.77 1.83L25.11 1.83M27.58 3.39L27.42 3.39Q27.28 3.39 27.13 3.36Q26.98 3.34 26.85 3.29Q26.71 3.23 26.60 3.13Q26.49 3.03 26.42 2.88Q26.36 2.73 26.36 2.52L26.36 1.57L27.58 1.57L27.58 1.84L26.66 1.84L26.66 2.20L27.40 2.20L27.40 2.46L26.66 2.46Q26.66 2.67 26.72 2.81Q26.78 2.94 26.89 3Q27 3.07 27.14 3.10Q27.27 3.12 27.42 3.12L27.58 3.12L27.58 3.39M28.24 3.39L28.11 3.39L27.85 1.57L28.15 1.57L28.38 3.09Q28.48 3.07 28.58 3.04Q28.67 3 28.75 2.93Q28.83 2.87 28.88 2.76Q28.92 2.66 28.92 2.51L28.92 1.57L29.22 1.57L29.22 2.52Q29.22 2.75 29.13 2.92Q29.05 3.09 28.91 3.19Q28.76 3.29 28.59 3.34Q28.42 3.39 28.24 3.39M30.74 3.39L30.58 3.39Q30.44 3.39 30.29 3.36Q30.14 3.34 30 3.29Q29.86 3.23 29.75 3.13Q29.64 3.03 29.58 2.88Q29.51 2.73 29.51 2.52L29.51 1.57L30.74 1.57L30.74 1.84L29.81 1.84L29.81 2.20L30.56 2.20L30.56 2.46L29.81 2.46Q29.81 2.67 29.88 2.81Q29.94 2.94 30.05 3Q30.15 3.07 30.29 3.10Q30.43 3.12 30.58 3.12L30.74 3.12L30.74 3.39M31.39 3.39L31.08 3.39L31.08 1.57L32.33 1.57Q32.34 1.81 32.29 1.99Q32.23 2.17 32.14 2.30Q32.04 2.42 31.93 2.50L32.42 3.39L32.08 3.39L31.67 2.64Q31.57 2.67 31.50 2.68Q31.42 2.69 31.39 2.69L31.39 3.39M31.38 1.83L31.38 2.40Q31.52 2.40 31.64 2.35Q31.76 2.29 31.85 2.21Q31.94 2.12 31.99 2.02Q32.04 1.92 32.04 1.83L31.38 1.83M33.27 3.39L32.68 3.39L32.68 1.57L33.90 1.57Q33.91 1.74 33.88 1.89Q33.85 2.03 33.78 2.15Q33.71 2.26 33.57 2.31Q33.68 2.35 33.76 2.41Q33.84 2.47 33.89 2.56Q33.94 2.66 33.94 2.80Q33.94 3 33.85 3.13Q33.76 3.26 33.61 3.33Q33.45 3.39 33.27 3.39M32.98 1.85L32.98 2.25Q33.07 2.25 33.17 2.23Q33.28 2.21 33.37 2.16Q33.46 2.12 33.52 2.04Q33.58 1.97 33.58 1.85L32.98 1.85M32.98 2.53L32.98 3.11L33.27 3.11Q33.43 3.11 33.52 3.04Q33.60 2.97 33.60 2.82Q33.60 2.66 33.52 2.59Q33.43 2.53 33.27 2.53L32.98 2.53M34.55 3.39L34.25 3.39L34.25 1.57L34.55 1.57L34.55 3.39M35.22 3.39L34.92 3.39L34.92 1.57L36.17 1.57Q36.18 1.81 36.12 1.99Q36.06 2.17 35.97 2.30Q35.88 2.42 35.77 2.50L36.25 3.39L35.91 3.39L35.50 2.64Q35.41 2.67 35.33 2.68Q35.26 2.69 35.22 2.69L35.22 3.39M35.22 1.83L35.22 2.40Q35.35 2.40 35.47 2.35Q35.59 2.29 35.68 2.21Q35.77 2.12 35.82 2.02Q35.87 1.92 35.87 1.83" fill="#ffffff" stroke="#ffffff" stroke-width="0.14300000000000002" stroke-linejoin="round"/>
    <path d="M8.83 19.05L8.61 19.05L8.61 17.72L8.83 17.72L8.83 19.05M9.31 19.05L9.09 19.05L9.09 17.72L9.30 17.72Q9.40 17.72 9.51 17.73Q9.62 17.75 9.72 17.79Q9.82 17.83 9.90 17.90Q9.99 17.98 10.03 18.09Q10.08 18.20 10.08 18.35L10.08 19.05L9.86 19.05L9.86 18.36Q9.86 18.21 9.81 18.12Q9.76 18.04 9.68 17.99Q9.60 17.94 9.50 17.93Q9.41 17.91 9.31 17.91L9.31 19.05M11.79 19.05L10.94 19.05L10.94 17.72L11.16 17.72L11.16 18.84L11.79 18.84" fill="#ffffff" stroke="#ffffff" stroke-width="0.1045" stroke-linejoin="round"/>
    <path d="M29.09 19.05L28.86 19.05L28.86 17.72L29.09 17.72L29.09 19.05M29.57 19.05L29.35 19.05L29.35 17.72L29.56 17.72Q29.66 17.72 29.77 17.73Q29.88 17.75 29.98 17.79Q30.08 17.83 30.16 17.90Q30.24 17.98 30.29 18.09Q30.34 18.20 30.34 18.35L30.34 19.05L30.12 19.05L30.12 18.36Q30.12 18.21 30.07 18.12Q30.02 18.04 29.94 17.99Q29.86 17.94 29.76 17.93Q29.66 17.91 29.57 17.91L29.57 19.05M31.42 19.05L31.19 19.05L31.19 17.72L32.11 17.72Q32.12 17.90 32.08 18.03Q32.03 18.16 31.97 18.25Q31.90 18.34 31.82 18.40L32.17 19.05L31.92 19.05L31.62 18.50Q31.55 18.52 31.50 18.53Q31.44 18.54 31.42 18.54L31.42 19.05M31.41 17.91L31.41 18.33Q31.52 18.33 31.60 18.29Q31.69 18.25 31.76 18.19Q31.82 18.12 31.86 18.05Q31.90 17.98 31.90 17.91" fill="#ffffff" stroke="#ffffff" stroke-width="0.1045" stroke-linejoin="round"/>
    <path d="M9.40 31.48L9.18 31.48L9.18 30.80Q9.18 30.66 9.13 30.58Q9.09 30.49 9.01 30.44Q8.93 30.39 8.83 30.37Q8.74 30.35 8.65 30.34L8.65 31.48L8.43 31.48L8.43 30.15L8.62 30.15Q8.76 30.15 8.91 30.19Q9.07 30.22 9.18 30.31L9.18 30.15L9.37 30.15Q9.47 30.15 9.58 30.17Q9.69 30.18 9.79 30.22Q9.89 30.26 9.97 30.34Q10.05 30.41 10.10 30.52Q10.15 30.63 10.15 30.79L10.15 31.48L9.93 31.48L9.93 30.79Q9.93 30.65 9.88 30.56Q9.83 30.47 9.75 30.43Q9.67 30.38 9.58 30.36Q9.49 30.35 9.40 30.34L9.40 31.48M10.60 31.48L10.38 31.48L10.38 30.15L10.60 30.15L10.60 31.48M11.05 31.48L10.83 31.48Q10.83 31.31 10.88 31.17Q10.94 31.04 11.03 30.94Q11.12 30.84 11.23 30.78L10.83 30.15L11.09 30.15L11.43 30.68Q11.51 30.64 11.58 30.57Q11.64 30.49 11.68 30.38Q11.72 30.28 11.72 30.15L11.94 30.15Q11.93 30.32 11.88 30.46Q11.83 30.60 11.75 30.71Q11.66 30.82 11.55 30.87L11.93 31.48L11.68 31.48L11.35 30.97Q11.27 31.01 11.20 31.08Q11.13 31.15 11.09 31.25Q11.05 31.35 11.05 31.48" fill="#ffffff" stroke="#ffffff" stroke-width="0.1045" stroke-linejoin="round"/>
    <path d="M28.26 29.88L28.05 29.88L28.05 29.21Q28.05 29.07 28 28.98Q27.95 28.89 27.88 28.84Q27.80 28.79 27.70 28.77Q27.61 28.75 27.52 28.75L27.52 29.88L27.30 29.88L27.30 28.55L27.48 28.55Q27.63 28.55 27.78 28.59Q27.93 28.62 28.05 28.72L28.05 28.55L28.24 28.55Q28.34 28.55 28.45 28.57Q28.56 28.59 28.66 28.63Q28.76 28.67 28.84 28.74Q28.92 28.81 28.97 28.92Q29.02 29.03 29.02 29.19L29.02 29.88L28.80 29.88L28.80 29.19Q28.80 29.05 28.75 28.96Q28.70 28.88 28.62 28.83Q28.54 28.78 28.45 28.77Q28.36 28.75 28.26 28.75L28.26 29.88M29.47 29.88L29.24 29.88L29.24 28.55L29.47 28.55L29.47 29.88M29.91 29.88L29.69 29.88Q29.70 29.71 29.75 29.58Q29.81 29.44 29.90 29.34Q29.99 29.24 30.10 29.19L29.70 28.55L29.96 28.55L30.30 29.09Q30.38 29.05 30.45 28.97Q30.51 28.89 30.55 28.79Q30.58 28.68 30.58 28.55L30.80 28.55Q30.80 28.72 30.75 28.87Q30.70 29.01 30.62 29.11Q30.53 29.22 30.42 29.27L30.80 29.88L30.54 29.88L30.22 29.38Q30.14 29.41 30.07 29.49Q30 29.56 29.96 29.66Q29.91 29.76 29.91 29.88M32.51 29.88L32.39 29.88Q32.29 29.88 32.18 29.87Q32.07 29.85 31.97 29.81Q31.87 29.77 31.79 29.70Q31.71 29.63 31.66 29.52Q31.61 29.41 31.61 29.25L31.61 28.55L32.51 28.55L32.51 28.76L31.83 28.76L31.83 29.25Q31.83 29.39 31.89 29.48Q31.94 29.56 32.02 29.61Q32.10 29.65 32.20 29.67Q32.30 29.68 32.39 29.68L32.51 29.68L32.51 29.88M32.96 29.88L32.87 29.88L32.67 28.55L32.89 28.55L33.06 29.67Q33.13 29.66 33.20 29.63Q33.27 29.60 33.33 29.55Q33.39 29.50 33.42 29.43Q33.46 29.35 33.46 29.25L33.46 28.55L33.68 28.55L33.68 29.25Q33.68 29.42 33.61 29.54Q33.55 29.67 33.44 29.74Q33.34 29.82 33.22 29.85Q33.09 29.88 32.96 29.88" fill="#ffffff" stroke="#ffffff" stroke-width="0.1045" stroke-linejoin="round"/>
    <path d="M8.44 40.72L7.59 40.72L7.59 39.39L7.81 39.39L7.81 40.51L8.44 40.51L8.44 40.72M9.40 40.72L9.28 40.72Q9.18 40.72 9.07 40.71Q8.96 40.69 8.86 40.65Q8.76 40.61 8.68 40.54Q8.60 40.46 8.55 40.35Q8.50 40.24 8.50 40.08L8.50 39.39L9.40 39.39L9.40 39.59L8.72 39.59L8.72 39.85L9.26 39.85L9.26 40.05L8.72 40.05Q8.72 40.20 8.77 40.30Q8.81 40.39 8.89 40.44Q8.97 40.49 9.07 40.51Q9.17 40.53 9.28 40.53L9.40 40.53L9.40 40.72M9.88 40.72L9.78 40.72L9.59 39.39L9.81 39.39L9.98 40.50Q10.05 40.49 10.12 40.47Q10.19 40.44 10.25 40.39Q10.31 40.34 10.34 40.27Q10.38 40.19 10.38 40.08L10.38 39.39L10.60 39.39L10.60 40.08Q10.59 40.26 10.53 40.38Q10.47 40.50 10.36 40.58Q10.26 40.65 10.13 40.69Q10.01 40.72 9.88 40.72M11.70 40.72L11.59 40.72Q11.48 40.72 11.37 40.71Q11.26 40.69 11.16 40.65Q11.06 40.61 10.98 40.54Q10.90 40.46 10.85 40.35Q10.81 40.24 10.81 40.08L10.81 39.39L11.70 39.39L11.70 39.59L11.03 39.59L11.03 39.85L11.57 39.85L11.57 40.05L11.03 40.05Q11.03 40.20 11.07 40.30Q11.12 40.39 11.20 40.44Q11.28 40.49 11.38 40.51Q11.48 40.53 11.59 40.53L11.70 40.53L11.70 40.72M12.81 40.72L11.95 40.72L11.95 39.39L12.17 39.39L12.17 40.51L12.81 40.51" fill="#ffffff" stroke="#ffffff" stroke-width="0.1045" stroke-linejoin="round"/>
    <path d="M27.31 40.72L26.46 40.72L26.46 39.39L26.68 39.39L26.68 40.51L27.31 40.51L27.31 40.72M28.26 40.72L28.15 40.72Q28.05 40.72 27.94 40.71Q27.83 40.69 27.73 40.65Q27.63 40.61 27.54 40.54Q27.46 40.46 27.42 40.35Q27.37 40.24 27.37 40.08L27.37 39.39L28.27 39.39L28.27 39.59L27.59 39.59L27.59 39.85L28.13 39.85L28.13 40.05L27.59 40.05Q27.59 40.20 27.63 40.30Q27.68 40.39 27.76 40.44Q27.84 40.49 27.94 40.51Q28.04 40.53 28.15 40.53L28.26 40.53L28.26 40.72M28.75 40.72L28.65 40.72L28.46 39.39L28.68 39.39L28.85 40.50Q28.92 40.49 28.99 40.47Q29.06 40.44 29.12 40.39Q29.18 40.34 29.21 40.27Q29.24 40.19 29.24 40.08L29.24 39.39L29.46 39.39L29.46 40.08Q29.46 40.26 29.40 40.38Q29.34 40.50 29.23 40.58Q29.13 40.65 29 40.69Q28.88 40.72 28.75 40.72M30.57 40.72L30.46 40.72Q30.35 40.72 30.24 40.71Q30.13 40.69 30.03 40.65Q29.93 40.61 29.85 40.54Q29.77 40.46 29.72 40.35Q29.68 40.24 29.68 40.08L29.68 39.39L30.57 39.39L30.57 39.59L29.90 39.59L29.90 39.85L30.44 39.85L30.44 40.05L29.90 40.05Q29.90 40.20 29.94 40.30Q29.99 40.39 30.07 40.44Q30.14 40.49 30.25 40.51Q30.35 40.53 30.46 40.53L30.57 40.53L30.57 40.72M31.68 40.72L30.82 40.72L30.82 39.39L31.04 39.39L31.04 40.51L31.68 40.51L31.68 40.72M33.35 40.72L33.24 40.72Q33.14 40.72 33.03 40.71Q32.92 40.69 32.82 40.65Q32.71 40.61 32.63 40.54Q32.55 40.46 32.50 40.35Q32.46 40.24 32.46 40.08L32.46 39.39L33.35 39.39L33.35 39.60L32.68 39.60L32.68 40.08Q32.68 40.23 32.73 40.31Q32.78 40.40 32.86 40.45Q32.95 40.49 33.05 40.50Q33.14 40.52 33.24 40.52L33.35 40.52L33.35 40.72M33.80 40.72L33.71 40.72L33.51 39.39L33.74 39.39L33.90 40.50Q33.98 40.49 34.05 40.47Q34.12 40.44 34.17 40.39Q34.23 40.34 34.27 40.27Q34.30 40.19 34.30 40.08L34.30 39.39L34.52 39.39L34.52 40.08Q34.52 40.26 34.45 40.38Q34.39 40.50 34.29 40.58Q34.18 40.65 34.06 40.69Q33.93 40.72 33.80 40.72" fill="#ffffff" stroke="#ffffff" stroke-width="0.1045" stroke-linejoin="round"/>
    <path d="M5.99 51.56L5.77 51.56L5.77 50.23L6.69 50.23Q6.69 50.41 6.65 50.54Q6.61 50.68 6.54 50.77Q6.47 50.86 6.39 50.91Q6.30 50.97 6.23 51Q6.15 51.03 6.08 51.04Q6.02 51.05 5.99 51.05L5.99 51.56M5.99 50.42L5.99 50.84Q6.09 50.84 6.18 50.80Q6.27 50.76 6.33 50.70Q6.40 50.63 6.44 50.56Q6.47 50.49 6.47 50.42L5.99 50.42M7.10 51.56L6.88 51.56L6.88 50.23L7.79 50.23Q7.80 50.41 7.76 50.54Q7.72 50.67 7.65 50.76Q7.58 50.85 7.50 50.91L7.86 51.56L7.61 51.56L7.31 51.01Q7.24 51.03 7.18 51.04Q7.13 51.05 7.10 51.05L7.10 51.56M7.10 50.42L7.10 50.84Q7.20 50.84 7.29 50.80Q7.37 50.76 7.44 50.70Q7.51 50.63 7.54 50.56Q7.58 50.49 7.58 50.42L7.10 50.42M8.90 51.56L8.79 51.56Q8.68 51.56 8.57 51.54Q8.47 51.53 8.36 51.49Q8.26 51.44 8.18 51.37Q8.10 51.30 8.05 51.19Q8.01 51.08 8.01 50.92L8.01 50.23L8.90 50.23L8.90 50.43L8.23 50.43L8.23 50.69L8.77 50.69L8.77 50.88L8.23 50.88Q8.23 51.04 8.27 51.13Q8.32 51.23 8.40 51.28Q8.48 51.33 8.58 51.35Q8.68 51.36 8.79 51.36L8.90 51.36L8.90 51.56M9.37 51.56L9.15 51.56L9.15 50.23L9.37 50.23Q9.48 50.23 9.58 50.24Q9.69 50.26 9.79 50.30Q9.89 50.34 9.97 50.41Q10.05 50.49 10.10 50.60Q10.15 50.71 10.15 50.87L10.15 50.92Q10.15 51.08 10.10 51.19Q10.06 51.30 9.98 51.37Q9.90 51.44 9.80 51.49Q9.69 51.53 9.59 51.54Q9.48 51.56 9.37 51.56M9.37 50.43L9.37 51.36Q9.47 51.36 9.56 51.34Q9.66 51.33 9.74 51.28Q9.83 51.24 9.88 51.15Q9.93 51.06 9.93 50.92L9.93 50.87Q9.93 50.72 9.88 50.64Q9.83 50.55 9.74 50.51Q9.66 50.46 9.56 50.45Q9.47 50.43 9.37 50.43M11.24 51.56L11.12 51.56Q11.02 51.56 10.91 51.54Q10.80 51.53 10.70 51.49Q10.60 51.44 10.52 51.37Q10.44 51.30 10.39 51.19Q10.34 51.08 10.34 50.92L10.34 50.23L11.24 50.23L11.24 50.43L10.56 50.43L10.56 50.69L11.10 50.69L11.10 50.88L10.56 50.88Q10.56 51.04 10.61 51.13Q10.65 51.23 10.73 51.28Q10.81 51.33 10.91 51.35Q11.01 51.36 11.12 51.36L11.24 51.36L11.24 51.56M12.34 51.56L11.49 51.56L11.49 50.23L11.71 50.23L11.71 51.35L12.34 51.35L12.34 51.56M12.72 51.56L12.50 51.56L12.50 50.23L12.72 50.23Q12.82 50.23 12.93 50.25Q13.03 50.26 13.13 50.30Q13.23 50.34 13.31 50.42Q13.39 50.49 13.44 50.60Q13.48 50.71 13.48 50.87L13.48 51.56L13.26 51.56L13.26 51.12L12.72 51.12L12.72 51.56M12.72 50.42L12.72 50.91L13.26 50.91L13.26 50.87Q13.26 50.72 13.21 50.64Q13.16 50.55 13.08 50.50Q13 50.46 12.90 50.44Q12.81 50.42 12.72 50.42M13.89 51.56L13.89 51.35Q13.99 51.35 14.09 51.31Q14.19 51.28 14.25 51.21Q14.32 51.13 14.34 51Q14.22 51 14.10 50.96Q13.98 50.93 13.88 50.86Q13.78 50.79 13.71 50.66Q13.65 50.54 13.65 50.36L13.65 50.23L13.87 50.23L13.87 50.36Q13.87 50.49 13.92 50.57Q13.96 50.65 14.02 50.70Q14.09 50.75 14.18 50.77Q14.26 50.79 14.34 50.79L14.34 50.23L14.56 50.23L14.56 50.93Q14.56 51.10 14.50 51.22Q14.44 51.34 14.34 51.41Q14.24 51.48 14.13 51.52Q14.01 51.55 13.89 51.56" fill="#ffffff" stroke="#ffffff" stroke-width="0.1045" stroke-linejoin="round"/>
    <path d="M26.31 51.56L26.09 51.56L26.09 50.23L27.01 50.23Q27.01 50.41 26.97 50.54Q26.93 50.68 26.86 50.77Q26.79 50.86 26.71 50.91Q26.62 50.97 26.55 51Q26.47 51.03 26.40 51.04Q26.34 51.05 26.31 51.05L26.31 51.56M26.31 50.42L26.31 50.84Q26.41 50.84 26.50 50.80Q26.59 50.76 26.65 50.70Q26.72 50.63 26.76 50.56Q26.79 50.49 26.79 50.42L26.31 50.42M27.42 51.56L27.20 51.56L27.20 50.23L28.11 50.23Q28.12 50.41 28.08 50.54Q28.04 50.67 27.97 50.76Q27.90 50.85 27.82 50.91L28.18 51.56L27.93 51.56L27.63 51.01Q27.56 51.03 27.50 51.04Q27.45 51.05 27.42 51.05L27.42 51.56M27.42 50.42L27.42 50.84Q27.52 50.84 27.61 50.80Q27.69 50.76 27.76 50.70Q27.83 50.63 27.86 50.56Q27.90 50.49 27.90 50.42L27.42 50.42M29.22 51.56L29.11 51.56Q29 51.56 28.89 51.54Q28.79 51.53 28.68 51.49Q28.58 51.44 28.50 51.37Q28.42 51.30 28.37 51.19Q28.33 51.08 28.33 50.92L28.33 50.23L29.22 50.23L29.22 50.43L28.55 50.43L28.55 50.69L29.09 50.69L29.09 50.88L28.55 50.88Q28.55 51.04 28.59 51.13Q28.64 51.23 28.72 51.28Q28.80 51.33 28.90 51.35Q29 51.36 29.11 51.36L29.22 51.36L29.22 51.56M29.69 51.56L29.47 51.56L29.47 50.23L29.69 50.23Q29.80 50.23 29.90 50.24Q30.01 50.26 30.11 50.30Q30.21 50.34 30.29 50.41Q30.37 50.49 30.42 50.60Q30.47 50.71 30.47 50.87L30.47 50.92Q30.47 51.08 30.42 51.19Q30.38 51.30 30.30 51.37Q30.22 51.44 30.12 51.49Q30.01 51.53 29.91 51.54Q29.80 51.56 29.69 51.56M29.69 50.43L29.69 51.36Q29.79 51.36 29.88 51.34Q29.98 51.33 30.06 51.28Q30.15 51.24 30.20 51.15Q30.25 51.06 30.25 50.92L30.25 50.87Q30.25 50.72 30.20 50.64Q30.15 50.55 30.06 50.51Q29.98 50.46 29.88 50.45Q29.79 50.43 29.69 50.43M31.56 51.56L31.44 51.56Q31.34 51.56 31.23 51.54Q31.12 51.53 31.02 51.49Q30.92 51.44 30.84 51.37Q30.76 51.30 30.71 51.19Q30.66 51.08 30.66 50.92L30.66 50.23L31.56 50.23L31.56 50.43L30.88 50.43L30.88 50.69L31.42 50.69L31.42 50.88L30.88 50.88Q30.88 51.04 30.93 51.13Q30.97 51.23 31.05 51.28Q31.13 51.33 31.23 51.35Q31.33 51.36 31.44 51.36L31.56 51.36L31.56 51.56M32.66 51.56L31.81 51.56L31.81 50.23L32.03 50.23L32.03 51.35L32.66 51.35L32.66 51.56M33.04 51.56L32.82 51.56L32.82 50.23L33.04 50.23Q33.14 50.23 33.25 50.25Q33.35 50.26 33.45 50.30Q33.55 50.34 33.63 50.42Q33.71 50.49 33.76 50.60Q33.80 50.71 33.80 50.87L33.80 51.56L33.58 51.56L33.58 51.12L33.04 51.12L33.04 51.56M33.04 50.42L33.04 50.91L33.58 50.91L33.58 50.87Q33.58 50.72 33.53 50.64Q33.48 50.55 33.40 50.50Q33.32 50.46 33.22 50.44Q33.13 50.42 33.04 50.42M34.21 51.56L34.21 51.35Q34.31 51.35 34.41 51.31Q34.51 51.28 34.57 51.21Q34.64 51.13 34.66 51Q34.54 51 34.42 50.96Q34.30 50.93 34.20 50.86Q34.10 50.79 34.03 50.66Q33.97 50.54 33.97 50.36L33.97 50.23L34.19 50.23L34.19 50.36Q34.19 50.49 34.24 50.57Q34.28 50.65 34.34 50.70Q34.41 50.75 34.50 50.77Q34.58 50.79 34.66 50.79L34.66 50.23L34.88 50.23L34.88 50.93Q34.88 51.10 34.82 51.22Q34.76 51.34 34.66 51.41Q34.57 51.48 34.45 51.52Q34.33 51.55 34.21 51.56" fill="#ffffff" stroke="#ffffff" stroke-width="0.1045" stroke-linejoin="round"/>
    <path d="M8.94 62.40L8.73 62.40Q8.61 62.40 8.49 62.36Q8.37 62.33 8.27 62.26Q8.17 62.18 8.11 62.06Q8.04 61.94 8.04 61.76L8.04 61.07L8.94 61.07L8.94 61.27L8.26 61.27L8.26 61.76Q8.26 61.88 8.31 61.97Q8.35 62.05 8.41 62.10Q8.48 62.15 8.57 62.17Q8.65 62.19 8.73 62.19L8.73 61.84L8.94 61.84L8.94 62.40M9.41 62.40L9.19 62.40L9.19 61.07L9.41 61.07Q9.52 61.07 9.62 61.08Q9.73 61.10 9.83 61.14Q9.93 61.18 10.01 61.26Q10.09 61.33 10.13 61.44Q10.18 61.55 10.18 61.70L10.18 62.40L9.96 62.40L9.96 61.95L9.41 61.95L9.41 62.40M9.41 61.26L9.41 61.74L9.96 61.74L9.96 61.70Q9.96 61.56 9.91 61.47Q9.86 61.39 9.78 61.34Q9.70 61.29 9.60 61.28Q9.50 61.26 9.41 61.26M11.22 62.19L11.22 62.40Q11.11 62.39 10.99 62.36Q10.87 62.32 10.77 62.25Q10.67 62.18 10.61 62.06Q10.55 61.94 10.55 61.76L10.55 61.28L10.37 61.28L10.37 61.07L11.17 61.07L11.17 61.28L10.77 61.28L10.77 61.76Q10.77 61.88 10.81 61.96Q10.85 62.04 10.92 62.09Q10.98 62.14 11.06 62.16Q11.14 62.19 11.22 62.19M12.25 62.40L12.14 62.40Q12.03 62.40 11.93 62.38Q11.82 62.36 11.72 62.32Q11.61 62.28 11.53 62.21Q11.45 62.14 11.41 62.03Q11.36 61.92 11.36 61.76L11.36 61.07L12.25 61.07L12.25 61.27L11.58 61.27L11.58 61.53L12.12 61.53L12.12 61.72L11.58 61.72Q11.58 61.88 11.62 61.97Q11.67 62.07 11.75 62.12Q11.83 62.17 11.93 62.18Q12.03 62.20 12.14 62.20L12.25 62.20" fill="#ffffff" stroke="#ffffff" stroke-width="0.1045" stroke-linejoin="round"/>
    <path d="M27.81 62.40L27.60 62.40Q27.48 62.40 27.36 62.36Q27.24 62.33 27.14 62.26Q27.03 62.18 26.97 62.06Q26.91 61.94 26.91 61.76L26.91 61.07L27.81 61.07L27.81 61.27L27.13 61.27L27.13 61.76Q27.13 61.88 27.17 61.97Q27.21 62.05 27.28 62.10Q27.35 62.15 27.43 62.17Q27.52 62.19 27.60 62.19L27.60 61.84L27.81 61.84L27.81 62.40M28.28 62.40L28.06 62.40L28.06 61.07L28.28 61.07Q28.39 61.07 28.49 61.08Q28.60 61.10 28.70 61.14Q28.80 61.18 28.88 61.26Q28.96 61.33 29 61.44Q29.05 61.55 29.05 61.70L29.05 62.40L28.83 62.40L28.83 61.95L28.28 61.95L28.28 62.40M28.28 61.26L28.28 61.74L28.83 61.74L28.83 61.70Q28.83 61.56 28.78 61.47Q28.73 61.39 28.65 61.34Q28.56 61.29 28.47 61.28Q28.37 61.26 28.28 61.26M30.09 62.19L30.09 62.40Q29.97 62.39 29.85 62.36Q29.74 62.32 29.64 62.25Q29.54 62.18 29.48 62.06Q29.42 61.94 29.42 61.76L29.42 61.28L29.24 61.28L29.24 61.07L30.04 61.07L30.04 61.28L29.64 61.28L29.64 61.76Q29.64 61.88 29.68 61.96Q29.72 62.04 29.78 62.09Q29.85 62.14 29.93 62.16Q30.01 62.19 30.09 62.19M31.12 62.40L31.01 62.40Q30.90 62.40 30.79 62.38Q30.68 62.36 30.58 62.32Q30.48 62.28 30.40 62.21Q30.32 62.14 30.27 62.03Q30.23 61.92 30.23 61.76L30.23 61.07L31.12 61.07L31.12 61.27L30.45 61.27L30.45 61.53L30.99 61.53L30.99 61.72L30.45 61.72Q30.45 61.88 30.49 61.97Q30.54 62.07 30.62 62.12Q30.70 62.17 30.80 62.18Q30.90 62.20 31.01 62.20L31.12 62.20L31.12 62.40M32.86 62.40L32.74 62.40Q32.64 62.40 32.53 62.38Q32.42 62.36 32.32 62.32Q32.22 62.28 32.14 62.21Q32.06 62.14 32.01 62.03Q31.96 61.92 31.96 61.76L31.96 61.07L32.86 61.07L32.86 61.27L32.18 61.27L32.18 61.76Q32.18 61.90 32.23 61.99Q32.29 62.08 32.37 62.12Q32.45 62.16 32.55 62.18Q32.65 62.19 32.74 62.19L32.86 62.19L32.86 62.40M33.31 62.40L33.22 62.40L33.02 61.07L33.24 61.07L33.41 62.18Q33.48 62.17 33.55 62.14Q33.62 62.11 33.68 62.06Q33.74 62.02 33.77 61.94Q33.81 61.87 33.81 61.76L33.81 61.07L34.03 61.07L34.03 61.76Q34.02 61.93 33.96 62.06Q33.90 62.18 33.79 62.25Q33.69 62.33 33.56 62.36Q33.44 62.40 33.31 62.40" fill="#ffffff" stroke="#ffffff" stroke-width="0.1045" stroke-linejoin="round"/>
    <path d="M7.19 73.23L6.97 73.23L6.97 71.90L7.19 71.90Q7.29 71.90 7.40 71.92Q7.51 71.94 7.61 71.98Q7.71 72.02 7.79 72.09Q7.86 72.17 7.91 72.27Q7.96 72.38 7.96 72.54L7.96 73.23L7.73 73.23L7.73 72.79L7.19 72.79L7.19 73.23M7.19 72.10L7.19 72.58L7.73 72.58L7.73 72.54Q7.73 72.40 7.68 72.31Q7.63 72.22 7.55 72.18Q7.47 72.13 7.37 72.11Q7.28 72.10 7.19 72.10M9 73.03L9 73.24Q8.88 73.23 8.76 73.19Q8.64 73.16 8.54 73.09Q8.45 73.01 8.39 72.89Q8.33 72.78 8.33 72.60L8.33 72.11L8.15 72.11L8.15 71.90L8.94 71.90L8.94 72.11L8.55 72.11L8.55 72.60Q8.55 72.72 8.59 72.80Q8.63 72.88 8.69 72.93Q8.76 72.98 8.84 73Q8.92 73.02 9 73.03M9.99 73.03L9.99 73.24Q9.87 73.23 9.75 73.19Q9.63 73.16 9.53 73.09Q9.44 73.01 9.38 72.89Q9.32 72.78 9.32 72.60L9.32 72.11L9.13 72.11L9.13 71.90L9.93 71.90L9.93 72.11L9.54 72.11L9.54 72.60Q9.54 72.72 9.57 72.80Q9.61 72.88 9.68 72.93Q9.74 72.98 9.83 73Q9.91 73.02 9.99 73.03M10.38 73.23L10.16 73.23L10.16 71.90L10.38 71.90Q10.48 71.90 10.59 71.92Q10.70 71.94 10.80 71.98Q10.90 72.02 10.98 72.09Q11.06 72.17 11.10 72.27Q11.15 72.38 11.15 72.54L11.15 73.23L10.93 73.23L10.93 72.79L10.38 72.79L10.38 73.23M10.38 72.10L10.38 72.58L10.93 72.58L10.93 72.54Q10.93 72.40 10.88 72.31Q10.83 72.22 10.74 72.18Q10.66 72.13 10.57 72.11Q10.47 72.10 10.38 72.10M12.23 73.23L12.12 73.23Q12.02 73.23 11.91 73.22Q11.80 73.20 11.70 73.16Q11.60 73.12 11.51 73.05Q11.43 72.97 11.38 72.86Q11.34 72.75 11.34 72.60L11.34 71.90L12.23 71.90L12.23 72.11L11.56 72.11L11.56 72.59Q11.56 72.74 11.61 72.83Q11.66 72.91 11.75 72.96Q11.83 73 11.93 73.02Q12.02 73.03 12.12 73.03L12.23 73.03L12.23 73.23M12.67 73.23L12.45 73.23L12.45 71.90L12.67 71.90L12.67 72.45Q12.78 72.43 12.87 72.38Q12.95 72.32 13.01 72.24Q13.07 72.16 13.10 72.07Q13.13 71.99 13.13 71.90L13.35 71.90Q13.35 72.06 13.28 72.21Q13.20 72.37 13.05 72.49L13.43 73.23L13.18 73.23L12.86 72.60Q12.77 72.65 12.67 72.67" fill="#ffffff" stroke="#ffffff" stroke-width="0.1045" stroke-linejoin="round"/>
    <path d="M26.66 73.23L26.43 73.23L26.43 71.90L26.66 71.90Q26.76 71.90 26.87 71.92Q26.97 71.94 27.07 71.98Q27.17 72.02 27.25 72.09Q27.33 72.17 27.38 72.27Q27.42 72.38 27.42 72.54L27.42 73.23L27.20 73.23L27.20 72.79L26.66 72.79L26.66 73.23M26.66 72.10L26.66 72.58L27.20 72.58L27.20 72.54Q27.20 72.40 27.15 72.31Q27.10 72.22 27.02 72.18Q26.94 72.13 26.84 72.11Q26.75 72.10 26.66 72.10M28.47 73.03L28.47 73.24Q28.35 73.23 28.23 73.19Q28.11 73.16 28.01 73.09Q27.91 73.01 27.86 72.89Q27.80 72.78 27.80 72.60L27.80 72.11L27.61 72.11L27.61 71.90L28.41 71.90L28.41 72.11L28.02 72.11L28.02 72.60Q28.02 72.72 28.05 72.80Q28.09 72.88 28.16 72.93Q28.22 72.98 28.31 73Q28.39 73.02 28.47 73.03M29.46 73.03L29.46 73.24Q29.34 73.23 29.22 73.19Q29.10 73.16 29 73.09Q28.90 73.01 28.84 72.89Q28.78 72.78 28.78 72.60L28.78 72.11L28.60 72.11L28.60 71.90L29.40 71.90L29.40 72.11L29 72.11L29 72.60Q29 72.72 29.04 72.80Q29.08 72.88 29.15 72.93Q29.21 72.98 29.29 73Q29.37 73.02 29.46 73.03M29.85 73.23L29.63 73.23L29.63 71.90L29.85 71.90Q29.95 71.90 30.06 71.92Q30.17 71.94 30.27 71.98Q30.37 72.02 30.44 72.09Q30.52 72.17 30.57 72.27Q30.61 72.38 30.61 72.54L30.61 73.23L30.39 73.23L30.39 72.79L29.85 72.79L29.85 73.23M29.85 72.10L29.85 72.58L30.39 72.58L30.39 72.54Q30.39 72.40 30.34 72.31Q30.29 72.22 30.21 72.18Q30.13 72.13 30.03 72.11Q29.94 72.10 29.85 72.10M31.70 73.23L31.59 73.23Q31.49 73.23 31.38 73.22Q31.27 73.20 31.16 73.16Q31.06 73.12 30.98 73.05Q30.90 72.97 30.85 72.86Q30.80 72.75 30.80 72.60L30.80 71.90L31.70 71.90L31.70 72.11L31.03 72.11L31.03 72.59Q31.03 72.74 31.08 72.83Q31.13 72.91 31.21 72.96Q31.30 73 31.39 73.02Q31.49 73.03 31.59 73.03L31.70 73.03L31.70 73.23M32.14 73.23L31.92 73.23L31.92 71.90L32.14 71.90L32.14 72.45Q32.25 72.43 32.34 72.38Q32.42 72.32 32.48 72.24Q32.54 72.16 32.57 72.07Q32.60 71.99 32.60 71.90L32.82 71.90Q32.82 72.06 32.74 72.21Q32.67 72.37 32.52 72.49L32.90 73.23L32.65 73.23L32.33 72.60Q32.24 72.65 32.14 72.67L32.14 73.23M34.57 73.23L34.46 73.23Q34.36 73.23 34.25 73.22Q34.14 73.20 34.04 73.16Q33.93 73.12 33.85 73.05Q33.77 72.97 33.72 72.86Q33.68 72.75 33.68 72.60L33.68 71.90L34.57 71.90L34.57 72.11L33.90 72.11L33.90 72.59Q33.90 72.74 33.95 72.83Q34 72.91 34.08 72.96Q34.17 73 34.27 73.02Q34.36 73.03 34.46 73.03L34.57 73.03" fill="#ffffff" stroke="#ffffff" stroke-width="0.1045" stroke-linejoin="round"/>
    <path d="M7.65 84.07L7.43 84.07L7.43 82.74L7.65 82.74Q7.75 82.74 7.86 82.76Q7.97 82.77 8.07 82.81Q8.17 82.85 8.25 82.93Q8.33 83 8.38 83.11Q8.43 83.22 8.43 83.38L8.43 83.43Q8.43 83.59 8.38 83.70Q8.33 83.81 8.25 83.88Q8.17 83.96 8.07 84Q7.97 84.04 7.86 84.05Q7.75 84.07 7.65 84.07M7.65 82.95L7.65 83.87Q7.74 83.87 7.84 83.85Q7.94 83.84 8.02 83.80Q8.10 83.75 8.15 83.66Q8.20 83.58 8.20 83.43L8.20 83.38Q8.20 83.23 8.15 83.15Q8.10 83.06 8.02 83.02Q7.94 82.97 7.84 82.96Q7.74 82.95 7.65 82.95M9.51 84.07L9.40 84.07Q9.29 84.07 9.18 84.05Q9.08 84.04 8.97 84Q8.87 83.96 8.79 83.88Q8.71 83.81 8.66 83.70Q8.62 83.59 8.62 83.43L8.62 82.74L9.51 82.74L9.51 82.94L8.84 82.94L8.84 83.20L9.38 83.20L9.38 83.40L8.84 83.40Q8.84 83.55 8.88 83.65Q8.93 83.74 9.01 83.79Q9.09 83.84 9.19 83.86Q9.29 83.88 9.40 83.88L9.51 83.88L9.51 84.07M10.62 84.07L10.51 84.07Q10.41 84.07 10.30 84.05Q10.19 84.04 10.08 84Q9.98 83.96 9.90 83.88Q9.82 83.81 9.77 83.70Q9.72 83.59 9.72 83.43L9.72 82.74L10.62 82.74L10.62 82.95L9.95 82.95L9.95 83.43Q9.95 83.58 10 83.66Q10.05 83.75 10.13 83.80Q10.22 83.84 10.31 83.85Q10.41 83.87 10.51 83.87L10.62 83.87L10.62 84.07M11.06 84.07L10.84 84.07L10.84 82.74L11.06 82.74Q11.17 82.74 11.27 82.76Q11.38 82.77 11.48 82.82Q11.58 82.86 11.66 82.93Q11.74 83 11.78 83.11Q11.83 83.22 11.83 83.38L11.83 84.07L11.61 84.07L11.61 83.63L11.06 83.63L11.06 84.07M11.06 82.93L11.06 83.42L11.61 83.42L11.61 83.38Q11.61 83.24 11.56 83.15Q11.51 83.06 11.43 83.02Q11.34 82.97 11.25 82.95Q11.15 82.93 11.06 82.93M12.24 84.07L12.24 83.87Q12.34 83.86 12.43 83.82Q12.53 83.79 12.60 83.72Q12.67 83.64 12.69 83.51Q12.56 83.51 12.44 83.48Q12.32 83.44 12.22 83.37Q12.12 83.30 12.06 83.17Q12 83.05 12 82.87L12 82.74L12.22 82.74L12.22 82.87Q12.22 83 12.26 83.08Q12.30 83.16 12.37 83.21Q12.44 83.26 12.52 83.28Q12.60 83.30 12.69 83.31L12.69 82.74L12.91 82.74L12.91 83.44Q12.90 83.61 12.84 83.73Q12.78 83.85 12.69 83.92Q12.59 84 12.47 84.03Q12.36 84.06 12.24 84.07" fill="#ffffff" stroke="#ffffff" stroke-width="0.1045" stroke-linejoin="round"/>
    <path d="M26.52 84.07L26.30 84.07L26.30 82.74L26.52 82.74Q26.62 82.74 26.73 82.76Q26.84 82.77 26.94 82.81Q27.04 82.85 27.12 82.93Q27.20 83 27.25 83.11Q27.29 83.22 27.30 83.38L27.30 83.43Q27.30 83.59 27.25 83.70Q27.20 83.81 27.12 83.88Q27.04 83.96 26.94 84Q26.84 84.04 26.73 84.05Q26.62 84.07 26.52 84.07M26.52 82.95L26.52 83.87Q26.61 83.87 26.71 83.85Q26.80 83.84 26.89 83.80Q26.97 83.75 27.02 83.66Q27.07 83.58 27.07 83.43L27.07 83.38Q27.07 83.23 27.02 83.15Q26.97 83.06 26.89 83.02Q26.80 82.97 26.71 82.96Q26.61 82.95 26.52 82.95M28.38 84.07L28.27 84.07Q28.16 84.07 28.05 84.05Q27.94 84.04 27.84 84Q27.74 83.96 27.66 83.88Q27.58 83.81 27.53 83.70Q27.49 83.59 27.49 83.43L27.49 82.74L28.38 82.74L28.38 82.94L27.71 82.94L27.71 83.20L28.25 83.20L28.25 83.40L27.71 83.40Q27.71 83.55 27.75 83.65Q27.80 83.74 27.88 83.79Q27.95 83.84 28.06 83.86Q28.16 83.88 28.27 83.88L28.38 83.88L28.38 84.07M29.49 84.07L29.37 84.07Q29.27 84.07 29.16 84.05Q29.05 84.04 28.95 84Q28.85 83.96 28.77 83.88Q28.69 83.81 28.64 83.70Q28.59 83.59 28.59 83.43L28.59 82.74L29.49 82.74L29.49 82.95L28.81 82.95L28.81 83.43Q28.81 83.58 28.87 83.66Q28.92 83.75 29 83.80Q29.09 83.84 29.18 83.85Q29.28 83.87 29.37 83.87L29.49 83.87L29.49 84.07M29.93 84.07L29.71 84.07L29.71 82.74L29.93 82.74Q30.03 82.74 30.14 82.76Q30.25 82.77 30.35 82.82Q30.45 82.86 30.53 82.93Q30.61 83 30.65 83.11Q30.70 83.22 30.70 83.38L30.70 84.07L30.48 84.07L30.48 83.63L29.93 83.63L29.93 84.07M29.93 82.93L29.93 83.42L30.48 83.42L30.48 83.38Q30.48 83.24 30.43 83.15Q30.38 83.06 30.29 83.02Q30.21 82.97 30.12 82.95Q30.02 82.93 29.93 82.93M31.11 84.07L31.11 83.87Q31.21 83.86 31.30 83.82Q31.40 83.79 31.47 83.72Q31.54 83.64 31.55 83.51Q31.43 83.51 31.31 83.48Q31.19 83.44 31.09 83.37Q30.99 83.30 30.93 83.17Q30.87 83.05 30.87 82.87L30.87 82.74L31.09 82.74L31.09 82.87Q31.09 83 31.13 83.08Q31.17 83.16 31.24 83.21Q31.31 83.26 31.39 83.28Q31.47 83.30 31.56 83.31L31.56 82.74L31.78 82.74L31.78 83.44Q31.77 83.61 31.71 83.73Q31.65 83.85 31.56 83.92Q31.46 84 31.34 84.03Q31.22 84.06 31.11 84.07M33.51 84.07L33.40 84.07Q33.30 84.07 33.19 84.05Q33.08 84.04 32.98 84Q32.87 83.96 32.79 83.88Q32.71 83.81 32.66 83.70Q32.62 83.59 32.62 83.43L32.62 82.74L33.51 82.74L33.51 82.95L32.84 82.95L32.84 83.43Q32.84 83.58 32.89 83.66Q32.94 83.75 33.02 83.80Q33.11 83.84 33.21 83.85Q33.30 83.87 33.40 83.87L33.51 83.87L33.51 84.07M33.96 84.07L33.87 84.07L33.67 82.74L33.90 82.74L34.06 83.85Q34.14 83.84 34.21 83.82Q34.28 83.79 34.34 83.74Q34.39 83.69 34.43 83.62Q34.46 83.54 34.46 83.43L34.46 82.74L34.68 82.74L34.68 83.43Q34.68 83.61 34.62 83.73Q34.55 83.85 34.45 83.93Q34.34 84 34.22 84.04Q34.09 84.07 33.96 84.07" fill="#ffffff" stroke="#ffffff" stroke-width="0.1045" stroke-linejoin="round"/>
    <path d="M7.77 94.91L7.55 94.91L7.55 93.58L7.77 93.58Q7.87 93.58 7.98 93.59Q8.09 93.61 8.19 93.65Q8.29 93.69 8.37 93.76Q8.45 93.84 8.49 93.95Q8.54 94.06 8.54 94.21L8.54 94.27Q8.54 94.43 8.50 94.54Q8.45 94.65 8.37 94.72Q8.29 94.79 8.19 94.83Q8.09 94.88 7.98 94.89Q7.87 94.91 7.77 94.91M7.77 93.78L7.77 94.70Q7.86 94.70 7.96 94.69Q8.05 94.68 8.14 94.63Q8.22 94.59 8.27 94.50Q8.32 94.41 8.32 94.27L8.32 94.22Q8.32 94.07 8.27 93.99Q8.22 93.90 8.14 93.86Q8.05 93.81 7.96 93.80Q7.86 93.78 7.77 93.78M8.99 94.91L8.77 94.91L8.77 93.58L8.99 93.58Q9.10 93.58 9.21 93.60Q9.31 93.61 9.41 93.65Q9.51 93.69 9.59 93.77Q9.67 93.84 9.72 93.95Q9.76 94.06 9.76 94.21L9.76 94.91L9.54 94.91L9.54 94.47L8.99 94.47L8.99 94.91M8.99 93.77L8.99 94.26L9.54 94.26L9.54 94.22Q9.54 94.07 9.49 93.99Q9.44 93.90 9.36 93.85Q9.28 93.81 9.18 93.79Q9.08 93.77 8.99 93.77M10.95 94.91L10.74 94.91L10.74 94.23Q10.74 94.09 10.69 94Q10.64 93.92 10.57 93.87Q10.49 93.82 10.39 93.79Q10.30 93.77 10.21 93.77L10.21 94.91L9.99 94.91L9.99 93.58L10.17 93.58Q10.32 93.58 10.47 93.61Q10.62 93.65 10.74 93.74L10.74 93.58L10.93 93.58Q11.03 93.58 11.14 93.59Q11.25 93.61 11.35 93.65Q11.45 93.69 11.53 93.76Q11.61 93.84 11.66 93.95Q11.71 94.06 11.71 94.21L11.71 94.91L11.49 94.91L11.49 94.22Q11.49 94.08 11.44 93.99Q11.39 93.90 11.31 93.85Q11.23 93.81 11.14 93.79Q11.05 93.77 10.95 93.77L10.95 94.91M12.16 94.91L11.93 94.91L11.93 93.58L12.85 93.58Q12.86 93.76 12.82 93.89Q12.77 94.02 12.70 94.11Q12.63 94.20 12.55 94.26Q12.47 94.32 12.39 94.35Q12.31 94.38 12.24 94.39Q12.18 94.40 12.16 94.40L12.16 94.91M12.16 93.77L12.16 94.19Q12.26 94.19 12.34 94.15Q12.43 94.11 12.50 94.05Q12.56 93.98 12.60 93.91Q12.64 93.84 12.64 93.77" fill="#ffffff" stroke="#ffffff" stroke-width="0.1045" stroke-linejoin="round"/>
    <path d="M26.63 94.91L26.41 94.91L26.41 93.58L26.63 93.58Q26.74 93.58 26.85 93.59Q26.95 93.61 27.05 93.65Q27.15 93.69 27.23 93.76Q27.31 93.84 27.36 93.95Q27.41 94.06 27.41 94.21L27.41 94.27Q27.41 94.43 27.37 94.54Q27.32 94.65 27.24 94.72Q27.16 94.79 27.06 94.83Q26.96 94.88 26.85 94.89Q26.74 94.91 26.63 94.91M26.63 93.78L26.63 94.70Q26.73 94.70 26.82 94.69Q26.92 94.68 27 94.63Q27.09 94.59 27.14 94.50Q27.19 94.41 27.19 94.27L27.19 94.22Q27.19 94.07 27.14 93.99Q27.09 93.90 27 93.86Q26.92 93.81 26.82 93.80Q26.73 93.78 26.63 93.78M27.86 94.91L27.64 94.91L27.64 93.58L27.86 93.58Q27.97 93.58 28.07 93.60Q28.18 93.61 28.28 93.65Q28.38 93.69 28.46 93.77Q28.54 93.84 28.58 93.95Q28.63 94.06 28.63 94.21L28.63 94.91L28.41 94.91L28.41 94.47L27.86 94.47L27.86 94.91M27.86 93.77L27.86 94.26L28.41 94.26L28.41 94.22Q28.41 94.07 28.36 93.99Q28.31 93.90 28.23 93.85Q28.14 93.81 28.05 93.79Q27.95 93.77 27.86 93.77M29.82 94.91L29.61 94.91L29.61 94.23Q29.61 94.09 29.56 94Q29.51 93.92 29.43 93.87Q29.36 93.82 29.26 93.79Q29.17 93.77 29.08 93.77L29.08 94.91L28.86 94.91L28.86 93.58L29.04 93.58Q29.19 93.58 29.34 93.61Q29.49 93.65 29.61 93.74L29.61 93.58L29.79 93.58Q29.90 93.58 30.01 93.59Q30.12 93.61 30.22 93.65Q30.32 93.69 30.40 93.76Q30.48 93.84 30.53 93.95Q30.57 94.06 30.57 94.21L30.57 94.91L30.35 94.91L30.35 94.22Q30.35 94.08 30.31 93.99Q30.26 93.90 30.18 93.85Q30.10 93.81 30.01 93.79Q29.91 93.77 29.82 93.77L29.82 94.91M31.02 94.91L30.80 94.91L30.80 93.58L31.72 93.58Q31.72 93.76 31.68 93.89Q31.64 94.02 31.57 94.11Q31.50 94.20 31.42 94.26Q31.33 94.32 31.26 94.35Q31.18 94.38 31.11 94.39Q31.05 94.40 31.02 94.40L31.02 94.91M31.02 93.77L31.02 94.19Q31.12 94.19 31.21 94.15Q31.30 94.11 31.36 94.05Q31.43 93.98 31.47 93.91Q31.50 93.84 31.50 93.77L31.02 93.77M33.39 94.91L33.28 94.91Q33.18 94.91 33.07 94.89Q32.96 94.88 32.86 94.83Q32.76 94.79 32.67 94.72Q32.59 94.65 32.55 94.54Q32.50 94.43 32.50 94.27L32.50 93.58L33.39 93.58L33.39 93.79L32.72 93.79L32.72 94.27Q32.72 94.41 32.77 94.50Q32.82 94.59 32.91 94.63Q32.99 94.68 33.09 94.69Q33.19 94.70 33.28 94.70L33.39 94.70L33.39 94.91M33.85 94.91L33.75 94.91L33.56 93.58L33.78 93.58L33.95 94.69Q34.02 94.68 34.09 94.65Q34.16 94.62 34.22 94.58Q34.27 94.53 34.31 94.45Q34.34 94.38 34.34 94.27L34.34 93.58L34.56 93.58L34.56 94.27Q34.56 94.45 34.50 94.57Q34.43 94.69 34.33 94.76Q34.23 94.84 34.10 94.87Q33.97 94.91 33.85 94.91" fill="#ffffff" stroke="#ffffff" stroke-width="0.1045" stroke-linejoin="round"/>
    <path d="M7.87 105.75L7.01 105.75L7.01 104.42L7.23 104.42L7.23 105.54L7.87 105.54L7.87 105.75M8.82 105.75L8.70 105.75Q8.60 105.75 8.49 105.73Q8.38 105.71 8.28 105.67Q8.18 105.63 8.10 105.56Q8.02 105.49 7.97 105.38Q7.92 105.27 7.92 105.11L7.92 104.42L8.82 104.42L8.82 104.62L8.14 104.62L8.14 104.88L8.68 104.88L8.68 105.07L8.14 105.07Q8.14 105.22 8.19 105.32Q8.23 105.42 8.31 105.47Q8.39 105.52 8.49 105.53Q8.59 105.55 8.70 105.55L8.82 105.55L8.82 105.75M9.29 105.75L9.07 105.75L9.07 104.42L9.28 104.42Q9.38 104.42 9.49 104.43Q9.60 104.45 9.70 104.49Q9.80 104.53 9.88 104.60Q9.96 104.67 10.01 104.78Q10.06 104.89 10.06 105.05L10.06 105.75L9.84 105.75L9.84 105.05Q9.84 104.91 9.79 104.82Q9.74 104.73 9.66 104.69Q9.57 104.64 9.48 104.63Q9.38 104.61 9.29 104.61L9.29 105.75M11.15 105.75L10.94 105.75Q10.81 105.75 10.69 105.71Q10.57 105.68 10.47 105.61Q10.37 105.53 10.31 105.41Q10.25 105.29 10.25 105.11L10.25 104.42L11.14 104.42L11.14 104.62L10.47 104.62L10.47 105.11Q10.47 105.23 10.51 105.32Q10.55 105.40 10.62 105.45Q10.69 105.49 10.77 105.52Q10.85 105.54 10.94 105.54L10.94 105.19L11.15 105.19L11.15 105.75M12.21 105.54L12.21 105.75Q12.09 105.74 11.97 105.71Q11.85 105.67 11.76 105.60Q11.66 105.52 11.60 105.41Q11.54 105.29 11.54 105.11L11.54 104.63L11.36 104.63L11.36 104.42L12.15 104.42L12.15 104.63L11.76 104.63L11.76 105.11Q11.76 105.23 11.80 105.31Q11.84 105.39 11.90 105.44Q11.97 105.49 12.05 105.51Q12.13 105.53 12.21 105.54M12.60 105.75L12.38 105.75L12.38 104.42L12.60 104.42L12.60 104.96L13.09 104.96L13.09 104.42L13.31 104.42L13.31 105.75L13.09 105.75L13.09 105.17L12.60 105.17" fill="#ffffff" stroke="#ffffff" stroke-width="0.1045" stroke-linejoin="round"/>
    <path d="M17.79 116.58L16.93 116.58L16.93 115.25L17.15 115.25L17.15 116.37L17.79 116.37L17.79 116.58M18.46 116.59Q18.34 116.59 18.24 116.55Q18.14 116.50 18.06 116.41Q17.98 116.33 17.94 116.22Q17.90 116.11 17.90 115.98L17.90 115.85Q17.90 115.73 17.94 115.62Q17.98 115.51 18.06 115.42Q18.14 115.34 18.24 115.29Q18.34 115.24 18.46 115.24Q18.58 115.24 18.68 115.29Q18.79 115.34 18.86 115.42Q18.94 115.51 18.98 115.62Q19.02 115.73 19.02 115.85L19.02 115.98Q19.02 116.11 18.98 116.22Q18.94 116.33 18.86 116.41Q18.79 116.50 18.68 116.55Q18.58 116.59 18.46 116.59M18.46 116.38Q18.57 116.38 18.64 116.33Q18.72 116.28 18.76 116.19Q18.80 116.09 18.80 115.98L18.80 115.85Q18.80 115.67 18.71 115.56Q18.62 115.45 18.46 115.45Q18.30 115.45 18.22 115.56Q18.13 115.67 18.13 115.85L18.13 115.98Q18.13 116.09 18.17 116.19Q18.21 116.28 18.28 116.33Q18.36 116.38 18.46 116.38M19.47 116.58L19.25 116.58L19.25 115.25L19.47 115.25Q19.58 115.25 19.68 115.27Q19.79 115.29 19.89 115.33Q19.99 115.37 20.07 115.44Q20.15 115.51 20.19 115.62Q20.24 115.73 20.24 115.89L20.24 116.58L20.02 116.58L20.02 116.14L19.47 116.14L19.47 116.58M19.47 115.45L19.47 115.93L20.02 115.93L20.02 115.89Q20.02 115.75 19.97 115.66Q19.92 115.57 19.84 115.53Q19.76 115.48 19.66 115.46Q19.56 115.45 19.47 115.45M20.69 116.58L20.47 116.58L20.47 115.25L20.69 115.25Q20.79 115.25 20.90 115.27Q21.01 115.28 21.11 115.33Q21.21 115.37 21.29 115.44Q21.37 115.51 21.42 115.62Q21.47 115.73 21.47 115.89L21.47 115.95Q21.47 116.10 21.42 116.21Q21.37 116.32 21.29 116.40Q21.21 116.47 21.11 116.51Q21.01 116.55 20.90 116.57Q20.79 116.58 20.69 116.58M20.69 115.46L20.69 116.38Q20.78 116.38 20.88 116.37Q20.98 116.35 21.06 116.31Q21.14 116.26 21.19 116.18Q21.25 116.09 21.25 115.94L21.25 115.89Q21.25 115.75 21.19 115.66Q21.14 115.57 21.06 115.53Q20.98 115.49 20.88 115.47Q20.78 115.46 20.69 115.46M22.54 116.58L22.32 116.58L22.32 115.25L22.54 115.25L22.54 116.58M23.03 116.58L22.81 116.58L22.81 115.25L23.72 115.25Q23.73 115.43 23.69 115.56Q23.65 115.70 23.58 115.79Q23.51 115.88 23.43 115.93L23.79 116.58L23.54 116.58L23.24 116.03Q23.17 116.06 23.11 116.07Q23.06 116.08 23.03 116.08L23.03 116.58M23.03 115.45L23.03 115.86Q23.13 115.86 23.22 115.82Q23.30 115.78 23.37 115.72Q23.44 115.66 23.47 115.59Q23.51 115.51 23.51 115.45" fill="#ffffff" stroke="#ffffff" stroke-width="0.1045" stroke-linejoin="round"/>
    <path d="M8.22 127.43Q8.10 127.43 8 127.38Q7.90 127.34 7.82 127.25Q7.75 127.17 7.70 127.06Q7.66 126.94 7.66 126.82L7.66 126.69Q7.66 126.56 7.70 126.45Q7.75 126.34 7.82 126.26Q7.90 126.17 8 126.13Q8.10 126.08 8.22 126.08Q8.34 126.08 8.44 126.13Q8.55 126.17 8.62 126.26Q8.70 126.34 8.74 126.45Q8.78 126.56 8.78 126.69L8.78 126.82Q8.78 126.94 8.74 127.06Q8.70 127.17 8.62 127.25Q8.55 127.34 8.44 127.38Q8.34 127.43 8.22 127.43M8.22 127.22Q8.33 127.22 8.40 127.17Q8.48 127.11 8.52 127.02Q8.56 126.93 8.56 126.82L8.56 126.69Q8.56 126.51 8.47 126.40Q8.38 126.29 8.22 126.29Q8.06 126.29 7.98 126.40Q7.89 126.51 7.89 126.69L7.89 126.82Q7.89 126.93 7.93 127.02Q7.97 127.11 8.04 127.17Q8.12 127.22 8.22 127.22M9.96 126.09L9.96 127.42L9.76 127.42Q9.65 127.42 9.54 127.40Q9.43 127.39 9.33 127.35Q9.23 127.31 9.15 127.23Q9.07 127.16 9.02 127.05Q8.97 126.94 8.97 126.78L8.97 126.09L9.19 126.09L9.19 126.78Q9.19 126.92 9.25 127.01Q9.30 127.10 9.38 127.15Q9.46 127.19 9.55 127.21Q9.65 127.23 9.74 127.23L9.74 126.09L9.96 126.09M11.05 127.21L11.05 127.42Q10.93 127.41 10.81 127.38Q10.69 127.35 10.59 127.27Q10.49 127.20 10.43 127.08Q10.37 126.96 10.37 126.79L10.37 126.30L10.19 126.30L10.19 126.09L10.99 126.09L10.99 126.30L10.59 126.30L10.59 126.79Q10.59 126.91 10.63 126.99Q10.67 127.07 10.74 127.12Q10.80 127.16 10.88 127.19Q10.96 127.21 11.05 127.21M12.70 127.42L11.84 127.42L11.84 126.09L12.07 126.09L12.07 127.21L12.70 127.21" fill="#ffffff" stroke="#ffffff" stroke-width="0.1045" stroke-linejoin="round"/>
    <path d="M28.48 127.43Q28.36 127.43 28.26 127.38Q28.16 127.34 28.08 127.25Q28 127.17 27.96 127.06Q27.92 126.94 27.92 126.82L27.92 126.69Q27.92 126.56 27.96 126.45Q28 126.34 28.08 126.26Q28.16 126.17 28.26 126.13Q28.36 126.08 28.48 126.08Q28.60 126.08 28.70 126.13Q28.81 126.17 28.88 126.26Q28.96 126.34 29 126.45Q29.04 126.56 29.04 126.69L29.04 126.82Q29.04 126.94 29 127.06Q28.96 127.17 28.88 127.25Q28.81 127.34 28.70 127.38Q28.60 127.43 28.48 127.43M28.48 127.22Q28.59 127.22 28.66 127.17Q28.74 127.11 28.78 127.02Q28.82 126.93 28.82 126.82L28.82 126.69Q28.82 126.51 28.73 126.40Q28.64 126.29 28.48 126.29Q28.32 126.29 28.24 126.40Q28.15 126.51 28.15 126.69L28.15 126.82Q28.15 126.93 28.19 127.02Q28.23 127.11 28.30 127.17Q28.38 127.22 28.48 127.22M30.22 126.09L30.22 127.42L30.01 127.42Q29.91 127.42 29.80 127.40Q29.69 127.39 29.59 127.35Q29.49 127.31 29.41 127.23Q29.33 127.16 29.28 127.05Q29.23 126.94 29.23 126.78L29.23 126.09L29.45 126.09L29.45 126.78Q29.45 126.92 29.50 127.01Q29.55 127.10 29.64 127.15Q29.72 127.19 29.81 127.21Q29.91 127.23 30 127.23L30 126.09L30.22 126.09M31.30 127.21L31.30 127.42Q31.18 127.41 31.07 127.38Q30.95 127.35 30.85 127.27Q30.75 127.20 30.69 127.08Q30.63 126.96 30.63 126.79L30.63 126.30L30.45 126.30L30.45 126.09L31.25 126.09L31.25 126.30L30.85 126.30L30.85 126.79Q30.85 126.91 30.89 126.99Q30.93 127.07 31 127.12Q31.06 127.16 31.14 127.19Q31.22 127.21 31.30 127.21M32.33 127.42L32.10 127.42L32.10 126.09L33.02 126.09Q33.02 126.27 32.98 126.40Q32.94 126.53 32.87 126.62Q32.81 126.71 32.73 126.77L33.08 127.42L32.83 127.42L32.53 126.87Q32.46 126.90 32.41 126.90Q32.35 126.91 32.33 126.91L32.33 127.42M32.32 126.29L32.32 126.70Q32.42 126.70 32.51 126.66Q32.60 126.62 32.66 126.56Q32.73 126.49 32.77 126.42Q32.80 126.35 32.80 126.29" fill="#ffffff" stroke="#ffffff" stroke-width="0.1045" stroke-linejoin="round"/>
  </g>
</svg>
