<svg xmlns="http://www.w3.org/2000/svg" xmlns:inkscape="http://www.inkscape.org/namespaces/inkscape" xmlns:sodipodi="http://sodipodi.sourceforge.net/DTD/sodipodi-0.dtd" viewBox="0 0 20.32 128.5" width="20.32mm" height="128.5mm">
  <g inkscape:groupmode="layer" id="layer-background" inkscape:label="Background">
    <rect x="0.3" y="0.3" width="19.72" height="127.9" fill="none" stroke="#333" stroke-width="1.5"/>
    <rect x="0" y="0.000" width="20.32" height="1.295" fill="#303031"/>
    <rect x="0" y="1.285" width="20.32" height="1.295" fill="#303031"/>
    <rect x="0" y="2.570" width="20.32" height="1.295" fill="#2f2f30"/>
    <rect x="0" y="3.855" width="20.32" height="1.295" fill="#2f2f30"/>
    <rect x="0" y="5.140" width="20.32" height="1.295" fill="#2e2e2f"/>
    <rect x="0" y="6.425" width="20.32" height="1.295" fill="#2e2e2f"/>
    <rect x="0" y="7.710" width="20.32" height="1.295" fill="#2e2e2f"/>
    <rect x="0" y="8.995" width="20.32" height="1.295" fill="#2d2d2e"/>
    <rect x="0" y="10.280" width="20.32" height="1.295" fill="#2d2d2e"/>
    <rect x="0" y="11.565" width="20.32" height="1.295" fill="#2c2c2d"/>
    <rect x="0" y="12.850" width="20.32" height="1.295" fill="#2c2c2d"/>
    <rect x="0" y="14.135" width="20.32" height="1.295" fill="#2c2c2d"/>
    <rect x="0" y="15.420" width="20.32" height="1.295" fill="#2b2b2c"/>
    <rect x="0" y="16.705" width="20.32" height="1.295" fill="#2b2b2c"/>
    <rect x="0" y="17.990" width="20.32" height="1.295" fill="#2a2a2b"/>
    <rect x="0" y="19.275" width="20.32" height="1.295" fill="#2a2a2b"/>
    <rect x="0" y="20.560" width="20.32" height="1.295" fill="#2a2a2b"/>
    <rect x="0" y="21.845" width="20.32" height="1.295" fill="#29292a"/>
    <rect x="0" y="23.130" width="20.32" height="1.295" fill="#29292a"/>
    <rect x="0" y="24.415" width="20.32" height="1.295" fill="#29292a"/>
    <rect x="0" y="25.700" width="20.32" height="1.295" fill="#282829"/>
    <rect x="0" y="26.985" width="20.32" height="1.295" fill="#282829"/>
    <rect x="0" y="28.270" width="20.32" height="1.295" fill="#272728"/>
    <rect x="0" y="29.555" width="20.32" height="1.295" fill="#272728"/>
    <rect x="0" y="30.840" width="20.32" height="1.295" fill="#272728"/>
    <rect x="0" y="32.125" width="20.32" height="1.295" fill="#262627"/>
    <rect x="0" y="33.410" width="20.32" height="1.295" fill="#262627"/>
    <rect x="0" y="34.695" width="20.32" height="1.295" fill="#252526"/>
    <rect x="0" y="35.980" width="20.32" height="1.295" fill="#252526"/>
    <rect x="0" y="37.265" width="20.32" height="1.295" fill="#252526"/>
    <rect x="0" y="38.550" width="20.32" height="1.295" fill="#242425"/>
    <rect x="0" y="39.835" width="20.32" height="1.295" fill="#242425"/>
    <rect x="0" y="41.120" width="20.32" height="1.295" fill="#232324"/>
    <rect x="0" y="42.405" width="20.32" height="1.295" fill="#232324"/>
    <rect x="0" y="43.690" width="20.32" height="1.295" fill="#232324"/>
    <rect x="0" y="44.975" width="20.32" height="1.295" fill="#232324"/>
    <rect x="0" y="46.260" width="20.32" height="1.295" fill="#232324"/>
    <rect x="0" y="47.545" width="20.32" height="1.295" fill="#232324"/>
    <rect x="0" y="48.830" width="20.32" height="1.295" fill="#232324"/>
    <rect x="0" y="50.115" width="20.32" height="1.295" fill="#232324"/>
    <rect x="0" y="51.400" width="20.32" height="1.295" fill="#232324"/>
    <rect x="0" y="52.685" width="20.32" height="1.295" fill="#232324"/>
    <rect x="0" y="53.970" width="20.32" height="1.295" fill="#232324"/>
    <rect x="0" y="55.255" width="20.32" height="1.295" fill="#232324"/>
    <rect x="0" y="56.540" width="20.32" height="1.295" fill="#232324"/>
    <rect x="0" y="57.825" width="20.32" height="1.295" fill="#232324"/>
    <rect x="0" y="59.110" width="20.32" height="1.295" fill="#232324"/>
    <rect x="0" y="60.395" width="20.32" height="1.295" fill="#232324"/>
    <rect x="0" y="61.680" width="20.32" height="1.295" fill="#232324"/>
    <rect x="0" y="62.965" width="20.32" height="1.295" fill="#232324"/>
    <rect x="0" y="64.250" width="20.32" height="1.295" fill="#232324"/>
    <rect x="0" y="65.535" width="20.32" height="1.295" fill="#232324"/>
    <rect x="0" y="66.820" width="20.32" height="1.295" fill="#232324"/>
    <rect x="0" y="68.105" width="20.32" height="1.295" fill="#232324"/>
    <rect x="0" y="69.390" width="20.32" height="1.295" fill="#232324"/>
    <rect x="0" y="70.675" width="20.32" height="1.295" fill="#232324"/>
    <rect x="0" y="71.960" width="20.32" height="1.295" fill="#232324"/>
    <rect x="0" y="73.245" width="20.32" height="1.295" fill="#232324"/>
    <rect x="0" y="74.530" width="20.32" height="1.295" fill="#232324"/>
    <rect x="0" y="75.815" width="20.32" height="1.295" fill="#232324"/>
    <rect x="0" y="77.100" width="20.32" height="1.295" fill="#232324"/>
    <rect x="0" y="78.385" width="20.32" height="1.295" fill="#232324"/>
    <rect x="0" y="79.670" width="20.32" height="1.295" fill="#232324"/>
    <rect x="0" y="80.955" width="20.32" height="1.295" fill="#232324"/>
    <rect x="0" y="82.240" width="20.32" height="1.295" fill="#232324"/>
    <rect x="0" y="83.525" width="20.32" height="1.295" fill="#232324"/>
    <rect x="0" y="84.810" width="20.32" height="1.295" fill="#232324"/>
    <rect x="0" y="86.095" width="20.32" height="1.295" fill="#232324"/>
    <rect x="0" y="87.380" width="20.32" height="1.295" fill="#232324"/>
    <rect x="0" y="88.665" width="20.32" height="1.295" fill="#232324"/>
    <rect x="0" y="89.950" width="20.32" height="1.295" fill="#232324"/>
    <rect x="0" y="91.235" width="20.32" height="1.295" fill="#232324"/>
    <rect x="0" y="92.520" width="20.32" height="1.295" fill="#232324"/>
    <rect x="0" y="93.805" width="20.32" height="1.295" fill="#232324"/>
    <rect x="0" y="95.090" width="20.32" height="1.295" fill="#232324"/>
    <rect x="0" y="96.375" width="20.32" height="1.295" fill="#232324"/>
    <rect x="0" y="97.660" width="20.32" height="1.295" fill="#232324"/>
    <rect x="0" y="98.945" width="20.32" height="1.295" fill="#232324"/>
    <rect x="0" y="100.230" width="20.32" height="1.295" fill="#232324"/>
    <rect x="0" y="101.515" width="20.32" height="1.295" fill="#232324"/>
    <rect x="0" y="102.800" width="20.32" height="1.295" fill="#232324"/>
    <rect x="0" y="104.085" width="20.32" height="1.295" fill="#232324"/>
    <rect x="0" y="105.370" width="20.32" height="1.295" fill="#232324"/>
    <rect x="0" y="106.655" width="20.32" height="1.295" fill="#232324"/>
    <rect x="0" y="107.940" width="20.32" height="1.295" fill="#232324"/>
    <rect x="0" y="109.225" width="20.32" height="1.295" fill="#232324"/>
    <rect x="0" y="110.510" width="20.32" height="1.295" fill="#232324"/>
    <rect x="0" y="111.795" width="20.32" height="1.295" fill="#232324"/>
    <rect x="0" y="113.080" width="20.32" height="1.295" fill="#232324"/>
    <rect x="0" y="114.365" width="20.32" height="1.295" fill="#232324"/>
    <rect x="0" y="115.650" width="20.32" height="1.295" fill="#232324"/>
    <rect x="0" y="116.935" width="20.32" height="1.295" fill="#232324"/>
    <rect x="0" y="118.220" width="20.32" height="1.295" fill="#232324"/>
    <rect x="0" y="119.505" width="20.32" height="1.295" fill="#232324"/>
    <rect x="0" y="120.790" width="20.32" height="1.295" fill="#232324"/>
    <rect x="0" y="122.075" width="20.32" height="1.295" fill="#232324"/>
    <rect x="0" y="123.360" width="20.32" height="1.295" fill="#232324"/>
    <rect x="0" y="124.645" width="20.32" height="1.295" fill="#232324"/>
    <rect x="0" y="125.930" width="20.32" height="1.295" fill="#232324"/>
    <rect x="0" y="127.215" width="20.32" height="1.295" fill="#232324"/>
  </g>
  <g inkscape:groupmode="layer" id="layer-outlines" inkscape:label="Component Outlines">
    <circle cx="2.54" cy="2.54" r="2.54" fill="#2a2a2a" stroke="#444" stroke-width="1.5"/>
    <circle cx="2.54" cy="2.54" r="0.8" fill="#444"/>
    <circle cx="2.54" cy="125.96" r="2.54" fill="#2a2a2a" stroke="#444" stroke-width="1.5"/>
    <circle cx="2.54" cy="125.96" r="0.8" fill="#444"/>
    <circle cx="17.78" cy="2.54" r="2.54" fill="#2a2a2a" stroke="#444" stroke-width="1.5"/>
    <circle cx="17.78" cy="2.54" r="0.8" fill="#444"/>
    <circle cx="17.78" cy="125.96" r="2.54" fill="#2a2a2a" stroke="#444" stroke-width="1.5"/>
    <circle cx="17.78" cy="125.96" r="0.8" fill="#444"/>
    <circle cx="10.16" cy="10.16" r="4.01" fill="#111" stroke="#996dd2" stroke-width="1.6" opacity="0.7"/>
    <circle cx="10.16" cy="10.16" r="1.40" fill="#996dd2" opacity="0.5"/>
    <circle cx="5.42" cy="24.38" r="3.84" fill="#222" stroke="#888" stroke-width="1.5" opacity="0.6"/>
    <circle cx="5.42" cy="24.38" r="1.34" fill="#333" opacity="0.4"/>
    <line x1="5.42" y1="24.38" x2="7.91" y2="24.38" stroke="#666" stroke-width="0.5" opacity="0.6"/>
    <circle cx="14.90" cy="24.38" r="4.01" fill="#111" stroke="#996dd2" stroke-width="1.6" opacity="0.7"/>
    <circle cx="14.90" cy="24.38" r="1.40" fill="#996dd2" opacity="0.5"/>
    <rect x="7.79" y="34.44" width="4.74" height="6.99" rx="1" fill="none" stroke="#888" stroke-width="1.4" opacity="0.5"/>
    <line x1="10.16" y1="39.68" x2="10.16" y2="36.18" stroke="#888" stroke-width="1.7" opacity="0.6"/>
    <circle cx="5.42" cy="83.99" r="3.61" fill="#1a1a1a" stroke="#888" stroke-width="2.40" opacity="0.6"/>
    <circle cx="5.42" cy="83.99" r="1.26" fill="#333" opacity="0.5"/>
    <circle cx="14.90" cy="83.99" r="4.01" fill="#111" stroke="#996dd2" stroke-width="1.6" opacity="0.7"/>
    <circle cx="14.90" cy="83.99" r="1.40" fill="#996dd2" opacity="0.5"/>
    <rect x="5.35" y="106.95" width="9.63" height="9.63" rx="1.5" fill="#c8b7c7" opacity="0.7"/>
    <circle cx="10.16" cy="111.76" r="2.61" fill="#111" opacity="0.5"/>
  </g>
  <g inkscape:groupmode="layer" id="layer-text" inkscape:label="Text">
    <path d="M8.33 3.39L6.96 3.39L7.81 1.85L7.03 1.85L7.03 1.57L8.32 1.57L7.47 3.10L8.33 3.10L8.33 3.39M9.84 3.39L9.68 3.39Q9.54 3.39 9.39 3.36Q9.24 3.34 9.10 3.29Q8.97 3.23 8.85 3.13Q8.74 3.03 8.68 2.88Q8.61 2.73 8.61 2.52L8.61 1.57L9.84 1.57L9.84 1.84L8.92 1.84L8.92 2.20L9.66 2.20L9.66 2.46L8.92 2.46Q8.92 2.67 8.98 2.81Q9.04 2.94 9.15 3Q9.26 3.07 9.39 3.10Q9.53 3.12 9.68 3.12L9.84 3.12L9.84 3.39M10.48 3.39L10.18 3.39L10.18 1.57L10.47 1.57Q10.61 1.57 10.76 1.59Q10.91 1.61 11.05 1.67Q11.18 1.72 11.29 1.82Q11.40 1.92 11.47 2.07Q11.53 2.22 11.53 2.44L11.53 3.39L11.23 3.39L11.23 2.44Q11.23 2.25 11.16 2.12Q11.10 2 10.99 1.94Q10.87 1.88 10.74 1.86Q10.61 1.83 10.48 1.83L10.48 3.39M12.56 3.40Q12.40 3.40 12.26 3.34Q12.12 3.27 12.02 3.16Q11.91 3.04 11.85 2.89Q11.79 2.73 11.79 2.56L11.79 2.39Q11.79 2.22 11.85 2.06Q11.91 1.91 12.02 1.80Q12.12 1.68 12.26 1.61Q12.40 1.55 12.56 1.55Q12.73 1.55 12.87 1.61Q13.01 1.68 13.11 1.80Q13.22 1.91 13.27 2.06Q13.33 2.22 13.33 2.39L13.33 2.56Q13.33 2.73 13.27 2.89Q13.22 3.04 13.11 3.16Q13.01 3.27 12.87 3.34Q12.73 3.40 12.56 3.40M12.56 3.11Q12.71 3.11 12.81 3.04Q12.91 2.97 12.97 2.84Q13.02 2.72 13.02 2.56L13.02 2.39Q13.02 2.14 12.90 1.99Q12.78 1.84 12.56 1.84Q12.35 1.84 12.23 1.99Q12.11 2.14 12.11 2.39L12.11 2.56Q12.11 2.72 12.16 2.84Q12.22 2.97 12.32 3.04Q12.42 3.11 12.56 3.11" fill="#ffffff" stroke="#ffffff" stroke-width="0.14300000000000002" stroke-linejoin="round"/>
    <path d="M7.55 17.17L7.22 17.17L7.22 16.96L7.57 16.96Q7.70 16.96 7.76 16.92Q7.82 16.87 7.82 16.76Q7.82 16.68 7.79 16.65Q7.75 16.61 7.70 16.59Q7.65 16.57 7.60 16.55Q7.53 16.53 7.46 16.50Q7.39 16.47 7.34 16.41Q7.28 16.36 7.24 16.27Q7.21 16.17 7.21 16.03L7.21 15.84L7.98 15.84L7.98 16.05L7.42 16.05Q7.42 16.14 7.45 16.19Q7.47 16.25 7.53 16.29Q7.59 16.33 7.70 16.37Q7.75 16.38 7.80 16.41Q7.86 16.43 7.92 16.48Q7.97 16.52 8.01 16.59Q8.04 16.66 8.04 16.76Q8.04 16.90 7.97 17Q7.91 17.09 7.79 17.13Q7.68 17.17 7.55 17.17M8.47 17.17L8.25 17.17L8.25 15.84L8.47 15.84L8.47 17.17M9.60 17.17L9.39 17.17Q9.27 17.17 9.15 17.14Q9.03 17.11 8.93 17.03Q8.82 16.96 8.76 16.84Q8.70 16.72 8.70 16.54L8.70 15.84L9.60 15.84L9.60 16.05L8.92 16.05L8.92 16.53Q8.92 16.66 8.96 16.74Q9 16.83 9.07 16.87Q9.14 16.92 9.22 16.94Q9.31 16.96 9.39 16.97L9.39 16.62L9.60 16.62L9.60 17.17M10.07 17.17L9.85 17.17L9.85 15.84L10.06 15.84Q10.16 15.84 10.27 15.86Q10.38 15.88 10.48 15.92Q10.58 15.96 10.66 16.03Q10.74 16.10 10.79 16.21Q10.84 16.32 10.84 16.48L10.84 17.17L10.62 17.17L10.62 16.48Q10.62 16.34 10.57 16.25Q10.52 16.16 10.44 16.12Q10.35 16.07 10.26 16.05Q10.16 16.04 10.07 16.04L10.07 17.17M11.29 17.17L11.07 17.17L11.07 15.84L11.29 15.84Q11.39 15.84 11.50 15.86Q11.60 15.88 11.70 15.92Q11.80 15.96 11.88 16.03Q11.96 16.11 12.01 16.21Q12.05 16.32 12.05 16.48L12.05 17.17L11.83 17.17L11.83 16.73L11.29 16.73L11.29 17.17M11.29 16.04L11.29 16.52L11.83 16.52L11.83 16.48Q11.83 16.34 11.78 16.25Q11.73 16.16 11.65 16.12Q11.57 16.07 11.47 16.05Q11.38 16.04 11.29 16.04M13.14 17.17L12.28 17.17L12.28 15.84L12.50 15.84L12.50 16.96L13.14 16.96" fill="#ffffff" stroke="#ffffff" stroke-width="0.1045" stroke-linejoin="round"/>
    <path d="M3.28 31.22L2.95 31.22L2.95 31.01L3.30 31.01Q3.43 31.01 3.49 30.97Q3.55 30.92 3.55 30.81Q3.55 30.73 3.52 30.70Q3.48 30.66 3.43 30.64Q3.38 30.62 3.33 30.60Q3.26 30.58 3.19 30.55Q3.13 30.52 3.07 30.46Q3.01 30.41 2.97 30.32Q2.94 30.23 2.94 30.08L2.94 29.89L3.71 29.89L3.71 30.11L3.16 30.11Q3.16 30.19 3.18 30.25Q3.20 30.30 3.26 30.34Q3.32 30.38 3.43 30.42Q3.48 30.43 3.54 30.46Q3.59 30.49 3.65 30.53Q3.70 30.57 3.74 30.64Q3.77 30.71 3.77 30.81Q3.77 30.95 3.70 31.05Q3.64 31.14 3.52 31.18Q3.41 31.22 3.28 31.22M4.84 31.22L3.98 31.22L3.98 29.89L4.21 29.89L4.21 31.02L4.84 31.02L4.84 31.22M5.52 31.24Q5.40 31.24 5.29 31.19Q5.19 31.14 5.11 31.06Q5.04 30.97 5 30.86Q4.95 30.75 4.95 30.62L4.95 30.49Q4.95 30.37 5 30.26Q5.04 30.15 5.11 30.06Q5.19 29.98 5.29 29.93Q5.40 29.88 5.52 29.88Q5.64 29.88 5.74 29.93Q5.84 29.98 5.92 30.06Q5.99 30.15 6.04 30.26Q6.08 30.37 6.08 30.49L6.08 30.62Q6.08 30.75 6.04 30.86Q5.99 30.97 5.92 31.06Q5.84 31.14 5.74 31.19Q5.64 31.24 5.52 31.24M5.52 31.02Q5.62 31.02 5.70 30.97Q5.77 30.92 5.81 30.83Q5.85 30.74 5.85 30.62L5.85 30.49Q5.85 30.31 5.76 30.20Q5.67 30.09 5.52 30.09Q5.36 30.09 5.27 30.20Q5.18 30.31 5.18 30.49L5.18 30.62Q5.18 30.74 5.22 30.83Q5.26 30.92 5.34 30.97Q5.41 31.02 5.52 31.02M6.46 31.22L6.31 31.22L6.31 29.89L6.53 29.89L6.53 31.01Q6.61 31.01 6.69 30.99Q6.77 30.97 6.83 30.92Q6.90 30.87 6.94 30.79Q6.98 30.71 6.98 30.58L6.98 29.89L7.19 29.89L7.19 31.01Q7.27 31.01 7.35 30.99Q7.43 30.97 7.50 30.92Q7.57 30.87 7.60 30.79Q7.64 30.71 7.64 30.58L7.64 29.89L7.86 29.89L7.86 30.58Q7.86 30.89 7.69 31.05Q7.52 31.20 7.15 31.22L6.98 31.22L6.98 31.04Q6.90 31.12 6.83 31.16Q6.75 31.20 6.66 31.21Q6.58 31.22 6.46 31.22" fill="#ffffff" stroke="#ffffff" stroke-width="0.1045" stroke-linejoin="round"/>
    <path d="M11.31 31.40L10.98 31.40L10.98 31.19L11.33 31.19Q11.46 31.19 11.52 31.14Q11.58 31.10 11.58 30.98Q11.58 30.91 11.55 30.87Q11.51 30.83 11.46 30.81Q11.41 30.79 11.36 30.78Q11.30 30.75 11.23 30.72Q11.16 30.69 11.10 30.64Q11.04 30.58 11 30.49Q10.97 30.40 10.97 30.25L10.97 30.07L11.74 30.07L11.74 30.28L11.19 30.28Q11.19 30.36 11.21 30.42Q11.23 30.47 11.29 30.51Q11.35 30.55 11.46 30.59Q11.51 30.61 11.57 30.63Q11.63 30.66 11.68 30.70Q11.73 30.74 11.77 30.81Q11.80 30.88 11.80 30.98Q11.80 31.13 11.74 31.22Q11.67 31.31 11.56 31.35Q11.44 31.40 11.31 31.40M12.87 31.40L12.02 31.40L12.02 30.07L12.24 30.07L12.24 31.19L12.87 31.19L12.87 31.40M13.55 31.41Q13.43 31.41 13.32 31.36Q13.22 31.31 13.15 31.23Q13.07 31.14 13.03 31.03Q12.98 30.92 12.98 30.79L12.98 30.67Q12.98 30.54 13.03 30.43Q13.07 30.32 13.15 30.24Q13.22 30.15 13.32 30.10Q13.43 30.05 13.55 30.05Q13.67 30.05 13.77 30.10Q13.87 30.15 13.95 30.24Q14.02 30.32 14.07 30.43Q14.11 30.54 14.11 30.67L14.11 30.79Q14.11 30.92 14.07 31.03Q14.02 31.14 13.95 31.23Q13.87 31.31 13.77 31.36Q13.67 31.41 13.55 31.41M13.55 31.20Q13.65 31.20 13.73 31.14Q13.80 31.09 13.84 31Q13.88 30.91 13.88 30.79L13.88 30.67Q13.88 30.49 13.79 30.38Q13.70 30.26 13.55 30.26Q13.39 30.26 13.30 30.38Q13.21 30.49 13.21 30.67L13.21 30.79Q13.21 30.91 13.25 31Q13.29 31.09 13.37 31.14Q13.44 31.20 13.55 31.20M14.49 31.40L14.34 31.40L14.34 30.07L14.56 30.07L14.56 31.18Q14.64 31.18 14.72 31.16Q14.80 31.14 14.87 31.09Q14.93 31.04 14.97 30.96Q15.01 30.88 15.01 30.76L15.01 30.07L15.22 30.07L15.22 31.18Q15.30 31.18 15.38 31.16Q15.46 31.14 15.53 31.09Q15.60 31.04 15.64 30.96Q15.67 30.88 15.67 30.76L15.67 30.07L15.90 30.07L15.90 30.76Q15.90 31.06 15.72 31.22Q15.55 31.37 15.18 31.40L15.01 31.40L15.01 31.21Q14.93 31.29 14.86 31.33Q14.78 31.37 14.70 31.38Q14.61 31.40 14.49 31.40M17.63 31.40L17.51 31.40Q17.41 31.40 17.30 31.38Q17.19 31.36 17.09 31.32Q16.99 31.28 16.91 31.21Q16.83 31.14 16.78 31.03Q16.73 30.92 16.73 30.76L16.73 30.07L17.63 30.07L17.63 30.28L16.95 30.28L16.95 30.76Q16.95 30.90 17.01 30.99Q17.06 31.08 17.14 31.12Q17.23 31.17 17.32 31.18Q17.42 31.19 17.51 31.19L17.63 31.19L17.63 31.40M18.08 31.40L17.99 31.40L17.79 30.07L18.01 30.07L18.18 31.18Q18.25 31.17 18.32 31.14Q18.40 31.11 18.45 31.07Q18.51 31.02 18.54 30.94Q18.58 30.87 18.58 30.76L18.58 30.07L18.80 30.07L18.80 30.76Q18.80 30.94 18.73 31.06Q18.67 31.18 18.57 31.25Q18.46 31.33 18.34 31.36Q18.21 31.40 18.08 31.40" fill="#ffffff" stroke="#ffffff" stroke-width="0.1045" stroke-linejoin="round"/>
    <path d="M8.32 43.43L7.99 43.43L7.99 43.21L8.34 43.21Q8.46 43.21 8.53 43.17Q8.59 43.12 8.59 43.01Q8.59 42.94 8.55 42.90Q8.52 42.86 8.47 42.84Q8.42 42.82 8.37 42.80Q8.30 42.78 8.23 42.75Q8.16 42.72 8.10 42.66Q8.05 42.61 8.01 42.52Q7.97 42.43 7.97 42.28L7.97 42.10L8.75 42.10L8.75 42.31L8.19 42.31Q8.19 42.39 8.21 42.45Q8.24 42.50 8.30 42.54Q8.35 42.58 8.47 42.62Q8.51 42.64 8.57 42.66Q8.63 42.69 8.69 42.73Q8.74 42.77 8.77 42.84Q8.81 42.91 8.81 43.01Q8.81 43.16 8.74 43.25Q8.67 43.34 8.56 43.38Q8.45 43.43 8.32 43.43M9.24 43.43L9.02 43.43L9.02 42.10L9.23 42.10Q9.33 42.10 9.44 42.11Q9.55 42.13 9.65 42.17Q9.75 42.21 9.83 42.28Q9.91 42.35 9.96 42.46Q10.01 42.57 10.01 42.73L10.01 43.43L9.79 43.43L9.79 42.73Q9.79 42.59 9.74 42.50Q9.69 42.41 9.61 42.37Q9.53 42.32 9.43 42.31Q9.33 42.29 9.24 42.29L9.24 43.43M10.46 43.43L10.24 43.43L10.24 42.10L10.46 42.10Q10.56 42.10 10.67 42.11Q10.78 42.13 10.88 42.17Q10.98 42.21 11.05 42.28Q11.13 42.36 11.18 42.47Q11.22 42.58 11.22 42.73L11.22 43.43L11 43.43L11 42.98L10.46 42.98L10.46 43.43M10.46 42.29L10.46 42.77L11 42.77L11 42.73Q11 42.59 10.95 42.50Q10.90 42.42 10.82 42.37Q10.74 42.32 10.64 42.31Q10.55 42.29 10.46 42.29M11.67 43.43L11.45 43.43L11.45 42.10L12.37 42.10Q12.37 42.28 12.33 42.41Q12.29 42.54 12.22 42.63Q12.15 42.72 12.07 42.78Q11.98 42.84 11.91 42.87Q11.83 42.90 11.76 42.91Q11.70 42.92 11.67 42.92L11.67 43.43M11.67 42.29L11.67 42.71Q11.77 42.71 11.86 42.67Q11.95 42.63 12.01 42.56Q12.08 42.50 12.12 42.43Q12.15 42.36 12.15 42.29" fill="#ffffff" stroke="#ffffff" stroke-width="0.1045" stroke-linejoin="round"/>
    <path d="M3.09 89.60L2.87 89.60L2.87 88.27L3.79 88.27Q3.79 88.45 3.75 88.58Q3.71 88.71 3.64 88.80Q3.57 88.89 3.49 88.95L3.85 89.60L3.60 89.60L3.30 89.05Q3.23 89.07 3.17 89.08Q3.12 89.09 3.09 89.09L3.09 89.60M3.09 88.46L3.09 88.88Q3.19 88.88 3.28 88.84Q3.37 88.80 3.43 88.73Q3.50 88.67 3.53 88.60Q3.57 88.53 3.57 88.46L3.09 88.46M4.89 89.60L4.78 89.60Q4.67 89.60 4.57 89.58Q4.46 89.56 4.36 89.52Q4.25 89.48 4.17 89.41Q4.09 89.34 4.05 89.23Q4 89.12 4 88.96L4 88.27L4.90 88.27L4.90 88.47L4.22 88.47L4.22 88.73L4.76 88.73L4.76 88.92L4.22 88.92Q4.22 89.08 4.26 89.17Q4.31 89.27 4.39 89.32Q4.47 89.37 4.57 89.38Q4.67 89.40 4.78 89.40L4.89 89.40L4.89 89.60M5.43 89.60L5.10 89.60L5.10 89.39L5.45 89.39Q5.58 89.39 5.64 89.34Q5.71 89.29 5.71 89.18Q5.71 89.11 5.67 89.07Q5.64 89.03 5.58 89.01Q5.53 88.99 5.48 88.97Q5.42 88.95 5.35 88.92Q5.28 88.89 5.22 88.84Q5.16 88.78 5.13 88.69Q5.09 88.60 5.09 88.45L5.09 88.27L5.87 88.27L5.87 88.48L5.31 88.48Q5.31 88.56 5.33 88.62Q5.35 88.67 5.41 88.71Q5.47 88.75 5.58 88.79Q5.63 88.81 5.69 88.83Q5.75 88.86 5.80 88.90Q5.86 88.94 5.89 89.01Q5.93 89.08 5.93 89.18Q5.93 89.33 5.86 89.42Q5.79 89.51 5.68 89.55Q5.57 89.60 5.43 89.60M6.99 89.60L6.88 89.60Q6.78 89.60 6.67 89.58Q6.56 89.56 6.46 89.52Q6.36 89.48 6.28 89.41Q6.19 89.34 6.15 89.23Q6.10 89.12 6.10 88.96L6.10 88.27L7 88.27L7 88.47L6.32 88.47L6.32 88.73L6.86 88.73L6.86 88.92L6.32 88.92Q6.32 89.08 6.37 89.17Q6.41 89.27 6.49 89.32Q6.57 89.37 6.67 89.38Q6.77 89.40 6.88 89.40L6.99 89.40L6.99 89.60M8.06 89.39L8.06 89.60Q7.94 89.59 7.82 89.56Q7.71 89.52 7.61 89.45Q7.51 89.38 7.45 89.26Q7.39 89.14 7.39 88.96L7.39 88.48L7.21 88.48L7.21 88.27L8.01 88.27L8.01 88.48L7.61 88.48L7.61 88.96Q7.61 89.08 7.65 89.16Q7.69 89.24 7.75 89.29Q7.82 89.34 7.90 89.36Q7.98 89.39 8.06 89.39" fill="#ffffff" stroke="#ffffff" stroke-width="0.1045" stroke-linejoin="round"/>
    <path d="M12.58 91L12.35 91L12.35 89.67L13.27 89.67Q13.27 89.85 13.23 89.98Q13.19 90.12 13.12 90.21Q13.06 90.30 12.98 90.35L13.33 91L13.08 91L12.78 90.45Q12.71 90.48 12.66 90.49Q12.60 90.50 12.58 90.50L12.58 91M12.57 89.87L12.57 90.28Q12.67 90.28 12.76 90.24Q12.85 90.20 12.91 90.14Q12.98 90.08 13.02 90.01Q13.05 89.93 13.05 89.87L12.57 89.87M14.38 91L14.26 91Q14.16 91 14.05 90.99Q13.94 90.97 13.84 90.93Q13.74 90.89 13.66 90.82Q13.58 90.74 13.53 90.63Q13.48 90.52 13.48 90.37L13.48 89.67L14.38 89.67L14.38 89.88L13.70 89.88L13.70 90.13L14.24 90.13L14.24 90.33L13.70 90.33Q13.70 90.48 13.75 90.58Q13.79 90.67 13.87 90.72Q13.95 90.77 14.05 90.79Q14.15 90.81 14.26 90.81L14.38 90.81L14.38 91M14.92 91L14.58 91L14.58 90.79L14.94 90.79Q15.06 90.79 15.13 90.75Q15.19 90.70 15.19 90.58Q15.19 90.51 15.15 90.48Q15.12 90.44 15.07 90.42Q15.02 90.40 14.96 90.38Q14.90 90.36 14.83 90.33Q14.76 90.30 14.70 90.24Q14.65 90.19 14.61 90.10Q14.57 90 14.57 89.86L14.57 89.67L15.35 89.67L15.35 89.88L14.79 89.88Q14.79 89.97 14.81 90.02Q14.84 90.08 14.89 90.12Q14.95 90.16 15.07 90.20Q15.11 90.21 15.17 90.24Q15.23 90.26 15.29 90.31Q15.34 90.35 15.37 90.42Q15.41 90.49 15.41 90.59Q15.41 90.73 15.34 90.82Q15.27 90.92 15.16 90.96Q15.05 91 14.92 91M16.48 91L16.36 91Q16.26 91 16.15 90.99Q16.04 90.97 15.94 90.93Q15.84 90.89 15.76 90.82Q15.68 90.74 15.63 90.63Q15.58 90.52 15.58 90.37L15.58 89.67L16.48 89.67L16.48 89.88L15.80 89.88L15.80 90.13L16.34 90.13L16.34 90.33L15.80 90.33Q15.80 90.48 15.85 90.58Q15.89 90.67 15.97 90.72Q16.05 90.77 16.15 90.79Q16.25 90.81 16.36 90.81L16.48 90.81L16.48 91M17.55 90.80L17.55 91Q17.43 91 17.31 90.96Q17.19 90.93 17.09 90.86Q16.99 90.78 16.93 90.66Q16.87 90.54 16.87 90.37L16.87 89.88L16.69 89.88L16.69 89.67L17.49 89.67L17.49 89.88L17.09 89.88L17.09 90.37Q17.09 90.49 17.13 90.57Q17.17 90.65 17.24 90.70Q17.30 90.75 17.38 90.77Q17.46 90.79 17.55 90.80" fill="#ffffff" stroke="#ffffff" stroke-width="0.1045" stroke-linejoin="round"/>
    <path d="M7.55 118.77L7.22 118.77L7.22 118.56L7.57 118.56Q7.70 118.56 7.76 118.52Q7.82 118.47 7.82 118.36Q7.82 118.28 7.79 118.25Q7.75 118.21 7.70 118.19Q7.65 118.17 7.60 118.15Q7.53 118.13 7.46 118.10Q7.39 118.07 7.34 118.01Q7.28 117.96 7.24 117.87Q7.21 117.77 7.21 117.63L7.21 117.44L7.98 117.44L7.98 117.65L7.42 117.65Q7.42 117.74 7.45 117.79Q7.47 117.85 7.53 117.89Q7.59 117.93 7.70 117.97Q7.75 117.98 7.80 118.01Q7.86 118.03 7.92 118.08Q7.97 118.12 8.01 118.19Q8.04 118.26 8.04 118.36Q8.04 118.50 7.97 118.60Q7.91 118.69 7.79 118.73Q7.68 118.77 7.55 118.77M8.47 118.77L8.25 118.77L8.25 117.44L8.47 117.44L8.47 118.77M9.60 118.77L9.39 118.77Q9.27 118.77 9.15 118.74Q9.03 118.71 8.93 118.63Q8.82 118.56 8.76 118.44Q8.70 118.32 8.70 118.14L8.70 117.44L9.60 117.44L9.60 117.65L8.92 117.65L8.92 118.13Q8.92 118.26 8.96 118.34Q9 118.43 9.07 118.47Q9.14 118.52 9.22 118.54Q9.31 118.56 9.39 118.57L9.39 118.22L9.60 118.22L9.60 118.77M10.07 118.77L9.85 118.77L9.85 117.44L10.06 117.44Q10.16 117.44 10.27 117.46Q10.38 117.48 10.48 117.52Q10.58 117.56 10.66 117.63Q10.74 117.70 10.79 117.81Q10.84 117.92 10.84 118.08L10.84 118.77L10.62 118.77L10.62 118.08Q10.62 117.94 10.57 117.85Q10.52 117.76 10.44 117.72Q10.35 117.67 10.26 117.65Q10.16 117.64 10.07 117.64L10.07 118.77M11.29 118.77L11.07 118.77L11.07 117.44L11.29 117.44Q11.39 117.44 11.50 117.46Q11.60 117.48 11.70 117.52Q11.80 117.56 11.88 117.63Q11.96 117.71 12.01 117.81Q12.05 117.92 12.05 118.08L12.05 118.77L11.83 118.77L11.83 118.33L11.29 118.33L11.29 118.77M11.29 117.64L11.29 118.12L11.83 118.12L11.83 118.08Q11.83 117.94 11.78 117.85Q11.73 117.76 11.65 117.72Q11.57 117.67 11.47 117.65Q11.38 117.64 11.29 117.64M13.14 118.77L12.28 118.77L12.28 117.44L12.50 117.44L12.50 118.56L13.14 118.56" fill="#ffffff" stroke="#ffffff" stroke-width="0.1045" stroke-linejoin="round"/>
  </g>
</svg>
